<ttFont>
          <CharString index="0">
            -16 rmoveto
            -32 12 -39 9 -29 2 38 115 55 139 36 74 rrcurveto
            62 85 30 70 35 vvcurveto
            20 -13 13 -17 -23 -15 -20 -93 -41 vhcurveto
            -223 -98 -90 -105 -96 hhcurveto
            -48 -26 33 60 114 88 141 134 144 hvcurveto
            -40 37 rlineto
            -148 -118 -124 -244 -114 vvcurveto
            -84 41 -49 70 90 77 75 54 57 vhcurveto
            -12 -26 -38 -104 -8 -28 rrcurveto
            -10 -10 1 -10 hhcurveto
            -222 -188 -96 -121 -65 61 -49 80 158 107 99 188 77 hvcurveto
            19 -1 12 -5 75 -9 rrcurveto
            -403 -203 rmoveto
            -47 -33 26 37 87 137 69 179 hvcurveto
            -102 -35 -84 -117 -117 hhcurveto
            return
          </CharString>
          <CharString index="1">
            -26 -21 -19 -24 -16 15 -11 16 -5 hvcurveto
            -5 -8 -21 -14 -15 -12 22 -32 rcurveline
            47 34 29 32 33 vvcurveto
            26 -16 16 -25 vhcurveto
            return
          </CharString>
          <CharString index="2">
            118 rmoveto
            -42 -63 -27 -7 -27 hhcurveto
            -25 -30 17 32 -12 hvcurveto
            169 60 96 78 71 vvcurveto
            45 -42 7 -24 -133 -162 -147 -123 -66 45 -43 69 67 81 43 57 41 vhcurveto
            -212 48 rmoveto
            86 11 91 94 62 hhcurveto
            18 15 -15 -18 -48 -92 -63 -105 -36 hvcurveto
            return
          </CharString>
          <CharString index="3">
            632 rmoveto
            -104 -179 -106 -110 -79 hvcurveto
            -52 26 -3 18 -26 24 -27 -30 rcurveline
            15 -22 32 -32 34 -20 rrcurveto
            -50 -78 -20 -60 -68 vvcurveto
            -127 105 -57 75 179 97 123 112 13 vhcurveto
            -47 hlineto
            -93 -25 -50 -68 -106 hhcurveto
            -106 -51 68 96 44 14 49 24 39 hvcurveto
            -9 35 40 -6 35 hhcurveto
            163 142 110 101 47 -29 29 -49 hvcurveto
            -230 -247 rmoveto
            -32 -24 3 11 -28 hvcurveto
            91 59 115 74 81 hhcurveto
            28 20 -17 -25 -73 -103 -64 -116 hvcurveto
            return
          </CharString>
          <CharString index="4">
            22 18 17 22 22 -18 18 -22 -22 -17 -18 -22 return
          </CharString>
          <CharString index="5">
            -63 callsubr
            -103 callsubr
            vhcurveto
            return
          </CharString>
          <CharString index="6">
            -94 callgsubr
            -103 callsubr
            vhcurveto
            endchar
          </CharString>
          <CharString index="7">
            -65 6 -69 103 -12 205 rrcurveto
            144 23 157 154 128 vvcurveto
            51 -34 32 -55 -60 -69 -32 -71 -93 vhcurveto
            6 36 3 25 10 vvcurveto
            -58 -5 -5 -12 -26 -118 -5 -17 rlinecurve
            -125 -99 -104 -180 -96 vvcurveto
            -43 20 -28 32 63 56 74 173 67 vhcurveto
            -149 11 77 -222 100 hhcurveto
            13 19 2 3 17 hvcurveto
            -296 381 rmoveto
            -94 -36 -33 -74 -25 hhcurveto
            -10 -7 8 13 52 71 139 77 71 hvcurveto
            -7 -29 -10 -32 -20 -54 rrcurveto
            68 14 rmoveto
            9 26 24 79 22 87 rrcurveto
            16 18 98 70 52 hhcurveto
            32 19 -21 -36 -91 -125 -130 -149 hvcurveto
            return
          </CharString>
          <CharString index="8">
            389 rmoveto
            -73 -67 -80 -99 -62 -106 rrcurveto
            133 -30 17 119 -50 hhcurveto
            -25 -95 -124 -129 -67 hvcurveto
            -48 227 0 22 -8 15 rrcurveto
            -22 -18 -3 -5 -18 hvcurveto
            12 -41 18 -102 16 -131 rrcurveto
            -85 10 23 -2 29 hhcurveto
            7 6 0 19 9 hvcurveto
            64 137 21 48 59 63 20 -68 -6 32 18 -146 rrcurveto
            -91 12 25 -2 20 hhcurveto
            16 6 20 7 5 hvcurveto
            36 92 73 109 48 59 60 73 rcurveline
            return
          </CharString>
          <CharString index="9">
            -1 callgsubr
            342 218 -78 callsubr
            return
          </CharString>
          <CharString index="10">
            -90 callsubr
            46 16 7 5 16 vvcurveto
            return
          </CharString>
          <CharString index="11">
            rmoveto
            -14 -20 -29 -15 -36 -11 -186 6 -11 hhcurveto
            -26 -18 0 -3 -25 hvcurveto
            38 35 34 65 31 99 rrcurveto
            188 12 174 116 112 vvcurveto
            52 -41 34 -61 -122 -130 -85 -199 -81 vhcurveto
            -26 -36 0 28 -43 hvcurveto
            -21 -37 rlineto
            -19 25 47 -18 39 hhcurveto
            -25 -74 -12 -40 -17 -32 -35 -68 -2 -13 -1 -8 rrcurveto
            -22 12 -10 25 -1 vhcurveto
            1 -1 99 2 24 return
          </CharString>
          <CharString index="12">
            -92 callgsubr
            -6 callgsubr
            81 return
          </CharString>
          <CharString index="13">
            36 rmoveto
            -84 -27 11 54 22 80 43 114 rlinecurve
            -37 21 rlineto
            -56 -31 -119 -139 -50 hhcurveto
            -31 -24 25 35 76 114 112 156 17 hvcurveto
            -8 35 rlineto
            -159 -196 -153 -137 -54 33 -34 49 57 72 25 149 98 hvcurveto
            -30 -95 -12 -42 -12 -52 rrcurveto
            return
          </CharString>
          <CharString index="14">
            613 rmoveto
            6 -30 -37 3 -39 hhcurveto
            -251 -224 -115 -161 -87 54 -76 109 -59 hvcurveto
            24 33 rlineto
            -66 54 -51 56 74 vvcurveto
            98 152 107 243 17 11 0 -2 17 vhcurveto
            -104 -74 -74 -104 -64 -207 -11 -34 -13 -43 -7 -18 rrcurveto
            -222 -22 -204 -134 -131 vvcurveto
            -56 40 -37 58 65 97 44 64 75 vhcurveto
            69 58 41 63 42 114 rrcurveto
            3 16 16 2 15 hhcurveto
            18 17 -2 -3 17 hvcurveto
            6 40 rlineto
            4 -24 -33 1 -32 hhcurveto
            88 284 75 126 104 63 rrcurveto
            24 14 8 10 15 vvcurveto
            16 -10 9 -22 4 vhcurveto
            -426 -744 rmoveto
            -71 -51 -73 -46 -61 hhcurveto
            -36 -21 21 35 101 137 94 174 17 hvcurveto
            -11 -49 -27 -59 -31 -43 rrcurveto
            return
          </CharString>
          <CharString index="15">
            -35 callsubr
            -31 callgsubr
            -17 466 rmoveto
            8 5 -6 -9 -36 -52 -90 -85 -101 hvcurveto
            117 15 65 125 44 hhcurveto
            return
          </CharString>
          <CharString index="16">
            -74 callsubr
            -226 -314 -11 -15 -73 -93 rrcurveto
            32 136 25 181 105 vvcurveto
            28 -1 34 -5 27 vhcurveto
            -78 hlineto
            1 -21 0 -21 -21 vvcurveto
            -152 -7 -151 -63 -189 vhcurveto
            -4 -11 -2 -12 -8 vvcurveto
            return
          </CharString>
          <CharString index="17">
            -66 callsubr
            -56 callsubr
            -8 15 -2 11 20 vvcurveto
            88 62 66 122 42 vhcurveto
            return
          </CharString>
          <CharString index="18">
            756 298 rmoveto
            -1 callsubr
            -26 callsubr
            vhcurveto
            -106 -94 -108 -140 -23 -35 rrcurveto
            -296 -35 -201 -112 -120 vvcurveto
            -66 51 -40 62 138 129 124 193 143 vhcurveto
            2 20 30 0 29 hhcurveto
            23 22 0 -1 14 hvcurveto
            -2 -24 -11 -79 -49 vvcurveto
            return
          </CharString>
          <CharString index="19">
            rmoveto
            0 108 86 21 22 vhcurveto
            -17 callgsubr
          </CharString>
          <CharString index="20">
            -127 -46 -163 -82 -150 vvcurveto
            -60 36 -37 56 172 51 236 125 23 vhcurveto
            61 23 15 3 17 10 rrcurveto
            -147 -52 rmoveto
            -83 -17 -38 -169 -97 hhcurveto
            -28 -21 22 32 92 134 74 67 32 hvcurveto
            return
          </CharString>
          <CharString index="21">
            -173 -57 -117 -105 -116 vvcurveto
            -57 35 -40 57 114 87 96 265 45 vhcurveto
            61 23 17 6 13 7 rrcurveto
            -145 -52 rmoveto
            -194 -41 -63 -58 -48 hhcurveto
            -28 -21 22 32 61 84 84 117 53 hvcurveto
            return
          </CharString>
          <CharString index="22">
            -102 -58 -36 -65 hvcurveto
            -54 87 -81 -52 vvcurveto
            -30 -26 -26 -31 -36 -11 24 41 -49 vhcurveto
            -38 -27 rlineto
            -53 29 39 -40 67 hhcurveto
            80 54 42 73 hvcurveto
            44 -81 97 32 vvcurveto
            55 47 11 53 12 15 0 -2 17 vhcurveto
            return
          </CharString>
          <CharString index="23">
            74 rmoveto
            3 -27 -23 1 -23 hhcurveto
            -58 -52 -8 -14 -88 hvcurveto
            91 115 78 54 84 58 rrcurveto
            29 20 30 12 32 vvcurveto
            30 -26 3 -46 -72 -122 -5 -36 -60 vhcurveto
            6 -34 rlineto
            12 69 56 8 59 hhcurveto
            12 12 0 -1 13 hvcurveto
            -210 -148 -90 -79 -26 vvcurveto
            -30 33 -38 25 6 13 4 4 20 vhcurveto
            95 20 43 -3 122 4 rrcurveto
            return
          </CharString>
          <CharString index="24">
            -5 callgsubr
            -5 callsubr
            -40 -56 -35 -85 -13 vhcurveto
            -17 -3 -19 -2 -14 -4 rrcurveto
            -34 vlineto
            return
          </CharString>
          <CharString index="25">
            -95 callgsubr
            hintmask 11110000
            -87 callsubr
            return
          </CharString>
          <CharString index="26">
            -61 callgsubr
            20 80 34 13 callsubr
            -56 -163 -27 -162 60 -21 rcurveline
            168 74 71 133 74 hhcurveto
            21 18 -18 -19 hvcurveto
            return
          </CharString>
          <CharString index="27">
            -53 -54 -59 -29 -49 hhcurveto
            -39 -25 22 34 72 111 89 240 15 hvcurveto
            return
          </CharString>
          <CharString index="28">
            -103 rmoveto
            -77 14 -31 27 90 vvcurveto
            44 12 99 66 322 vhcurveto
            4 18 3 20 13 vvcurveto
            37 -26 26 -36 -37 -6 0 -190 -86 vhcurveto
            -6 -12 -60 -143 -98 -160 rrcurveto
            -7 -4 -3 -3 -4 hhcurveto
            -5 1 -1 3 15 vvcurveto
            86 5 29 7 73 vhcurveto
            13 135 13 120 20 -76 callgsubr
            -11 -131 -117 vvcurveto
            -65 3 -29 8 -12 vhcurveto
            -11 7 25 -11 17 hhcurveto
            36 67 143 0 hvcurveto
            89 45 138 302 15 hhcurveto
            5 2 -4 -5 -5 -2 -10 -4 -17 hvcurveto
            -43 -162 -32 -214 -59 -10 callsubr
            endchar
          </CharString>
          <CharString index="29">
            rmoveto
            -81 callgsubr
            return
          </CharString>
          <CharString index="30">
            -27 -18 -21 -15 -17 hhcurveto
            -24 -11 17 30 122 153 326 103 199 hvcurveto
            -44 24 rlineto
            -127 -232 -154 -383 -94 vvcurveto
            -48 28 -36 40 42 30 36 64 41 vhcurveto
            return
          </CharString>
          <CharString index="31">
            631 rmoveto
            -50 -17 -1 -80 -116 hvcurveto
            1 9 rlineto
            hintmask 11011100
            5 48 3 14 17 vvcurveto
            -72 -12 rlineto
            1 -8 1 -9 -10 vvcurveto
            -33 -6 -42 -10 -41 vhcurveto
            -151 -138 -153 -276 -138 vvcurveto
            -42 20 -26 33 57 53 84 126 59 vhcurveto
            -2 26 8 0 12 hhcurveto
            165 215 260 192 hvcurveto
            hintmask 11101100
            69 -30 39 -54 vhcurveto
            -412 -486 rmoveto
            -18 -42 7 -7 9 -7 9 -4 rlinecurve
            -50 -20 -38 -64 -13 hhcurveto
            -9 -3 6 13 82 83 177 127 158 hvcurveto
            -27 -96 -34 -92 -45 -88 rrcurveto
            264 87 rmoveto
            -65 -54 -67 -37 -61 -4 -7 1 -8 hhcurveto
            78 169 38 113 12 92 rrcurveto
            38 57 38 16 35 hhcurveto
            36 22 -25 -38 -71 -51 -115 -64 -78 hvcurveto
            endchar
          </CharString>
          <CharString index="32">
            33 5 45 4 33 12 -5 33 rcurveline
            -2 -17 -46 -8 -30 hhcurveto
            13 51 13 57 56 vvcurveto
            -60 6 -7 -58 -17 -61 -12 -50 rlinecurve
            -117 15 -76 61 80 vvcurveto
            66 55 39 87 return
          </CharString>
          <CharString index="33">
            620 rmoveto
            1 -11 0 -11 -11 vvcurveto
            -192 -89 -185 -96 -93 vhcurveto
            -21 -22 -14 -9 -16 hhcurveto
            -20 -10 19 38 78 32 171 49 146 hvcurveto
            5 16 10 24 17 vvcurveto
            14 -6 9 -21 -27 -16 -12 -52 -37 vhcurveto
            return
          </CharString>
          <CharString index="34">
            -7 -28 -23 -2 -26 hhcurveto
            -77 -43 28 39 20 10 23 23 24 hvcurveto
            return
          </CharString>
          <CharString index="35">
            29 144 -8 14 hhcurveto
            61 29 33 35 30 hvcurveto
            -81 481 rmoveto
            34 25 -24 -31 -76 -115 -85 -135 -10 hvcurveto
            134 31 78 92 82 hhcurveto
            return
          </CharString>
          <CharString index="36">
            142 rmoveto
            129 133 95 59 133 124 rrcurveto
            58 54 20 24 23 vvcurveto
            54 -32 2 -142 -188 -115 -17 -90 -38 33 -57 26 9 9 10 11 vhcurveto
            17 -5 14 14 vvcurveto
            return
          </CharString>
          <CharString index="37">
            -1 7 7 0 8 hhcurveto
            106 169 57 107 return
          </CharString>
          <CharString index="38">
            380 111 rmoveto
            -15 -18 -33 -27 -14 hhcurveto
            -36 -62 57 94 -6 hvcurveto
            42 59 46 36 51 2 rrcurveto
            66 vlineto
            -80 -21 -76 -53 -78 -161 17 80 26 13 callsubr
            -45 -163 -27 -162 60 -21 rcurveline
            21 52 32 42 21 41 rrcurveto
            return
          </CharString>
          <CharString index="39">
            -24 -21 20 24 22 21 96 62 101 hvcurveto
            return
          </CharString>
          <CharString index="40">
            354 rmoveto
            -45 -56 -58 -125 -69 hvcurveto
            32 112 2 22 4 82 -56 -15 rcurveline
            -69 -3 -60 -24 -69 vhcurveto
            -8 -22 -55 -125 0 vvcurveto
            57 -25 rlineto
            112 65 43 156 69 hhcurveto
            17 12 -10 -17 -6 -9 -28 -5 -11 hvcurveto
            24 -19 rlineto
            return
          </CharString>
          <CharString index="41">
            -45 callsubr
            -22 callsubr
            return
          </CharString>
          <CharString index="42">
            83 102 54 113 64 145 rrcurveto
            34 15 41 109 20 hhcurveto
            5 4 -5 -7 hvcurveto
            -2 -66 -33 -283 -111 vvcurveto
            return
          </CharString>
          <CharString index="43">
            rmoveto
            29 18 -132 78 -68 -40 rlineto
            endchar
          </CharString>
          <CharString index="44">
            -22 17 -17 22 return
          </CharString>
          <CharString index="45">
            14 50 rlineto
            0 -75 72 -28 44 vhcurveto
            7 10 76 75 27 25 -24 30 rcurveline
            -18 -9 -147 -129 0 vvcurveto
            0 151 -161 17 -7 vhcurveto
            return
          </CharString>
          <CharString index="46">
            89 111 100 83 31 -15 15 -40 -1 vhcurveto
            -16 -103 rmoveto
            -41 -16 -44 -29 -26 hhcurveto
            -23 -18 19 34 9 0 13 8 30 hvcurveto
            12 38 24 6 16 hhcurveto
            27 18 -9 -18 2 hvcurveto
            -7 -2 -10 -4 -9 vhcurveto
            return
          </CharString>
          <CharString index="47">
            vvcurveto
            -24 24 -22 34 51 82 49 53 40 vhcurveto
            return
          </CharString>
          <CharString index="48">
            381 rmoveto
            -57 -71 -32 -165 -110 hvcurveto
            19 84 0 8 36 vvcurveto
            33 -16 40 -15 21 vhcurveto
            -50 -25 rlineto
            24 -48 2 -26 -42 vvcurveto
            -40 -185 -500 -16 -46 vhcurveto
            60 -21 rlineto
            313 88 156 330 116 hhcurveto
            30 22 -24 -34 -86 -75 -106 -73 -20 -15 3 4 -30 hvcurveto
            -24 -43 rlineto
            -9 15 27 -6 26 hhcurveto
            132 120 150 141 52 -35 38 -45 hvcurveto
            endchar
          </CharString>
          <CharString index="49">
            -65 -49 -40 -40 -39 hhcurveto
            -32 -22 24 37 90 123 99 112 15 hvcurveto
            -3 35 rlineto
            -135 -187 -158 -136 -54 33 -35 52 57 78 38 168 96 hvcurveto
            -19 -72 -3 -33 -18 vvcurveto
            return
          </CharString>
          <CharString index="50">
            rmoveto
            -15 -18 -33 -27 -14 hhcurveto
            -36 -33 30 65 -12 hvcurveto
            56 24 96 42 79 vvcurveto
            41 -27 28 -41 -54 -71 -21 -174 -116 vhcurveto
            70 239 90 192 66 115 -49 18 rcurveline
            -71 -93 -211 -574 -50 vvcurveto
            61 -21 60 143 80 145 90 8 rlinecurve
            24 15 -17 -19 hvcurveto
            -74 -144 -1 -44 vvcurveto
            -44 66 -112 58 47 42 39 56 34 vhcurveto
            endchar
          </CharString>
          <CharString index="51">
            -51 callsubr
            hvcurveto
            return
          </CharString>
          <CharString index="52">
            1 10 14 1 13 hhcurveto
            11 10 -1 -1 6 hvcurveto
            -450 -269 rmoveto
            -42 -25 19 29 1 callsubr
            hvcurveto
            return
          </CharString>
          <CharString index="53">
            -63 -69 -74 -58 vvcurveto
            -35 27 -27 35 49 57 47 57 29 vhcurveto
            return
          </CharString>
          <CharString index="54">
            -27 26 -25 28 28 165 215 196 139 vhcurveto
            -43 -190 -4 -49 -35 vvcurveto
            return
          </CharString>
          <CharString index="55">
            hstem
            42 112 41 92 vstem
            253 118 rmoveto
            -6 -4 rlineto
            -16 -24 -22 -18 -18 hhcurveto
            -16 -13 13 12 14 19 21 51 74 hvcurveto
            46 66 17 30 27 vvcurveto
            31 -24 18 -31 -42 -75 -32 -47 -61 vhcurveto
            9 -35 rlineto
            17 26 36 24 29 hhcurveto
            29 12 -25 -17 hvcurveto
            -61 -153 -103 -61 -60 callsubr
            return
          </CharString>
          <CharString index="56">
            -120 -143 -72 -104 -82 return
          </CharString>
          <CharString index="57">
            rmoveto
            -66 -43 -74 -48 -58 hhcurveto
            -39 -23 22 37 93 118 81 178 29 hvcurveto
            -15 -59 -21 -53 -23 -36 rrcurveto
            return
          </CharString>
          <CharString index="58">
            rmoveto
            -27 -39 -39 -14 -17 hhcurveto
            -24 -6 17 7 return
          </CharString>
          <CharString index="59">
            -76 -42 callgsubr
            return
          </CharString>
          <CharString index="60">
            -37 -150 7 -50 hhcurveto
            -195 -117 -90 -107 -51 38 -37 54 63 62 35 41 41 hvcurveto
            -21 26 rlineto
            -19 -44 -37 -19 -34 hhcurveto
            -37 -29 24 30 55 60 return
          </CharString>
          <CharString index="61">
            -229 -86 -86 -115 -97 hhcurveto
            -60 -8 40 74 -10 hvcurveto
            93 95 118 184 72 vvcurveto
            30 -15 18 -27 -59 callgsubr
            vhcurveto
            -92 callgsubr
            return
          </CharString>
          <CharString index="62">
            167 183 125 114 return
          </CharString>
          <CharString index="63">
            14 rmoveto
            -68 76 -33 63 -28 59 12 13 127 81 42 33 -19 27 rcurveline
            -26 -12 -39 -21 -114 -82 -27 91 -7 23 -5 7 -66 -12 rcurveline
            2 -28 10 -50 30 -73 -112 -114 -38 -47 -13 -31 28 -23 rcurveline
            101 116 12 16 46 41 29 -64 38 -67 71 -52 rrcurveto
            endchar
          </CharString>
          <CharString index="64">
            -8 -38 -3 -28 -17 vvcurveto
            return
          </CharString>
          <CharString index="65">
            637 rmoveto
            -74 -117 -26 -67 -60 -175 -112 -11 -29 -4 -42 -7 48 137 65 104 88 55 rrcurveto
            21 13 8 11 15 vvcurveto
            return
          </CharString>
          <CharString index="66">
            -163 -14 -280 -135 -124 vvcurveto
            -52 43 -35 63 return
          </CharString>
          <CharString index="67">
            2 -9 1 -8 -4 vvcurveto
            -126 -190 -109 -106 vhcurveto
            return
          </CharString>
          <CharString index="68">
            649 574 rmoveto
            39 -35 25 -53 -153 -216 -131 -119 -30 13 -23 34 -28 vhcurveto
            -86 callgsubr
            -52 callgsubr
            return
          </CharString>
          <CharString index="69">
            -47 11 -21 21 37 vvcurveto
            return
          </CharString>
          <CharString index="70">
            11 -6 4 -19 5 vhcurveto
            return
          </CharString>
          <CharString index="71">
            rmoveto
            -4 -6 -2 -2 -7 hvcurveto
            -10 -28 -19 -3 -41 hhcurveto
            return
          </CharString>
          <CharString index="72">
            -113 12 40 -62 61 hhcurveto
            return
          </CharString>
          <CharString index="73">
            6 86 254 47 166 85 return
          </CharString>
          <CharString index="74">
            -41 callgsubr
            -48 21 return
          </CharString>
          <CharString index="75">
            -31 -21 -30 -21 -15 -9 9 14 32 22 31 23 12 9 -10 -15 vhcurveto
            endchar
          </CharString>
          <CharString index="76">
            -44 -27 21 32 67 130 101 214 26 hvcurveto
            4 -14 1 -9 -11 vvcurveto
            -48 -41 -59 -66 -44 vhcurveto
            endchar
          </CharString>
          <CharString index="77">
            421 110 rmoveto
            -83 callgsubr
            return
          </CharString>
          <CharString index="78">
            -23 18 -18 23 23 18 18 23 23 -18 18 -23 -23 -18 -18 -23 vhcurveto
            return
          </CharString>
          <CharString index="79">
            89 -89 244 203 89 return
          </CharString>
          <CharString index="80">
            1 -7 -9 0 -8 hhcurveto
            return
          </CharString>
          <CharString index="81">
            -27 -20 -38 -87 -37 return
          </CharString>
          <CharString index="82">
            -20 hstemhm
            40 57 hintmask 11011100
            10 callgsubr
            27 callsubr
            6 -113 -15 1 -16 hhcurveto
            -204 -113 -98 -99 return
          </CharString>
          <CharString index="83">
            38 46 80 54 104 66 vhcurveto
            return
          </CharString>
          <CharString index="84">
            rmoveto
            29 -22 19 -34 -48 -39 -34 -41 -24 callgsubr
            return
          </CharString>
          <CharString index="85">
            48 -40 29 -63 return
          </CharString>
          <CharString index="86">
            -17 vvcurveto
            -46 25 -30 35 vhcurveto
            80 25 96 26 hhcurveto
            14 3 -10 -15 -46 -58 -104 -1 -13 hvcurveto
            47 -3 rlineto
            55 113 27 75 31 vvcurveto
            26 -17 19 -24 vhcurveto
            endchar
          </CharString>
          <CharString index="87">
            rmoveto
            11 101 104 12 rlineto
            47 -97 vlineto
            11 91 -54 12 -6 -31 -4 -40 -4 -41 rlinecurve
            -40 -3 -39 -4 -30 -6 12 -54 rcurveline
            93 11 -2 -34 -1 -33 -1 -28 rlinecurve
            return
          </CharString>
          <CharString index="88">
            -170 -191 -205 -173 -84 37 -60 93 168 194 252 144 return
          </CharString>
          <CharString index="89">
            -322 69 219 43 28 80 return
          </CharString>
          <CharString index="90">
            rmoveto
            -25 21 -21 25 25 21 21 25 25 -21 21 -25 -25 -21 -21 -25 vhcurveto
            endchar
          </CharString>
          <CharString index="91">
            33 106 29 58 50 49 rrcurveto
            return
          </CharString>
          <CharString index="92">
            -8 15 -2 11 20 vvcurveto
            88 62 66 122 42 vhcurveto
            -38 callgsubr
            return
          </CharString>
          <CharString index="93">
            0 69 259 51 return
          </CharString>
          <CharString index="94">
            22 25 33 114 50 82 hvcurveto
            -48 21 rlineto
            -21 -18 -92 -192 -98 vvcurveto
            -45 20 -24 34 51 70 56 102 65 vhcurveto
            -7 -33 -7 -28 -27 vvcurveto
            return
          </CharString>
          <CharString index="95">
            rmoveto
            28 16 32 24 31 -24 17 -23 -34 -19 -27 -32 -30 20 -15 36 hvcurveto
            return
          </CharString>
          <CharString index="96">
            -60 callsubr
            endchar
          </CharString>
          <CharString index="97">
            vvcurveto
            -108 55 -74 80 12 14 1 1 13 vhcurveto
            return
          </CharString>
          <CharString index="98">
            -10 74 281 40 179 68 return
          </CharString>
          <CharString index="99">
            211 3 50 488 78 return
          </CharString>
          <CharString index="100">
            42 60 45 39 18 return
          </CharString>
          <CharString index="101">
            -20 hstemhm
            263 78 -9 84 hintmask 10111000
            -22 callgsubr
            return
          </CharString>
          <CharString index="102">
            36 18 -12 -24 return
          </CharString>
          <CharString index="103">
            35 34 27 42 38 vvcurveto
            36 -23 25 -34 vhcurveto
            return
          </CharString>
          <CharString index="104">
            rmoveto
            -1 callgsubr
            return
          </CharString>
          <CharString index="105">
            -141 -52 -116 -145 -47 hhcurveto
            -17 -25 18 26 40 64 145 24 33 hvcurveto
            -60 26 rlineto
            -92 -33 return
          </CharString>
          <CharString index="106">
            8 -32 -28 1 -28 hhcurveto
            12 99 37 124 34 61 rrcurveto
            12 -56 callgsubr
            return
          </CharString>
          <CharString index="107">
            100 107 85 171 90 -60 97 return
          </CharString>
          <CharString index="108">
            89 177 102 183 17 return
          </CharString>
          <CharString index="109">
            -120 -126 -67 -104 -82 hvcurveto
            -10 27 -4 33 35 vvcurveto
            134 38 95 49 95 vhcurveto
            return
          </CharString>
          <CharString index="110">
            384 5 82 -60 -21 638 -20 return
          </CharString>
          <CharString index="111">
            -6 74 -74 93 -73 -21 return
          </CharString>
          <CharString index="112">
            vvcurveto
            23 -17 20 -20 -26 callsubr
            vhcurveto
            -106 -94 -36 -45 -23 -35 51 -29 rcurveline
            return
          </CharString>
          <CharString index="113">
            rmoveto
            -13 -34 -5 -8 -15 hvcurveto
            return
          </CharString>
          <CharString index="114">
            90 180 69 vstem
            return
          </CharString>
          <CharString index="115">
            187 151 -156 -193 -11 callgsubr
            return
          </CharString>
          <CharString index="116">
            -64 28 -33 101 -36 vhcurveto
            return
          </CharString>
          <CharString index="117">
            283 638 rmoveto
            -143 -100 -65 -93 -104 152 -85 131 hvcurveto
            return
          </CharString>
          <CharString index="118">
            -109 85 -56 119 131 79 50 86 15 -3 17 -5 18 return
          </CharString>
          <CharString index="119">
            10 -6 8 -8 vhcurveto
            endchar
          </CharString>
          <CharString index="120">
            -28 callgsubr
            -37 -60 return
          </CharString>
          <CharString index="121">
            64 149 65 -65 72 10 -20 hstemhm
            return
          </CharString>
          <CharString index="122">
            -12 81 -79 -21 688 -20 return
          </CharString>
          <CharString index="123">
            83 180 84 267 79 return
          </CharString>
          <CharString index="124">
            24 callgsubr
            76 return
          </CharString>
          <CharString index="125">
            93 297 78 return
          </CharString>
          <CharString index="126">
            -20 -14 15 27 63 76 122 22 52 hvcurveto
            -59 26 rlineto
            return
          </CharString>
          <CharString index="127">
            78 159 69 return
          </CharString>
          <CharString index="128">
            -45 -6 rlineto
            1 -7 0 -5 -6 vvcurveto
            -69 -59 -14 -70 return
          </CharString>
          <CharString index="129">
            -13 83 -68 68 669 -20 hstemhm
            return
          </CharString>
          <CharString index="130">
            -133 -21 76 64 553 76 return
          </CharString>
          <CharString index="131">
            0 55 299 45 return
          </CharString>
          <CharString index="132">
            -116 -21 208 45 429 86 7 -20 hstemhm
            return
          </CharString>
          <CharString index="133">
            5 -33 rlineto
            62 125 34 100 45 -28 28 -47 return
          </CharString>
          <CharString index="134">
            -17 -17 0 1 -16 hvcurveto
            return
          </CharString>
          <CharString index="135">
            hhcurveto
            27 20 -17 -24 -67 -77 4 -29 -5 hvcurveto
            return
          </CharString>
          <CharString index="136">
            -11 callgsubr
            vhcurveto
            return
          </CharString>
          <CharString index="137">
            -20 17 callsubr
            return
          </CharString>
          <CharString index="138">
            -21 141 -20 hstem
            return
          </CharString>
          <CharString index="139">
            4 48 291 63 148 77 9 -20 return
          </CharString>
          <CharString index="140">
            206 12 75 202 46 226 54 return
          </CharString>
          <CharString index="141">
            -2 vvcurveto
            0 1 0 9 -39 vhcurveto
            26 8 return
          </CharString>
        <CharString name=".notdef">
          85 endchar
        </CharString>
        <CharString name="A">
          395 -48 callsubr
          hstemhm
          -95 105 543 76 hintmask 10111100
          746 298 rmoveto
          -1 callsubr
          -26 callsubr
          vhcurveto
          -106 -94 -108 -140 -23 -35 rrcurveto
          -296 -35 -201 -112 -120 vvcurveto
          -66 51 -40 62 138 129 124 193 143 vhcurveto
          2 20 30 0 29 hhcurveto
          23 22 0 -1 14 hvcurveto
          -2 -24 -11 -79 -49 vvcurveto
          hintmask 01111100
          -87 callgsubr
          hintmask 10111100
          -98 callsubr
          endchar
        </CharString>
        <CharString name="AE">
          782 -106 -21 51 49 -49 83 163 60 349 60 52 -20 hstemhm
          -85 105 541 110 50 49 -49 94 -94 187 123 98 -57 106 hintmask 1011111110001000
          1178 575 rmoveto
          39 -35 25 -53 -153 -216 -131 -119 -30 13 -23 34 -28 vhcurveto
          -43 -17 -37 -21 -30 -24 23 163 36 122 34 60 rrcurveto
          12 -56 callgsubr
          -26 callsubr
          vhcurveto
          -106 -94 -108 -140 -23 -35 rrcurveto
          -296 -35 -201 -112 -120 vvcurveto
          -66 51 -40 62 138 129 124 193 143 vhcurveto
          2 20 30 0 29 hhcurveto
          23 22 0 -1 14 hvcurveto
          -7 -35 -8 -46 -45 vvcurveto
          -57 12 -56 42 -31 -88 callgsubr
          -52 callgsubr
          hintmask 1101111100110000
          -97 callsubr
          -37 callsubr
          hintmask 1011111101001000
          -91 callgsubr
          -65 callgsubr
          -932 -486 -3 callsubr
          722 81 rmoveto
          hintmask 1101111110010000
          -90 callgsubr
          -380 137 -78 callsubr
          endchar
        </CharString>
        <CharString name="AEacute">
          782 -106 -21 41 59 -59 93 163 60 349 60 52 -20 121 -20 hstemhm
          -85 105 541 110 50 49 -49 94 -94 187 123 98 -57 106 hintmask 1101111111001000
          1178 575 rmoveto
          39 -35 25 -53 -153 -216 -131 -119 -30 13 -23 34 -28 vhcurveto
          -43 -17 -37 -21 -30 -24 23 163 36 122 34 60 rrcurveto
          12 -56 callgsubr
          -26 callsubr
          vhcurveto
          -106 -94 -108 -140 -23 -35 rrcurveto
          -296 -35 -201 -112 -120 vvcurveto
          -66 51 -40 62 138 129 124 193 143 vhcurveto
          2 20 30 0 29 hhcurveto
          23 22 0 -1 14 hvcurveto
          -7 -35 -8 -46 -45 vvcurveto
          hintmask 1011111110100100
          -57 12 -56 42 -31 -88 callgsubr
          -52 callgsubr
          -97 callsubr
          hintmask 1101111110011000
          11 -6 4 -19 5 vhcurveto
          -91 callgsubr
          -65 callgsubr
          -932 -486 -3 callsubr
          722 81 rmoveto
          -90 callgsubr
          -380 137 rmoveto
          hintmask 1101111111000100
          -81 callgsubr
          431 445 -80 callgsubr
        </CharString>
        <CharString name="Aacute">
          415 -48 callsubr
          146 30 callsubr
          hintmask 10111110
          -89 callsubr
          -29 0 -35 6 -26 vhcurveto
          70 hlineto
          4 122 6 53 8 64 rrcurveto
          hintmask 01111110
          1 18 12 0 12 hhcurveto
          15 14 0 -2 23 hvcurveto
          -505 -149 rmoveto
          -80 callsubr
          hintmask 10111110
          -24 -40 -50 -61 -51 -49 rrcurveto
          342 218 -78 callsubr
          206 470 -80 callgsubr
        </CharString>
        <CharString name="Abreve">
          415 -48 callsubr
          44 47 51 30 callsubr
          hintmask 10111111
          -89 callsubr
          hintmask 01111111
          -87 callgsubr
          hintmask 10111111
          -98 callsubr
          163 503 -100 callgsubr
        </CharString>
        <CharString name="Acircumflex">
          415 -48 callsubr
          193 30 callsubr
          hintmask 10111110
          -89 callsubr
          hintmask 01111110
          -87 callgsubr
          hintmask 10111110
          -98 callsubr
          -38 443 -104 callgsubr
        </CharString>
        <CharString name="Adieresis">
          415 -48 callsubr
          80 79 17 callsubr
          -56 79 48 79 hintmask 1011111010000000
          -89 callsubr
          hintmask 0111111010000000
          -87 callgsubr
          hintmask 1011110110000000
          -98 callsubr
          -5 483 -101 callsubr
        </CharString>
        <CharString name="Agrave">
          415 -48 callsubr
          151 30 callsubr
          hintmask 10111110
          -89 callsubr
          hintmask 01111110
          -87 callgsubr
          hintmask 10111110
          -98 callsubr
          189 419 -64 callsubr
        </CharString>
        <CharString name="Amacron">
          385 -48 callsubr
          69 39 hstemhm
          -100 105 543 76 hintmask 10111110
          741 298 rmoveto
          -1 callsubr
          -26 callsubr
          vhcurveto
          -106 -94 -108 -140 -23 -35 rrcurveto
          -296 -35 -201 -112 -120 vvcurveto
          -66 51 -40 62 138 129 124 193 143 vhcurveto
          2 20 30 0 29 hhcurveto
          23 22 0 -1 14 hvcurveto
          -2 -24 -11 -79 -49 vvcurveto
          hintmask 01111110
          -87 callgsubr
          hintmask 10111110
          -98 callsubr
          159 472 -68 callgsubr
        </CharString>
        <CharString name="Aogonek">
          415 -188 77 35 -42 callgsubr
          hstemhm
          -85 105 hintmask 10111100
          683 -70 -49 callsubr
          14 18 40 24 33 hvcurveto
          39 hlineto
          4 122 6 53 8 64 rrcurveto
          1 18 12 0 12 hhcurveto
          15 14 0 -2 23 hvcurveto
          5 60 rlineto
          -1 callsubr
          -26 callsubr
          vhcurveto
          -106 -94 -108 -140 -23 -35 rrcurveto
          -296 -35 -201 -112 -120 vvcurveto
          hintmask 11011100
          -66 51 -40 62 138 129 124 193 143 vhcurveto
          2 20 30 0 29 hhcurveto
          23 22 0 -1 14 hvcurveto
          -2 -24 -11 -79 -49 vvcurveto
          -22 0 -24 2 -22 vhcurveto
          -40 -36 -53 -71 -57 -60 callsubr
          -457 175 rmoveto
          -98 callsubr
          endchar
        </CharString>
        <CharString name="Aring">
          415 -48 callsubr
          49 125 -105 86 24 callgsubr
          68 38 66 0 39 hintmask 1011011110000000
          756 298 rmoveto
          -1 callsubr
          vhcurveto
          hintmask 1011101101000000
          -26 callsubr
          hvcurveto
          -106 -94 -108 -140 -23 -35 rrcurveto
          -296 -35 -201 -112 -120 vvcurveto
          -66 51 -40 62 138 129 124 193 143 vhcurveto
          2 20 30 0 29 hhcurveto
          23 22 0 -1 14 hvcurveto
          -2 -24 -11 -79 -49 vvcurveto
          -87 callgsubr
          -80 callsubr
          hintmask 0111011110000000
          -24 -40 -50 -61 -51 -49 rrcurveto
          342 218 -78 callsubr
          186 490 rmoveto
          29 -22 19 -34 -48 -39 -34 -41 vhcurveto
          hintmask 1011011110000000
          -24 callgsubr
          -32 callsubr
        </CharString>
        <CharString name="Atilde">
          415 -48 callsubr
          54 48 21 49 17 callsubr
          hintmask 10111111
          -89 callsubr
          hintmask 01111111
          -87 callgsubr
          hintmask 10111111
          -98 callsubr
          205 509 -96 callgsubr
        </CharString>
        <CharString name="B">
          272 -183 65 677 79 hstemhm
          30 32 callgsubr
          637 -75 callgsubr
          -15 -76 -38 -91 -40 -65 rrcurveto
          232 -214 rmoveto
          -38 -55 -66 -24 -50 hhcurveto
          hintmask 11001100
          -31 callsubr
        </CharString>
        <CharString name="C">
          213 -9 callsubr
          hstem
          41 84 364 89 vstem
          500 -104 callsubr
          endchar
        </CharString>
        <CharString name="CR">
          85 endchar
        </CharString>
        <CharString name="Cacute">
          233 -9 callsubr
          132 -20 hstem
          51 84 364 89 vstem
          510 -104 callsubr
          244 339 -80 callgsubr
        </CharString>
        <CharString name="Ccaron">
          233 -9 callsubr
          171 -20 hstem
          51 84 364 89 vstem
          510 -104 callsubr
          155 280 -88 callsubr
        </CharString>
        <CharString name="Ccedilla">
          233 -197 27 88 40 32 74 281 40 179 68 hstem
          51 84 127 70 167 89 vstem
          272 -42 6 callsubr
          21 45 rlineto
          179 97 123 112 13 hvcurveto
          -47 hlineto
          -93 -25 -50 -68 -106 hhcurveto
          -106 -51 68 96 44 14 49 24 39 hvcurveto
          -9 35 40 -6 35 hhcurveto
          163 142 110 101 47 -29 29 -49 -104 -179 -106 -110 -79 hvcurveto
          -52 26 -3 18 -26 24 -27 -30 rcurveline
          15 -22 32 -32 34 -20 rrcurveto
          -50 -78 -20 -60 -68 vvcurveto
          -108 75 -57 69 -15 vhcurveto
          -14 -27 -24 -51 -12 -70 callgsubr
          8 427 rmoveto
          -32 -24 3 11 -28 hvcurveto
          91 59 115 74 81 hhcurveto
          28 20 -17 -25 -73 -103 -64 -116 hvcurveto
          endchar
        </CharString>
        <CharString name="Ccircumflex">
          203 -9 callsubr
          157 -20 hstem
          36 84 364 89 vstem
          495 -104 callsubr
          10 290 -104 callgsubr
        </CharString>
        <CharString name="Cdotaccent">
          203 -9 callsubr
          64 79 hstem
          36 84 261 79 24 89 vstem
          495 -104 callsubr
          116 350 -103 callgsubr
          endchar
        </CharString>
        <CharString name="D">
          289 -2 67 -45 -21 598 41 hstemhm
          -10 97 480 87 hintmask 10111000
          233 -72 callgsubr
          hvcurveto
          hintmask 01111000
          29 callsubr
          hintmask 10111000
          52 114 20 75 9 29 -75 callsubr
          vhcurveto
          endchar
        </CharString>
        <CharString name="Dcaron">
          309 -2 67 -45 -21 598 41 157 -20 hstemhm
          0 97 480 87 hintmask 10111100
          243 -72 callgsubr
          -112 -56 -71 -87 -38 -105 6 2 -25 hvcurveto
          52 114 20 75 9 29 -75 callsubr
          vhcurveto
          122 60 rmoveto
          0 108 86 21 22 vhcurveto
          hintmask 01111100
          -30 24 -43 -26 -50 -31 -10 -7 rlinecurve
          hintmask 10111100
          -44 28 -55 42 0 vvcurveto
          -10 callgsubr
        </CharString>
        <CharString name="Dcroat">
          -77 callgsubr
        </CharString>
        <CharString name="E">
          274 -66 callgsubr
          hstemhm
          30 -49 callgsubr
          hintmask 1110110101000000
          639 574 rmoveto
          39 -35 25 -53 -153 -216 -131 -119 -30 13 -23 34 -28 vhcurveto
          -86 callgsubr
          -52 callgsubr
          hintmask 1111010110000000
          -97 callsubr
          -37 callsubr
          hintmask 1110111001000000
          -91 callgsubr
          hintmask 1111011001000000
          -69 callgsubr
          hintmask 1111011010000000
          -90 callgsubr
          endchar
        </CharString>
        <CharString name="Eacute">
          294 -66 callgsubr
          124 -20 hstemhm
          40 -49 callgsubr
          hintmask 1111011101000000
          649 574 rmoveto
          39 -35 25 -53 -153 -216 -131 -119 -30 13 -23 34 -28 vhcurveto
          -86 callgsubr
          hintmask 1111011100100000
          -52 callgsubr
          -90 callsubr
          hintmask 1110111101000000
          -38 callgsubr
          25 callgsubr
          hintmask 1111011011000000
          76 106 81 97 36 18 -12 -24 -36 callgsubr
          156 553 -80 callgsubr
        </CharString>
        <CharString name="Ebreve">
          264 -66 callgsubr
          47 47 51 -20 hstemhm
          25 -49 callgsubr
          hintmask 1110111101010000
          634 574 rmoveto
          39 -35 25 -53 -153 -216 -131 -119 -30 13 -23 34 -28 vhcurveto
          -86 callgsubr
          -52 callgsubr
          hintmask 1111011101100000
          -97 callsubr
          -37 callsubr
          hintmask 1110111110010000
          -91 callgsubr
          hintmask 1111011110010000
          -69 callgsubr
          hintmask 1111011110100000
          -90 callgsubr
          154 611 -100 callgsubr
        </CharString>
        <CharString name="Ecaron">
          294 -66 callgsubr
          180 -20 hstemhm
          40 -49 callgsubr
          hintmask 1111011101000000
          -39 callsubr
          -45 callsubr
          hvcurveto
          hintmask 1111011100100000
          -22 callsubr
          -51 callsubr
          vhcurveto
          -15 callsubr
          -37 callsubr
          hintmask 1110111101000000
          -38 callsubr
          -5 callgsubr
          -5 callsubr
          vhcurveto
          hintmask 1111011011000000
          -36 callgsubr
          55 511 -88 callsubr
        </CharString>
        <CharString name="Ecircumflex">
          294 -66 callgsubr
          158 -20 hstemhm
          40 -49 callgsubr
          hintmask 1110111010100000
          -39 callsubr
          hintmask 1111011011000000
          -97 callsubr
          -37 callsubr
          hintmask 1110111100100000
          -91 callgsubr
          hintmask 1111011100100000
          -69 callgsubr
          hintmask 1111011101000000
          -90 callgsubr
          -73 513 -104 callgsubr
        </CharString>
        <CharString name="Edieresis">
          294 -66 callgsubr
          44 79 hstemhm
          40 102 50 94 -94 187 30 79 14 98 -57 72 -72 106 hintmask 1110111011001000
          -39 callsubr
          hintmask 1111011011100000
          -97 callsubr
          -37 callsubr
          hintmask 1110111101001000
          -91 callgsubr
          hintmask 1111011101001000
          -69 callgsubr
          hintmask 1111011101100000
          -90 callgsubr
          -30 552 -94 callgsubr
          vhcurveto
          hintmask 1111011101010000
          -103 callsubr
          hvcurveto
          endchar
        </CharString>
        <CharString name="Edotaccent">
          264 -66 callgsubr
          60 79 hstemhm
          25 102 50 94 -94 187 75 79 -31 98 -57 106 hintmask 1110111011010000
          634 574 rmoveto
          39 -35 25 -53 -153 -216 -131 -119 -30 13 -23 34 -28 vhcurveto
          -86 callgsubr
          -52 callgsubr
          hintmask 1111011010100000
          -97 callsubr
          -37 callsubr
          hintmask 1110111101010000
          -91 callgsubr
          hintmask 1111011101010000
          -69 callgsubr
          hintmask 1111011100100000
          -90 callgsubr
          hintmask 1111011101010000
          15 568 -103 callgsubr
          endchar
        </CharString>
        <CharString name="Egrave">
          294 -66 callgsubr
          141 -20 hstemhm
          40 -49 callgsubr
          hintmask 1110111010100000
          -39 callsubr
          hintmask 1111011011000000
          -97 callsubr
          -37 callsubr
          hintmask 1110111100100000
          -91 callgsubr
          hintmask 1111011100100000
          -69 callgsubr
          hintmask 1111011101000000
          -90 callgsubr
          129 514 -64 callsubr
        </CharString>
        <CharString name="Emacron">
          264 -66 callgsubr
          78 39 hstemhm
          25 -49 callgsubr
          hintmask 1110111010100000
          634 574 rmoveto
          39 -35 25 -53 -153 -216 -131 -119 -30 13 -23 34 -28 vhcurveto
          -86 callgsubr
          -52 callgsubr
          hintmask 1111011011000000
          -97 callsubr
          -37 callsubr
          hintmask 1110111100100000
          -91 callgsubr
          hintmask 1111011100100000
          -69 callgsubr
          hintmask 1111011101000000
          -90 callgsubr
          139 586 -68 callgsubr
        </CharString>
        <CharString name="Eogonek">
          294 -220 77 56 59 197 60 181 228 -60 60 hstemhm
          40 -49 callgsubr
          hintmask 1111010110000000
          220 -102 -49 callsubr
          6 2 12 7 13 hvcurveto
          17 31 rlineto
          -52 callgsubr
          -97 callsubr
          -37 callsubr
          hintmask 1110111001000000
          -91 callgsubr
          hintmask 1111011001000000
          -70 callsubr
          39 -35 25 -53 -153 -216 -131 -119 -30 13 -23 34 -28 hvcurveto
          -125 -50 -74 -82 -90 vvcurveto
          -42 14 -36 30 -34 vhcurveto
          -36 -39 -39 -59 -49 -60 callsubr
          199 287 rmoveto
          hintmask 1111011010000000
          -90 callgsubr
          endchar
        </CharString>
        <CharString name="Eth">
          -77 callgsubr
        </CharString>
        <CharString name="Euro">
          205 0 79 139 38 70 35 191 65 hstemhm
          81 80 282 52 3 86 vstemhm
          509 617 rmoveto
          -94 -179 -93 -163 -89 hvcurveto
          -45 -43 -2 -7 -43 hvcurveto
          -4 -31 115 5 -12 -23 -11 -23 -8 -25 rlinecurve
          -6 -54 0 -2 -33 hvcurveto
          -4 -34 rlineto
          1 34 42 0 12 hhcurveto
          -4 -20 -2 -18 -17 vvcurveto
          11 callsubr
          vhcurveto
          21 callsubr
          -102 -51 47 92 vhcurveto
          82 46 -2 69 hhcurveto
          5 35 -42 4 -86 0 -71 1 rlinecurve
          5 26 8 23 10 21 rrcurveto
          115 33 -1 -7 57 hvcurveto
          5 36 rlineto
          6 -44 -99 1 -48 hhcurveto
          70 40 94 121 111 28 callsubr
          hintmask 11111110
          26 callsubr
          hvcurveto
          endchar
        </CharString>
        <CharString name="F">
          368 -120 72 298 49 37 14 callsubr
          30 97 55 56 hintmask 11100111
          815 631 rmoveto
          hintmask 11110011
          -24 -27 -17 -33 hhcurveto
          hintmask 11101011
          -47 callsubr
          40 140 24 108 -5 -1 29 hvcurveto
          -52 -33 -52 -89 -39 -122 rrcurveto
          -248 -7 -178 -138 -132 vvcurveto
          -85 58 -57 87 141 136 145 228 75 vhcurveto
          37 27 -3 27 hhcurveto
          14 16 0 1 15 hvcurveto
          2 47 rlineto
          3 -24 -32 0 -67 hhcurveto
          40 138 44 80 35 24 rrcurveto
          49 1 123 9 59 vvcurveto
          hintmask 11100111
          10 -8 9 -10 vhcurveto
          -461 -569 rmoveto
          -69 -43 -58 -41 -51 hhcurveto
          -43 -32 30 41 105 147 109 166 13 hvcurveto
          -19 -62 -31 -70 -36 -56 rrcurveto
          endchar
        </CharString>
        <CharString name="G">
          284 -18 callgsubr
          hstem
          -90 105 59 90 vstem
          525 -8 rmoveto
          -35 14 -42 7 -36 4 6 18 8 22 34 92 rrcurveto
          45 39 32 54 36 vvcurveto
          18 -11 11 -18 -37 -37 -64 -89 -34 vhcurveto
          -19 -32 -33 -9 -36 hhcurveto
          -84 -51 53 85 156 142 160 137 59 26 -21 -52 67 hvcurveto
          54 65 rlineto
          34 -31 -71 32 -79 hhcurveto
          -198 -196 -215 -186 -103 73 -77 96 49 46 15 28 42 hvcurveto
          -1 -4 -17 -54 -11 -23 rrcurveto
          1 -12 -12 0 -11 hhcurveto
          -229 -177 -104 -112 -65 62 -50 81 152 127 111 176 65 hvcurveto
          11 -1 43 -7 59 -10 rrcurveto
          -408 -201 rmoveto
          -53 -34 25 40 87 142 69 180 hvcurveto
          -127 -45 -100 -94 -90 hhcurveto
          endchar
        </CharString>
        <CharString name="Gbreve">
          304 -18 callgsubr
          54 47 51 -20 hstem
          -80 105 59 90 vstem
          535 -8 rmoveto
          -35 14 -42 7 -36 4 6 18 8 22 34 92 rrcurveto
          45 39 32 54 36 vvcurveto
          18 -11 11 -18 -37 -37 -64 -89 -34 vhcurveto
          -19 -32 -33 -9 -36 hhcurveto
          -84 -51 53 85 156 142 160 137 59 26 -21 -52 67 hvcurveto
          54 65 rlineto
          34 -31 -71 32 -79 hhcurveto
          -198 -196 -215 -186 -103 73 -77 96 49 46 15 28 42 hvcurveto
          -1 -4 -17 -54 -11 -23 rrcurveto
          1 -12 -12 0 -11 hhcurveto
          -229 -177 -104 -112 -65 62 -50 81 152 127 111 176 65 hvcurveto
          11 -1 43 -7 59 -10 rrcurveto
          -408 -201 rmoveto
          -53 -34 25 40 87 142 69 180 hvcurveto
          -127 -45 -100 -94 -90 hhcurveto
          434 1030 -100 callgsubr
        </CharString>
        <CharString name="Gcircumflex">
          274 -18 callgsubr
          186 -20 hstem
          -95 105 59 90 vstem
          520 -8 rmoveto
          -35 14 -42 7 -36 4 6 18 8 22 34 92 rrcurveto
          45 39 32 54 36 vvcurveto
          18 -11 11 -18 -37 -37 -64 -89 -34 vhcurveto
          -19 -32 -33 -9 -36 hhcurveto
          -84 -51 53 85 156 142 160 137 59 26 -21 -52 67 hvcurveto
          54 65 rlineto
          34 -31 -71 32 -79 hhcurveto
          -198 -196 -215 -186 -103 73 -77 96 49 46 15 28 42 hvcurveto
          -1 -4 -17 -54 -11 -23 rrcurveto
          1 -12 -12 0 -11 hhcurveto
          -229 -177 -104 -112 -65 62 -50 81 152 127 111 176 65 hvcurveto
          11 -1 43 -7 59 -10 rrcurveto
          -408 -201 rmoveto
          -53 -34 25 40 87 142 69 180 hvcurveto
          -127 -45 -100 -94 -90 hhcurveto
          178 953 -104 callgsubr
        </CharString>
        <CharString name="Gdotaccent">
          274 -18 callgsubr
          59 79 hstem
          -95 105 59 90 225 79 vstem
          520 -8 rmoveto
          -35 14 -42 7 -36 4 6 18 8 22 34 92 rrcurveto
          45 39 32 54 36 vvcurveto
          18 -11 11 -18 -37 -37 -64 -89 -34 vhcurveto
          -19 -32 -33 -9 -36 hhcurveto
          -84 -51 53 85 156 142 160 137 59 26 -21 -52 67 hvcurveto
          54 65 rlineto
          34 -31 -71 32 -79 hhcurveto
          -198 -196 -215 -186 -103 73 -77 96 49 46 15 28 42 hvcurveto
          -1 -4 -17 -54 -11 -23 rrcurveto
          1 -12 -12 0 -11 hhcurveto
          -229 -177 -104 -112 -65 62 -50 81 152 127 111 176 65 hvcurveto
          11 -1 43 -7 59 -10 rrcurveto
          -408 -201 rmoveto
          -53 -34 25 40 87 142 69 180 hvcurveto
          -127 -45 -100 -94 -90 hhcurveto
          287 979 -103 callgsubr
          endchar
        </CharString>
        <CharString name="H">
          430 22 callgsubr
          11 -20 hstemhm
          -90 103 105 84 hintmask 11011100
          750 -42 callsubr
          hintmask 11101100
          -85 callgsubr
          hintmask 11011100
          -545 -579 -50 callsubr
          endchar
        </CharString>
        <CharString name="Hbar">
          420 -147 69 99 -21 210 226 113 77 11 -20 hstemhm
          -95 103 105 84 hintmask 11101110
          785 441 rmoveto
          -13 -46 -1 -1 -15 hvcurveto
          27 67 27 60 25 49 -45 22 rcurveline
          -47 -74 -27 -53 -29 -74 -47 -2 -54 -4 -62 -8 35 56 41 44 48 30 rrcurveto
          21 13 8 11 15 vvcurveto
          hintmask 11110110
          26 -22 9 -68 -200 -229 -95 -129 -46 28 -59 62 -40 vhcurveto
          34 32 rlineto
          -36 48 -4 14 29 vvcurveto
          98 142 68 191 3 vhcurveto
          -50 -34 -43 -46 -37 -58 -37 -6 -46 -14 -41 -8 18 -35 rcurveline
          78 12 -19 -36 -16 -40 -15 -43 rlinecurve
          -258 -62 -159 -109 -129 vvcurveto
          -50 39 -38 53 61 75 28 46 64 vhcurveto
          129 93 57 176 0 vvcurveto
          11 96 32 3 54 hhcurveto
          -31 -106 -2 -39 -30 vvcurveto
          -16 2 -9 3 -10 vhcurveto
          56 hlineto
          6 64 -3 61 32 85 rrcurveto
          32 35 2 5 15 hvcurveto
          4 57 rlineto
          3 -13 -31 1 -19 hhcurveto
          13 37 13 36 14 36 94 7 rcurveline
          -540 -358 -50 callsubr
          340 242 rmoveto
          -112 -11 -29 -4 -42 -7 14 40 15 36 17 34 173 15 rcurveline
          -11 -30 -12 -34 -13 -39 rrcurveto
          endchar
        </CharString>
        <CharString name="Hcircumflex">
          420 22 callgsubr
          191 -20 hstem
          -85 103 105 84 vstem
          755 -42 callsubr
          -85 callgsubr
          -545 -579 -50 callsubr
          203 667 -104 callgsubr
        </CharString>
        <CharString name="I">
          191 3 50 488 78 hstem
          30 102 31 64 vstem
          589 -107 callgsubr
          endchar
        </CharString>
        <CharString name="Iacute">
          -8 callsubr
          149 -20 hstem
          40 102 31 64 vstem
          599 -107 callgsubr
          -32 112 -80 callgsubr
        </CharString>
        <CharString name="Ibreve">
          181 3 50 488 78 72 47 51 -20 hstem
          25 102 31 64 vstem
          584 -107 callgsubr
          -55 170 -100 callgsubr
        </CharString>
        <CharString name="Icircumflex">
          -8 callsubr
          183 -20 hstem
          40 102 31 64 vstem
          599 -107 callgsubr
          -293 72 -104 callgsubr
        </CharString>
        <CharString name="Idieresis">
          -8 callsubr
          65 79 hstem
          40 102 31 64 117 79 48 79 vstem
          599 -107 callgsubr
          -245 107 -101 callsubr
        </CharString>
        <CharString name="Idotaccent">
          -8 callsubr
          75 79 hstem
          40 102 31 64 180 79 vstem
          599 -107 callgsubr
          -182 117 -103 callgsubr
          endchar
        </CharString>
        <CharString name="Igrave">
          -8 callsubr
          144 -20 hstem
          40 102 31 64 vstem
          599 -107 callgsubr
          -46 51 -64 callsubr
        </CharString>
        <CharString name="Imacron">
          181 3 50 488 78 56 39 hstem
          25 102 31 64 vstem
          584 -107 callgsubr
          -31 98 -68 callgsubr
        </CharString>
        <CharString name="Iogonek">
          181 -191 77 -77 244 488 78 hstemhm
          25 102 -86 86 31 64 hintmask 10110100
          252 -73 -49 callsubr
          15 20 45 27 34 hvcurveto
          96 10 93 71 51 116 6 14 63 213 41 63 -35 callgsubr
          8 -7 7 -10 3 vhcurveto
          3 -6 -9 0 -22 hhcurveto
          -173 -216 -34 -114 -35 16 -38 51 -36 hvcurveto
          22 27 rlineto
          -24 24 -1 11 18 vvcurveto
          66 152 33 97 6 11 0 -1 14 vhcurveto
          -65 -51 -34 -63 -48 -149 rrcurveto
          hintmask 01110100
          -178 -57 -43 -46 -66 hhcurveto
          -36 -26 28 40 65 86 58 95 19 hvcurveto
          -4 33 rlineto
          -118 -161 -92 -100 -53 37 -37 58 -9 hvcurveto
          hintmask 10101100
          -38 -39 -41 -60 -51 -11 callsubr
        </CharString>
        <CharString name="Itilde">
          181 3 50 488 78 48 48 21 49 hstem
          25 102 31 64 vstem
          584 -107 callgsubr
          -51 142 -96 callgsubr
        </CharString>
        <CharString name="J">
          307 -316 68 794 76 hstem
          -90 102 87 70 vstem
          680 -93 callsubr
          endchar
        </CharString>
        <CharString name="Jcircumflex">
          297 -316 68 794 76 187 -20 hstem
          -95 102 87 70 vstem
          675 -93 callsubr
          88 826 -104 callgsubr
        </CharString>
        <CharString name="K">
          402 23 callsubr
          hstem
          -10 90 38 79 vstem
          824 600 rmoveto
          -95 -151 -144 -149 -161 -59 24 113 37 121 94 71 rrcurveto
          28 21 7 9 13 vvcurveto
          20 -24 6 -36 -193 -243 -106 -131 -60 45 -63 75 -36 vhcurveto
          20 31 rlineto
          -55 36 -6 47 24 vvcurveto
          110 190 69 131 3 vhcurveto
          -78 -55 -34 -34 -55 -205 rrcurveto
          -201 -54 -67 -58 -85 hhcurveto
          -38 -27 24 36 41 34 39 56 40 hvcurveto
          -23 36 rlineto
          -97 -45 -60 -72 -69 vvcurveto
          -55 47 -39 65 122 133 106 186 59 vhcurveto
          -246 68 86 -122 88 hhcurveto
          6 7 0 1 8 hvcurveto
          46 vlineto
          -96 14 -48 149 -32 167 200 110 103 103 81 133 rrcurveto
          endchar
        </CharString>
        <CharString name="L">
          186 20 67 -54 -21 277 46 226 54 hstemhm
          473 98 hintmask 10111000
          468 116 -96 callsubr
          hhcurveto
          hintmask 01111000
          -72 callsubr
          endchar
        </CharString>
        <CharString name="Lacute">
          33 callsubr
          145 -20 hstem
          483 98 vstem
          478 116 -96 callsubr
          -72 callsubr
          95 159 -80 callgsubr
        </CharString>
        <CharString name="Lcaron">
          33 callsubr
          173 -20 hstem
          483 98 vstem
          478 116 -96 callsubr
          -72 callsubr
          14 89 -88 callsubr
        </CharString>
        <CharString name="Ldot">
          176 20 67 -54 -21 182 92 3 46 226 54 hstemhm
          403 92 -27 98 hintmask 10111010
          463 116 -96 callsubr
          hhcurveto
          hintmask 01111010
          -72 callsubr
          hintmask 10111100
          -6 -321 -17 callsubr
        </CharString>
        <CharString name="Lslash">
          206 20 67 -67 219 -206 -21 277 46 226 54 hstemhm
          483 98 hintmask 10011100
          478 116 rmoveto
          -14 -20 -29 -15 -36 -11 -186 6 -11 hhcurveto
          -26 -18 0 -3 -25 hvcurveto
          22 20 20 30 20 41 163 16 rcurveline
          47 vlineto
          hintmask 01011100
          -37 -1 -51 -1 -51 -3 17 50 rcurveline
          188 12 174 116 112 vvcurveto
          52 -41 34 -61 -122 -130 -85 -199 -81 vhcurveto
          -26 -36 0 28 -43 hvcurveto
          -21 -37 rlineto
          -19 25 47 -18 39 hhcurveto
          -18 -53 -43 -4 -39 -4 -26 -5 rlinecurve
          12 -54 75 7 -50 -101 -2 -13 -1 -8 rlinecurve
          -22 12 -10 25 -1 vhcurveto
          1 -1 99 2 24 hhcurveto
          hintmask 00111100
          -72 callsubr
          endchar
        </CharString>
        <CharString name="M">
          412 -121 -21 780 -20 hstem
          344 78 209 78 vstem
          817 -79 callsubr
        </CharString>
        <CharString name="N">
          329 15 callsubr
          hstemhm
          389 77 hintmask 10110000
          676 611 -16 callgsubr
          -84 callgsubr
          rrcurveto
          hintmask 01110000
          22 -59 9 callgsubr
          rlinecurve
          -65 callsubr
          hintmask 10110000
          -40 callgsubr
          endchar
        </CharString>
        <CharString name="NULL">
          -385 endchar
        </CharString>
        <CharString name="Nacute">
          349 15 callsubr
          136 -20 hstemhm
          399 77 hintmask 10111000
          686 611 -16 callgsubr
          -84 callgsubr
          22 -59 rcurveline
          hintmask 01111000
          9 callgsubr
          -65 callsubr
          -40 callgsubr
          -48 129 20 callgsubr
        </CharString>
        <CharString name="Ncaron">
          349 15 callsubr
          177 -20 hstemhm
          399 77 hintmask 10111000
          686 611 -16 callgsubr
          -84 callgsubr
          22 -59 rcurveline
          9 callgsubr
          83 102 54 113 64 145 rrcurveto
          hintmask 01111000
          34 15 41 109 20 hhcurveto
          5 4 -5 -7 hvcurveto
          -2 -66 -33 -283 -111 vvcurveto
          -40 callgsubr
          -134 72 rmoveto
          0 108 86 21 22 vhcurveto
          hintmask 10111000
          -17 callgsubr
        </CharString>
        <CharString name="Ntilde">
          349 15 callsubr
          53 48 21 49 hstemhm
          399 77 hintmask 10111100
          686 611 -16 callgsubr
          -84 callgsubr
          rrcurveto
          hintmask 01111100
          22 -59 9 callgsubr
          rlinecurve
          -65 callsubr
          hintmask 10111100
          -40 callgsubr
          -65 177 -96 callgsubr
        </CharString>
        <CharString name="O">
          299 -34 callsubr
          hstemhm
          30 -28 callsubr
          hintmask 11101100
          704 -105 callgsubr
          -48 callgsubr
          hintmask 11110100
          -89 callgsubr
          endchar
        </CharString>
        <CharString name="OE">
          692 -22 -21 49 51 -51 86 -73 -21 256 60 32 47 102 228 -164 85 19 60 hstemhm
          7 -28 callsubr
          -62 102 50 94 216 98 -57 106 hintmask 1010110111010101
          1090 659 rmoveto
          39 -35 25 -53 -153 -216 -134 -116 -1 -44 -23 -54 -18 vhcurveto
          7 24 1 27 22 vvcurveto
          80 -47 60 -69 -45 -32 -6 -15 -23 vhcurveto
          -161 -82 -159 -243 -151 vvcurveto
          -84 50 -57 73 135 182 196 171 68 vhcurveto
          40 15 53 20 39 18 7 -11 11 -11 15 -12 rrcurveto
          hintmask 1001110111001110
          -86 callgsubr
          -52 callgsubr
          -97 callsubr
          25 callgsubr
          -5 callgsubr
          vhcurveto
          hintmask 1010111001010101
          -5 callsubr
          -40 -56 -35 -85 -13 hvcurveto
          -17 -3 -19 -2 -14 -4 rrcurveto
          -34 vlineto
          -65 callgsubr
          -793 -510 rmoveto
          -37 -37 -43 -20 -36 hhcurveto
          -89 callgsubr
          583 105 rmoveto
          hintmask 1100110110110110
          -90 callgsubr
          -596 273 rmoveto
          21 30 29 11 26 hhcurveto
          61 24 -40 -59 -13 callgsubr
          hvcurveto
          -73 callsubr
          endchar
        </CharString>
        <CharString name="Oacute">
          319 -34 callsubr
          125 -55 callgsubr
          hvcurveto
          hintmask 11110110
          -13 callgsubr
          vhcurveto
          -73 callsubr
          -21 callgsubr
          197 580 -80 callgsubr
        </CharString>
        <CharString name="Obreve">
          289 -34 callsubr
          63 47 51 -20 hstemhm
          25 -28 callsubr
          hintmask 11111011
          699 -105 callgsubr
          -48 callgsubr
          hintmask 11111101
          -89 callgsubr
          211 653 -100 callgsubr
        </CharString>
        <CharString name="Ocircumflex">
          319 -34 callsubr
          164 -20 hstemhm
          40 -28 callsubr
          hintmask 11110110
          714 -105 callgsubr
          -48 callgsubr
          hintmask 11111010
          -89 callgsubr
          -39 545 -104 callgsubr
        </CharString>
        <CharString name="Odieresis">
          319 -34 callsubr
          35 79 hstemhm
          40 89 -89 244 44 79 48 79 -47 89 hintmask 1111011010000000
          714 -105 callgsubr
          -48 callgsubr
          hintmask 1111101100000000
          -89 callgsubr
          -2 569 -101 callsubr
        </CharString>
        <CharString name="Ograve">
          319 -34 callsubr
          127 -20 hstemhm
          40 -28 callsubr
          hintmask 11110110
          714 -105 callgsubr
          -48 callgsubr
          hintmask 11111010
          -89 callgsubr
          156 526 -64 callsubr
        </CharString>
        <CharString name="Ohungarumlaut">
          319 -34 callsubr
          151 -20 hstemhm
          40 89 -89 244 203 89 hintmask 11111010
          714 -105 callgsubr
          hintmask 11110110
          -21 callgsubr
          142 621 -23 callgsubr
        </CharString>
        <CharString name="Omacron">
          289 -34 callsubr
          73 39 hstemhm
          25 -28 callsubr
          hintmask 11110110
          699 -105 callgsubr
          -48 callgsubr
          hintmask 11111010
          -89 callgsubr
          186 607 -68 callgsubr
        </CharString>
        <CharString name="Oslash">
          154 -71 -21 101 99 434 86 73 -20 hstem
          33 73 362 72 vstem
          227 -92 rmoveto
          5 45 6 42 7 40 rrcurveto
          147 77 148 227 166 vvcurveto
          55 -22 68 -81 -14 -15 -2 -2 -14 vhcurveto
          21 68 -39 9 -29 -91 rlineto
          -161 -60 -153 -205 -193 vvcurveto
          -89 47 -54 69 17 19 3 6 18 vhcurveto
          -5 -32 -4 -35 -5 -36 rrcurveto
          -6 193 rmoveto
          -41 -36 34 60 116 110 158 105 52 hvcurveto
          -45 -148 -31 -126 -26 -141 rrcurveto
          -3 -12 -12 -2 -12 hhcurveto
          195 434 rmoveto
          54 36 -23 -43 -100 -95 -181 -112 -64 hvcurveto
          27 135 34 125 46 151 rrcurveto
          endchar
        </CharString>
        <CharString name="Oslashacute">
          289 -105 -21 685 85 129 -20 hstemhm
          25 89 -89 244 hintmask 11101000
          583 721 rmoveto
          -73 -99 rlineto
          14 -18 -22 8 -25 hhcurveto
          -45 -32 -6 -15 -23 hvcurveto
          -161 -82 -159 -243 -151 vvcurveto
          -75 39 -53 60 -11 vhcurveto
          -21 -39 -21 -40 -21 -42 44 -13 rcurveline
          24 47 23 45 24 42 131 24 162 181 64 160 54 20 76 30 36 21 rrcurveto
          48 vlineto
          -51 -26 -2 -4 -93 -31 rrcurveto
          7 24 1 27 22 vvcurveto
          32 -8 29 -13 23 vhcurveto
          26 37 27 37 29 38 rrcurveto
          -508 -509 rmoveto
          73 28 79 56 78 vhcurveto
          11 -40 48 -23 67 -9 -53 -83 -50 -83 -49 -88 rrcurveto
          -40 11 -18 37 48 vvcurveto
          hintmask 11110000
          188 336 rmoveto
          21 30 29 11 26 hhcurveto
          28 20 -9 -15 14 hvcurveto
          -33 -47 -32 -46 -31 -47 rrcurveto
          -54 8 -30 24 33 vvcurveto
          20 10 23 23 24 vhcurveto
          13 -378 rmoveto
          -29 -29 -33 -19 -30 -6 49 87 50 82 52 82 rrcurveto
          14 hlineto
          19 20 0 5 25 hvcurveto
          -24 -65 -46 -71 -67 -66 rrcurveto
          173 584 rmoveto
          -68 40 -132 -78 29 -18 rlineto
          155 -217 rmoveto
          -13 callgsubr
          vhcurveto
          -22 -6 -19 -2 -20 -1 21 32 21 31 23 33 rrcurveto
          1 -9 1 -10 -10 vvcurveto
          endchar
        </CharString>
        <CharString name="Otilde">
          319 -34 callsubr
          43 48 21 49 hstemhm
          40 -28 callsubr
          hintmask 11111011
          714 -105 callgsubr
          -48 callgsubr
          hintmask 11111101
          -89 callgsubr
          215 629 -96 callgsubr
        </CharString>
        <CharString name="P">
          263 25 callsubr
          -20 76 483 89 hintmask 11101100
          544 -76 callsubr
        </CharString>
        <CharString name="Q">
          270 -27 62 -34 246 -69 69 320 72 hstemhm
          30 104 337 95 hintmask 10111100
          625 111 rmoveto
          -36 -7 -47 -40 -41 hhcurveto
          -50 -50 71 44 -31 hvcurveto
          95 106 72 136 107 vvcurveto
          80 -47 60 -69 -195 -225 -316 -181 vhcurveto
          hintmask 01011100
          -84 50 -57 73 63 73 42 63 67 vhcurveto
          hintmask 10111100
          -76 56 41 -57 78 hhcurveto
          64 56 54 50 34 hvcurveto
          -371 468 rmoveto
          11 16 25 11 33 hhcurveto
          52 31 -53 -69 -73 -44 -106 -57 -77 hvcurveto
          57 -42 -15 1 -25 hhcurveto
          -53 -49 -48 -89 -26 hvcurveto
          -18 20 -8 30 37 vvcurveto
          111 85 169 95 68 vhcurveto
          -86 -463 rmoveto
          -3 -3 -1 -2 hhcurveto
          -9 -8 2 2 -7 hvcurveto
          93 33 25 0 20 hhcurveto
          26 14 -17 -17 14 hvcurveto
          -31 -36 -36 -23 -33 -3 rrcurveto
          endchar
        </CharString>
        <CharString name="R">
          240 23 callgsubr
          hstem
          30 68 170 86 197 104 vstem
          500 -65 rmoveto
          -100 callsubr
          endchar
        </CharString>
        <CharString name="Racute">
          260 23 callgsubr
          144 -20 hstem
          40 68 170 86 197 104 vstem
          510 -65 rmoveto
          -100 callsubr
          280 458 -80 callgsubr
        </CharString>
        <CharString name="Rcaron">
          260 23 callgsubr
          172 -20 hstem
          40 68 170 86 197 104 vstem
          510 -65 rmoveto
          -100 callsubr
          211 388 -88 callsubr
        </CharString>
        <CharString name="S">
          232 17 callgsubr
          hstemhm
          -20 0 callsubr
          hintmask 11110100
          597 -73 callgsubr
        </CharString>
        <CharString name="Sacute">
          252 17 callgsubr
          140 -20 hstemhm
          -10 0 callsubr
          hintmask 11111100
          607 -79 callgsubr
          vhcurveto
          hintmask 11111010
          -9 callgsubr
          hvcurveto
          hintmask 11111100
          9 callsubr
          1 callgsubr
          -41 callsubr
          -8 callgsubr
          vhcurveto
          1 10 14 1 13 hhcurveto
          11 10 -1 -1 6 hvcurveto
          hintmask 11111010
          -450 -269 rmoveto
          -42 -25 19 29 1 callsubr
          hvcurveto
          -40 callsubr
          371 865 -80 callgsubr
        </CharString>
        <CharString name="Scaron">
          252 17 callgsubr
          173 -20 hstemhm
          -10 0 callsubr
          hintmask 11111100
          607 -79 callgsubr
          -9 callgsubr
          9 callsubr
          hintmask 11111010
          1 callgsubr
          hintmask 11111100
          -41 callsubr
          -8 callgsubr
          vhcurveto
          1 10 14 1 13 hhcurveto
          11 10 -1 -1 6 hvcurveto
          -450 -269 rmoveto
          -42 -25 19 29 hvcurveto
          hintmask 11111010
          1 callsubr
          vhcurveto
          -40 callsubr
          257 800 -88 callsubr
        </CharString>
        <CharString name="Scedilla">
          143 -275 27 88 40 24 57 601 75 hstemhm
          19 83 37 91 -41 70 101 97 -26 97 hintmask 1111110100000000
          199 -120 6 callsubr
          17 37 rlineto
          146 157 180 99 48 -48 29 -82 35 hvcurveto
          -81 34 -16 25 31 vvcurveto
          84 108 93 61 vhcurveto
          hintmask 1111110010000000
          22 10 -12 -19 -40 -45 -68 -53 -28 hvcurveto
          24 -34 rlineto
          88 47 83 106 61 vvcurveto
          27 -16 35 -50 -105 -218 -152 -128 -48 35 -50 75 -20 vhcurveto
          hintmask 1111101100000000
          89 -24 22 -32 -35 vvcurveto
          -69 -89 -118 -112 -38 -19 38 32 52 49 61 106 14 vhcurveto
          10 28 rlineto
          -161 -8 -87 -93 -75 vvcurveto
          -34 18 -56 80 -13 vhcurveto
          -14 -28 -19 -42 -11 -70 callgsubr
          endchar
        </CharString>
        <CharString name="Scircumflex">
          222 17 callgsubr
          177 -20 hstemhm
          -25 0 callsubr
          hintmask 11111010
          592 -79 callgsubr
          -9 callgsubr
          9 callsubr
          1 callgsubr
          -41 callsubr
          vhcurveto
          hintmask 11111100
          -8 callgsubr
          hvcurveto
          hintmask 11111010
          -55 callsubr
          hintmask 11111100
          -40 callsubr
          131 828 -104 callgsubr
        </CharString>
        <CharString name="T">
          175 4 48 291 15 callgsubr
          30 57 hintmask 11001100
          646 640 -36 callsubr
          hintmask 11100100
          27 callsubr
          hintmask 11010100
          6 -113 -15 1 -16 -60 callgsubr
          -101 callgsubr
          80 70 34 34 hvcurveto
          hintmask 11001100
          12 callsubr
        </CharString>
        <CharString name="Tbar">
          165 4 48 134 55 102 15 callgsubr
          25 57 hintmask 11100110
          641 640 -36 callsubr
          hintmask 11110010
          27 callsubr
          hintmask 11101010
          6 -113 -15 1 -16 -60 callgsubr
          -15 26 rlineto
          -30 -53 -26 -4 -25 hhcurveto
          -40 -27 23 33 63 76 33 143 hvcurveto
          53 45 -3 45 hhcurveto
          -83 -72 -12 -27 -58 -173 -16 -48 rcurveline
          -56 -1 -56 -12 -44 -6 16 -41 rcurveline
          119 8 rlineto
          -105 -46 -41 -26 -49 hhcurveto
          -5 -5 0 1 -5 hvcurveto
          -14 2 -3 1 -14 5 -10 5 rlinecurve
          -23 -38 rlineto
          -13 18 29 -11 23 hhcurveto
          93 71 61 118 58 hvcurveto
          143 7 rlineto
          56 vlineto
          -118 -9 13 32 12 34 12 38 rlinecurve
          -16 callsubr
          80 70 34 34 hvcurveto
          hintmask 11100110
          12 callsubr
        </CharString>
        <CharString name="Tcaron">
          195 32 callsubr
          185 -25 callsubr
          -52 42 -39 57 46 56 26 45 42 hvcurveto
          hintmask 11101100
          -101 callgsubr
          80 70 34 34 10 -6 8 -8 hvcurveto
          hintmask 11011100
          -207 27 -88 callsubr
        </CharString>
        <CharString name="Thorn">
          283 -160 -21 194 45 429 86 144 -20 hstem
          7 76 240 67 172 89 vstem
          567 573 rmoveto
          -50 -17 -1 -80 -116 hvcurveto
          5 30 1 42 41 52 -2 51 9 vvcurveto
          -72 -12 rlineto
          1 -54 6 -54 -52 vvcurveto
          -41 -4 -40 -12 -39 vhcurveto
          -151 -138 -149 -262 -138 vvcurveto
          -42 20 -26 33 57 49 70 126 59 vhcurveto
          -2 26 8 0 12 hhcurveto
          165 215 260 192 69 -30 39 -54 hvcurveto
          -412 -486 rmoveto
          -18 -42 7 -7 9 -7 9 -4 rlinecurve
          -50 -20 -34 -50 -13 hhcurveto
          -9 -3 6 13 82 79 163 127 158 hvcurveto
          -27 -96 -34 -92 -45 -88 rrcurveto
          264 87 rmoveto
          -65 -54 -67 -37 -61 -4 -7 1 -8 hhcurveto
          78 169 38 113 12 92 rrcurveto
          38 57 38 16 35 hhcurveto
          36 22 -25 -38 -71 -51 -115 -64 -78 hvcurveto
          endchar
        </CharString>
        <CharString name="U">
          306 -34 callgsubr
          52 -20 hstemhm
          30 -32 callgsubr
          hintmask 10111110
          563 78 rmoveto
          -99 callgsubr
          hintmask 01111110
          -98 callgsubr
          hintmask 10111110
          -92 callsubr
          endchar
        </CharString>
        <CharString name="Uacute">
          -34 callgsubr
          155 -50 callgsubr
          hintmask 01111110
          -159 -92 -210 -276 -174 vvcurveto
          -6 callgsubr
          81 108 85 54 50 vhcurveto
          -92 callsubr
          64 209 rmoveto
          hintmask 10111110
          -68 40 27 callgsubr
        </CharString>
        <CharString name="Ubreve">
          296 -34 callgsubr
          85 47 51 -20 hstemhm
          25 -32 callgsubr
          hintmask 10111111
          558 78 rmoveto
          -99 callgsubr
          hintmask 01111111
          -98 callgsubr
          hintmask 10111111
          -92 callsubr
          37 274 -100 callgsubr
        </CharString>
        <CharString name="Ucircumflex">
          -34 callgsubr
          186 -33 callgsubr
          hintmask 01111110
          -98 callgsubr
          hintmask 10111110
          -92 callsubr
          -158 166 -104 callgsubr
        </CharString>
        <CharString name="Udieresis">
          -34 callgsubr
          66 79 hstemhm
          40 92 254 69 -2 79 48 79 -58 80 hintmask 1011110010000000
          -54 callgsubr
          hintmask 0111110100000000
          -98 callgsubr
          hintmask 1011101010000000
          -92 callsubr
          -135 199 -103 callgsubr
          hintmask 1011110100000000
          -39 callgsubr
        </CharString>
        <CharString name="Ugrave">
          -34 callgsubr
          152 -33 callgsubr
          hintmask 01111110
          -98 callgsubr
          hintmask 10111110
          -92 callsubr
          44 150 -64 callsubr
        </CharString>
        <CharString name="Uhungarumlaut">
          -34 callgsubr
          177 -50 callgsubr
          -159 -92 -210 -276 -174 vvcurveto
          -6 callgsubr
          81 108 85 54 50 vhcurveto
          -35 callsubr
          hintmask 01111110
          -31 callgsubr
          -17 466 rmoveto
          8 5 -6 -9 -36 -52 -90 -85 -101 hvcurveto
          117 15 65 125 44 hhcurveto
          -3 246 rmoveto
          -85 25 -92 -96 41 -14 rlineto
          272 75 rmoveto
          hintmask 10111110
          -69 28 -113 -89 42 -16 rlineto
          endchar
        </CharString>
        <CharString name="Umacron">
          296 -34 callgsubr
          96 39 hstemhm
          25 -32 callgsubr
          hintmask 10111110
          558 78 rmoveto
          -99 callgsubr
          hintmask 01111110
          -98 callgsubr
          hintmask 10111110
          -92 callsubr
          53 229 -68 callgsubr
        </CharString>
        <CharString name="Uogonek">
          296 -214 77 98 75 -39 79 442 94 52 -20 hstemhm
          25 -32 callgsubr
          hintmask 11011111
          541 -96 -49 callsubr
          13 16 36 21 32 hvcurveto
          -5 10 11 -2 12 hhcurveto
          -31 callgsubr
          -32 26 rlineto
          -99 callgsubr
          hintmask 10111111
          -98 callgsubr
          7 -66 16 -48 24 -28 rrcurveto
          -40 -38 -50 -68 -56 -60 callsubr
          12 630 -20 callgsubr
        </CharString>
        <CharString name="Uring">
          -34 callgsubr
          55 125 -105 86 hstemhm
          40 92 254 69 61 66 19 80 hintmask 1010111110000000
          573 78 rmoveto
          -30 -21 -18 -12 -15 hhcurveto
          -43 -21 92 47 10 1 8 1 8 hvcurveto
          95 90 129 198 75 vvcurveto
          30 -15 18 -27 vhcurveto
          hintmask 1011011110000000
          -59 callgsubr
          hvcurveto
          -98 callgsubr
          -35 callsubr
          -31 callgsubr
          -17 466 rmoveto
          hintmask 0110111110000000
          8 5 -6 -9 -36 -52 -90 -85 -101 hvcurveto
          117 15 65 125 44 hhcurveto
          33 226 -23 callsubr
          hintmask 1010111110000000
          -32 callsubr
        </CharString>
        <CharString name="Utilde">
          296 -34 callgsubr
          93 48 21 49 hstemhm
          25 -32 callgsubr
          hintmask 10111111
          558 78 rmoveto
          -99 callgsubr
          hintmask 01111111
          -98 callgsubr
          hintmask 10111111
          -92 callsubr
          71 278 -96 callgsubr
        </CharString>
        <CharString name="V">
          173 12 -21 652 -20 hstemhm
          65 95 -80 80 hintmask 11010000
          549 612 rmoveto
          -132 -75 -143 -145 -117 -240 rrcurveto
          2 33 1 56 45 vvcurveto
          125 -11 152 -46 80 vhcurveto
          -73 -20 rlineto
          37 -102 13 -117 -144 vvcurveto
          hintmask 11100000
          -65 -15 -87 -71 vvcurveto
          -26 24 -20 30 22 10 11 44 19 vhcurveto
          93 221 185 217 130 85 rrcurveto
          endchar
        </CharString>
        <CharString name="W">
          394 5 82 -60 -21 638 -20 hstemhm
          106 16 callsubr
          hintmask 10111100
          719 -91 callsubr
          hintmask 01111100
          -53 callsubr
          hintmask 10111100
          -43 callgsubr
          endchar
        </CharString>
        <CharString name="Wacute">
          3 callsubr
          149 -20 hstemhm
          101 16 callsubr
          hintmask 10111110
          714 -74 callsubr
          hintmask 01111110
          -226 -314 -11 -15 -73 -93 rrcurveto
          32 136 25 181 105 vvcurveto
          28 -1 34 -5 27 vhcurveto
          -78 hlineto
          1 -21 0 -21 -21 vvcurveto
          -152 -7 -151 -63 -189 vhcurveto
          -4 -11 -2 -12 -8 vvcurveto
          -53 callsubr
          -43 callgsubr
          -194 103 rmoveto
          -68 40 -132 -78 rlineto
          hintmask 10111110
          29 -18 rlineto
          endchar
        </CharString>
        <CharString name="Wcircumflex">
          3 callsubr
          182 -20 hstemhm
          101 16 callsubr
          hintmask 10111110
          714 -91 callsubr
          hintmask 01111110
          -53 callsubr
          hintmask 10111110
          -43 callgsubr
          -423 62 -104 callgsubr
        </CharString>
        <CharString name="Wdieresis">
          3 callsubr
          72 79 hstemhm
          101 83 180 84 -41 79 48 79 102 79 hintmask 1011110110000000
          714 -91 callsubr
          hintmask 0111110110000000
          -53 callsubr
          hintmask 1011101110000000
          -43 callgsubr
          -381 105 -101 callsubr
        </CharString>
        <CharString name="Wgrave">
          3 callsubr
          152 -20 hstemhm
          101 16 callsubr
          hintmask 10111110
          714 -91 callsubr
          hintmask 01111110
          -53 callsubr
          hintmask 10111110
          -43 callgsubr
          -204 50 -64 callsubr
        </CharString>
        <CharString name="X">
          249 -3 -21 664 -20 hstem
          612 -47 callgsubr
        </CharString>
        <CharString name="Y">
          265 -18 callsubr
          529 -20 hstem
          -90 106 57 90 vstem
          509 -107 callsubr
          endchar
        </CharString>
        <CharString name="Yacute">
          285 -18 callsubr
          645 -20 hstem
          -80 106 57 90 vstem
          519 -107 callsubr
          518 975 -80 callgsubr
        </CharString>
        <CharString name="Ycircumflex">
          255 -18 callsubr
          705 -20 hstem
          -95 106 57 90 vstem
          504 -107 callsubr
          224 961 -104 callgsubr
        </CharString>
        <CharString name="Ydieresis">
          285 -18 callsubr
          587 79 hstem
          -80 106 57 90 254 79 48 86 vstem
          519 -107 callsubr
          321 996 -101 callsubr
        </CharString>
        <CharString name="Ygrave">
          255 -18 callsubr
          662 -20 hstem
          -95 106 57 90 vstem
          504 -107 callsubr
          472 936 -64 callsubr
        </CharString>
        <CharString name="Z">
          263 -4 callgsubr
          hstemhm
          151 72 212 72 hintmask 10101100
          193 -71 callsubr
          hintmask 01011100
          51 80 16 175 21 12 -1 -1 21 vhcurveto
          -16 -24 -17 -20 -34 -33 rrcurveto
          -62 callgsubr
          hintmask 10101100
          -12 callgsubr
          endchar
        </CharString>
        <CharString name="Zacute">
          283 -4 callgsubr
          145 -20 hstemhm
          161 72 212 72 hintmask 10101110
          203 -71 callsubr
          51 80 16 175 vhcurveto
          hintmask 01011110
          21 12 -1 -1 21 hvcurveto
          -16 -24 -17 -20 -34 -33 rrcurveto
          -62 callgsubr
          -51 -80 -16 -175 vhcurveto
          hintmask 10101110
          -21 -12 1 1 -21 hvcurveto
          16 24 18 19 33 34 rrcurveto
          298 578 -80 callgsubr
        </CharString>
        <CharString name="Zcaron">
          283 -4 callgsubr
          197 -20 hstemhm
          161 72 212 72 hintmask 10101110
          203 -71 callsubr
          51 80 16 175 21 12 -1 -1 21 vhcurveto
          -16 -24 -17 -20 -34 -33 rrcurveto
          hintmask 01011110
          -62 callgsubr
          -12 callgsubr
          228 532 rmoveto
          0 108 86 21 22 vhcurveto
          -30 24 -43 -26 -50 -31 -10 -7 rlinecurve
          -44 28 -55 42 0 vvcurveto
          hintmask 10101110
          -10 callgsubr
        </CharString>
        <CharString name="Zdotaccent">
          283 -4 callgsubr
          67 79 hstemhm
          161 72 166 79 -33 72 hintmask 10101110
          203 -71 callsubr
          hintmask 01011101
          51 80 16 175 21 12 -1 -1 21 vhcurveto
          -16 -24 -17 -20 -34 -33 rrcurveto
          -62 callgsubr
          hintmask 10101110
          -12 callgsubr
          196 579 -103 callgsubr
          endchar
        </CharString>
        <CharString name="a">
          74 0 74 301 -20 hstem
          13 7 callsubr
          439 101 rmoveto
          -23 -30 -10 -10 -12 -106 callgsubr
          -35 15 -27 44 -7 callsubr
          vhcurveto
          endchar
        </CharString>
        <CharString name="aacute">
          94 0 74 418 -20 7 callgsubr
          449 101 rmoveto
          -23 -30 -10 -10 -12 -106 callgsubr
          -35 15 -27 44 -7 callsubr
          vhcurveto
          -88 368 -80 callgsubr
        </CharString>
        <CharString name="abreve">
          94 0 74 340 47 51 -20 7 callgsubr
          449 101 rmoveto
          -23 -30 -10 -10 -12 -106 callgsubr
          -35 15 -27 44 -7 callsubr
          vhcurveto
          -47 425 -100 callgsubr
        </CharString>
        <CharString name="acircumflex">
          94 0 74 447 -20 7 callgsubr
          449 101 rmoveto
          -23 -30 -10 -10 -12 -106 callgsubr
          -35 15 -27 44 -7 callsubr
          vhcurveto
          -320 323 -104 callgsubr
        </CharString>
        <CharString name="acute">
          -199 415 -21 96 -20 hstem
          192 450 -80 callgsubr
        </CharString>
        <CharString name="adieresis">
          94 0 74 333 79 hstemhm
          23 90 99 79 2 69 -23 79 hintmask 11111000
          449 101 rmoveto
          -23 -30 -10 -10 -12 -106 callgsubr
          -35 15 -27 44 -7 callsubr
          vhcurveto
          -260 362 -103 callgsubr
          hintmask 11110100
          -39 callgsubr
        </CharString>
        <CharString name="ae">
          366 -14 callsubr
          hstem
          8 90 180 69 338 73 vstem
          677 118 rmoveto
          -42 -63 -27 -7 -27 hhcurveto
          -25 -30 17 32 -12 hvcurveto
          169 60 96 78 71 vvcurveto
          45 -42 7 -24 -133 -162 -147 -123 -12 1 -11 3 -11 vhcurveto
          -5 -8 -5 -2 -6 -106 callgsubr
          -35 15 -27 44 25 32 16 22 26 vhcurveto
          -24 20 31 -14 40 hhcurveto
          67 81 43 57 41 hvcurveto
          -212 48 rmoveto
          86 11 91 94 62 hhcurveto
          18 15 -15 -18 -48 -92 -63 -105 -36 hvcurveto
          endchar
        </CharString>
        <CharString name="aeacute">
          366 0 74 254 47 127 -20 hstem
          8 90 180 69 338 73 vstem
          677 118 rmoveto
          -42 -63 -27 -7 -27 hhcurveto
          -25 -30 17 32 -12 hvcurveto
          169 60 96 78 71 vvcurveto
          45 -42 7 -24 -133 -162 -147 -123 -12 1 -11 3 -11 vhcurveto
          -5 -8 -5 -2 -6 -106 callgsubr
          -35 15 -27 44 25 32 16 22 26 vhcurveto
          -24 20 31 -14 40 hhcurveto
          67 81 43 57 41 hvcurveto
          -212 48 rmoveto
          86 11 91 94 62 hhcurveto
          18 15 -15 -18 -48 -92 -63 -105 -36 hvcurveto
          122 314 -80 callgsubr
        </CharString>
        <CharString name="agrave">
          94 0 74 422 -20 7 callgsubr
          449 101 rmoveto
          -23 -30 -10 -10 -12 -106 callgsubr
          -35 15 -27 44 -7 callsubr
          vhcurveto
          -126 316 -64 callsubr
        </CharString>
        <CharString name="amacron">
          64 0 74 368 39 hstem
          8 7 callsubr
          434 101 rmoveto
          -23 -30 -10 -10 -12 -106 callgsubr
          -35 15 -27 44 -7 callsubr
          vhcurveto
          -46 397 -68 callgsubr
        </CharString>
        <CharString name="ampersand">
          115 -1 52 443 31 hstem
          -1 89 79 68 135 63 vstem
          483 110 rmoveto
          -35 -14 -21 -13 -18 hhcurveto
          -23 -18 20 23 -18 hvcurveto
          28 39 29 72 5 38 rrcurveto
          -32 hlineto
          -17 -51 -15 -42 -21 -30 -28 42 -33 74 -23 56 rrcurveto
          91 23 78 40 67 vvcurveto
          54 -49 38 -70 -83 -64 -53 -71 -24 7 -30 12 -34 vhcurveto
          -119 -29 -68 -65 -78 vvcurveto
          -75 61 -67 118 48 52 11 35 40 vhcurveto
          -36 36 21 -10 25 hhcurveto
          48 44 37 57 18 hvcurveto
          -201 401 rmoveto
          36 25 -24 -37 -46 -38 -32 -80 -21 hvcurveto
          -12 39 -5 19 19 vvcurveto
          49 32 34 42 vhcurveto
          -94 -443 rmoveto
          -99 -28 71 43 56 46 49 61 13 hvcurveto
          23 -58 35 -81 46 -70 rrcurveto
          -18 -20 -38 -5 -26 hhcurveto
          endchar
        </CharString>
        <CharString name="aogonek">
          94 -185 77 108 74 301 -20 7 callgsubr
          420 -67 -49 callsubr
          14 17 39 24 32 hvcurveto
          -1 5 5 0 6 hhcurveto
          -7 callsubr
          hvcurveto
          -23 17 rlineto
          -23 -30 -10 -10 -12 -106 callgsubr
          -15 2 -12 6 -11 vhcurveto
          -40 -36 -52 -70 -57 -11 callsubr
        </CharString>
        <CharString name="approxequal">
          55 49 75 39 66 -27 67 39 66 hstemhm
          hintmask 11010000
          386 188 rmoveto
          -32 -31 -25 -32 -20 -49 -39 105 -69 hhcurveto
          -34 -42 -42 -53 -61 hvcurveto
          34 -38 rlineto
          39 42 22 28 25 60 41 -114 62 hhcurveto
          29 45 50 53 38 hvcurveto
          -20 181 rmoveto
          hintmask 10110000
          -33 -34 -22 -31 -20 -49 -28 105 -69 hhcurveto
          -34 -58 -43 -53 -61 hvcurveto
          30 -38 rlineto
          39 42 31 29 25 60 46 -106 62 hhcurveto
          29 45 42 50 33 hvcurveto
          endchar
        </CharString>
        <CharString name="aring">
          94 0 74 337 125 -105 86 hstemhm
          23 90 0 180 -50 38 0 66 -54 69 -15 39 hintmask 1011001000000000
          449 101 rmoveto
          -23 -30 -10 -10 -12 hhcurveto
          -23 -12 16 17 34 62 125 0 hvcurveto
          -42 25 rlineto
          hintmask 1101010010000000
          -115 -59 -103 -96 -59 hhcurveto
          -28 -20 18 39 84 110 92 120 26 hvcurveto
          42 9 -2 33 rlineto
          -172 -3 -188 -147 -144 vvcurveto
          -51 27 -30 48 vhcurveto
          hintmask 1010100010000000
          46 49 13 80 78 hvcurveto
          37 38 rlineto
          -9 -24 -6 -24 -21 vvcurveto
          -35 15 -27 44 vhcurveto
          hintmask 1011010100000000
          -7 callsubr
          hvcurveto
          -86 404 -23 callsubr
          -32 callsubr
        </CharString>
        <CharString name="asciicircum">
          19 200 -21 242 -20 hstem
          -2 197 rmoveto
          54 -13 rlineto
          0 113 121 59 37 vhcurveto
          13 -10 107 -116 33 -37 27 23 rcurveline
          -12 24 -171 195 0 vvcurveto
          0 -213 -200 -10 -24 vhcurveto
          endchar
        </CharString>
        <CharString name="asciitilde">
          55 198 71 39 66 hstem
          392 333 rmoveto
          -36 -32 -24 -28 -20 -49 -28 105 -69 hhcurveto
          -34 -43 -33 -53 -61 hvcurveto
          15 -48 rlineto
          39 42 31 29 25 60 28 -110 62 hhcurveto
          29 37 34 53 52 hvcurveto
          endchar
        </CharString>
        <CharString name="asterisk">
          -187 444 -21 207 -20 hstem
          82 36 vstem
          40 448 rmoveto
          42 38 rlineto
          -63 36 63 vlineto
          49 -45 26 25 -49 42 64 4 rlineto
          37 vlineto
          -60 -10 51 34 -20 30 -13 -9 -22 -20 -15 -11 rlinecurve
          12 57 -43 10 -4 -19 -1 -23 -2 -23 rlinecurve
          -18 15 -16 17 -15 12 -24 -38 rcurveline
          44 -34 -20 -2 -25 -1 -16 -3 rlinecurve
          1 -35 52 9 -40 -30 rlineto
          endchar
        </CharString>
        <CharString name="at">
          97 1 53 91 50 293 35 hstem
          0 83 30 55 109 42 97 76 vstem
          361 523 rmoveto
          -19 callsubr
          77 -51 49 -80 hvcurveto
          4 -316 rmoveto
          -11 -13 -5 -5 -7 hhcurveto
          -14 -7 11 11 23 34 71 4 13 hvcurveto
          -26 17 rlineto
          -77 -36 -62 -65 -36 hhcurveto
          -17 -12 12 26 57 67 62 73 18 hvcurveto
          25 6 -1 22 rlineto
          -105 -2 -114 -99 -97 vvcurveto
          -35 17 -20 29 28 29 9 54 48 vhcurveto
          22 25 rlineto
          -5 -16 -4 -16 -14 vvcurveto
          -24 9 -18 27 4 4 1 1 5 vhcurveto
          -54 -43 -51 -39 -49 hhcurveto
          -3 callgsubr
          -51 -20 -62 -31 -56 hvcurveto
          endchar
        </CharString>
        <CharString name="atilde">
          94 0 74 328 48 21 49 7 callgsubr
          449 101 rmoveto
          -23 -30 -10 -10 -12 -106 callgsubr
          -35 15 -27 44 -7 callsubr
          vhcurveto
          -54 409 -96 callgsubr
        </CharString>
        <CharString name="b">
          36 -18 50 250 79 363 -20 hstem
          328 87 vstem
          337 361 rmoveto
          -54 -98 -53 -154 -88 hvcurveto
          17 84 121 299 90 169 -51 18 rcurveline
          -72 -109 -155 -357 -43 -218 61 -25 rcurveline
          28 callgsubr
          -83 -76 -119 -85 -8 -9 2 2 -8 hvcurveto
          -24 -44 rlineto
          -7 17 17 -3 17 hhcurveto
          127 119 182 116 48 -32 33 -46 hvcurveto
          endchar
        </CharString>
        <CharString name="backslash">
          -132 -73 -21 793 -20 hstem
          147 -94 rmoveto
          38 7 -39 292 -48 186 -100 308 rlinecurve
          -39 -9 97 -313 57 -185 34 -286 rlinecurve
          endchar
        </CharString>
        <CharString name="bar">
          -231 -11 -21 674 -20 hstem
          33 34 vstem
          67 -22 rmoveto
          1 138 39 328 71 189 -39 9 rcurveline
          -79 -255 -15 -171 -12 -248 rrcurveto
          endchar
        </CharString>
        <CharString name="braceleft">
          -104 -128 -21 862 -20 hstem
          38 44 14 57 vstem
          295 713 rmoveto
          -210 -79 111 -321 -169 -21 rrcurveto
          52 -26 17 -33 -37 -69 -58 -83 -82 vvcurveto
          -38 12 -37 35 -36 vhcurveto
          14 54 rlineto
          -12 21 -5 21 21 79 71 74 74 vvcurveto
          30 -11 29 -32 30 vhcurveto
          123 88 -74 207 129 72 rrcurveto
          endchar
        </CharString>
        <CharString name="braceright">
          -90 -145 -21 881 -20 hstemhm
          156 51 7 50 vstemhm
          -10 -166 rmoveto
          250 163 -144 247 169 21 rrcurveto
          -44 12 -14 26 33 vvcurveto
          hintmask 11110000
          66 57 98 87 vvcurveto
          49 -18 45 -55 34 vhcurveto
          -5 -68 rlineto
          20 -25 8 -28 -28 -79 -58 -87 -66 vvcurveto
          -23 7 -21 19 -17 vhcurveto
          -150 -109 146 -109 -167 -153 rrcurveto
          endchar
        </CharString>
        <CharString name="bracketleft">
          -40 -135 -21 793 61 hstem
          401 684 rmoveto
          5 -53 -43 9 -27 hhcurveto
          -19 -24 -6 -31 -11 hvcurveto
          -63 -177 -119 -368 -46 -249 rrcurveto
          -17 19 -6 15 5 5 1 2 5 vhcurveto
          154 22 -6 58 -30 -3 -59 -5 -40 -6 rlinecurve
          39 191 107 344 70 189 rrcurveto
          35 48 -5 26 hhcurveto
          endchar
        </CharString>
        <CharString name="bracketright">
          -87 -108 -21 779 -20 25 61 hstem
          145 650 rmoveto
          26 51 5 35 hhcurveto
          -36 -189 -86 -344 -68 -191 -37 6 -80 2 -28 3 rrcurveto
          -58 vlineto
          -12 130 5 -1 5 hhcurveto
          15 22 6 17 10 hvcurveto
          94 249 87 359 37 177 rrcurveto
          1 4 0 3 3 vvcurveto
          22 -17 5 -17 -27 -79 -10 -5 -56 vhcurveto
          endchar
        </CharString>
        <CharString name="breve">
          -179 403 47 51 -20 hstem
          195 498 -100 callgsubr
        </CharString>
        <CharString name="brokenbar">
          -223 41 -21 556 -20 hstem
          35 34 vstem
          103 387 rmoveto
          14 66 17 62 20 52 -39 9 rcurveline
          -21 -68 -17 -62 -13 -59 rrcurveto
          -12 -120 rmoveto
          -8 -77 -5 -80 -4 -90 34 10 rcurveline
          55 7 86 12 96 vhcurveto
          endchar
        </CharString>
        <CharString name="bullet">
          -244 196 112 hstem
          27 112 vstem
          27 252 rmoveto
          -31 25 -25 31 31 25 25 31 31 -25 25 -31 -31 -25 -25 -31 vhcurveto
          endchar
        </CharString>
        <CharString name="c">
          -30 18 callgsubr
          hstem
          11 87 vstem
          281 -82 callgsubr
          endchar
        </CharString>
        <CharString name="cacute">
          -10 18 callgsubr
          125 -20 hstem
          21 87 vstem
          291 -82 callgsubr
          64 342 -80 callgsubr
        </CharString>
        <CharString name="caron">
          -132 408 -21 138 -20 hstem
          137 387 -88 callsubr
        </CharString>
        <CharString name="ccaron">
          -10 18 callgsubr
          165 -20 hstem
          21 87 vstem
          291 -82 callgsubr
          -52 284 -88 callsubr
        </CharString>
        <CharString name="ccedilla">
          -10 -194 27 88 40 40 73 264 41 hstem
          21 87 65 70 vstem
          183 -39 6 callsubr
          25 53 54 3 82 42 33 76 rlinecurve
          -24 20 rlineto
          -35 -37 -50 -33 -31 hhcurveto
          -38 -27 27 38 87 101 105 154 7 hvcurveto
          3 39 rlineto
          1 -10 -10 1 -10 hhcurveto
          -149 -166 -145 -124 -52 32 -43 56 -11 hvcurveto
          -13 -25 -28 -58 -14 -70 callgsubr
          endchar
        </CharString>
        <CharString name="ccircumflex">
          -40 18 callgsubr
          165 -20 hstem
          6 87 vstem
          276 -82 callgsubr
          -215 308 -104 callgsubr
        </CharString>
        <CharString name="cdotaccent">
          -40 18 callgsubr
          58 79 hstem
          6 87 141 79 vstem
          276 -82 callgsubr
          -66 354 -103 callgsubr
          endchar
        </CharString>
        <CharString name="cedilla">
          -216 -197 27 88 40 54 -20 hstem
          121 70 vstem
          131 -42 6 callsubr
          32 67 rlineto
          -38 hlineto
          0 -47 -91 -17 -70 callgsubr
          endchar
        </CharString>
        <CharString name="cent">
          30 -38 -21 527 -20 hstem
          40 87 vstem
          307 468 rmoveto
          -13 -23 -9 -23 -10 -23 rrcurveto
          -124 -36 -111 -114 -113 vvcurveto
          -72 56 -30 64 -7 vhcurveto
          -18 -82 43 -4 5 28 6 29 6 29 rlinecurve
          54 6 76 36 41 72 -24 20 rcurveline
          -35 -37 -61 -27 -31 hhcurveto
          18 85 25 89 37 88 rrcurveto
          2 14 15 4 15 hhcurveto
          31 hlineto
          3 40 rlineto
          2 -6 -9 1 -12 hhcurveto
          -10 -10 -1 -1 -10 hvcurveto
          8 17 7 16 9 17 rrcurveto
          -218 -293 rmoveto
          69 49 72 75 37 vhcurveto
          -32 -81 -22 -81 -18 -76 rrcurveto
          -28 8 -24 18 34 vvcurveto
          endchar
        </CharString>
        <CharString name="circumflex">
          -132 408 -21 138 -20 hstem
          -10 411 -104 callgsubr
        </CharString>
        <CharString name="colon">
          -279 0 79 93 79 hstemhm
          -18 79 -45 79 hintmask 11010000
          16 211 -103 callgsubr
          hintmask 11100000
          -34 -172 -103 callgsubr
          endchar
        </CharString>
        <CharString name="comma">
          -261 -44 31 callsubr
          -2 88 vstem
          45 76 rmoveto
          -106 callsubr
          endchar
        </CharString>
        <CharString name="copyright">
          91 -1 53 -53 136 51 183 30 122 -35 35 hstemhm
          -1 83 -83 124 292 76 hintmask 01110011
          491 395 rmoveto
          77 -51 49 -80 -19 callsubr
          vhcurveto
          -76 -21 rmoveto
          -125 -123 -197 -110 -3 callgsubr
          vhcurveto
          -104 -141 rmoveto
          hintmask 10101101
          -24 -25 -35 -23 -22 hhcurveto
          -26 -19 19 26 61 70 73 86 4 hvcurveto
          21 1 2 27 rlineto
          1 -4 -6 1 -8 hhcurveto
          -105 -117 -100 -88 -43 32 -33 51 38 60 29 55 24 hvcurveto
          endchar
        </CharString>
        <CharString name="d">
          164 22 callsubr
          6 90 204 73 hintmask 10111000
          574 739 rmoveto
          -230 -453 -25 -58 -41 -53 rrcurveto
          -58 callsubr
          hintmask 01111000
          -26 callgsubr
          hvcurveto
          1 155 251 455 2 vvcurveto
          endchar
        </CharString>
        <CharString name="dagger">
          -111 -11 -21 674 -20 hstem
          75 34 vstem
          276 478 rmoveto
          -30 -1 -36 -4 -37 -4 13 60 16 56 18 48 -39 9 rcurveline
          -20 -64 -16 -58 -12 -56 -46 -6 -45 -7 -34 -6 12 -54 rcurveline
          100 15 -28 -143 -9 -131 -8 -164 rlinecurve
          34 10 rlineto
          92 18 178 33 165 vhcurveto
          116 18 rlineto
          endchar
        </CharString>
        <CharString name="daggerdbl">
          -111 -11 -21 268 65 341 -20 hstem
          71 34 vstem
          244 305 rmoveto
          -108 -8 6 39 7 40 8 39 rlinecurve
          107 14 -4 47 rlineto
          -30 -30 -2 -3 -31 hvcurveto
          13 59 16 56 18 47 -39 9 rcurveline
          -20 -63 -15 -57 -13 -55 -38 -4 -38 -6 -35 -6 3 -54 rcurveline
          96 12 -8 -39 -6 -37 -6 -38 rlinecurve
          -92 -6 3 -55 rlineto
          25 28 0 2 29 hvcurveto
          -9 -84 -5 -86 -5 -98 34 10 rcurveline
          60 8 96 14 106 vhcurveto
          40 4 41 6 40 9 rrcurveto
          endchar
        </CharString>
        <CharString name="dcaron">
          267 22 callsubr
          16 90 204 73 167 88 hintmask 10111100
          584 739 rmoveto
          -230 -453 -25 -58 -41 -53 rrcurveto
          -58 callsubr
          hintmask 01111100
          -26 callgsubr
          hvcurveto
          1 155 251 455 2 vvcurveto
          -38 -196 rmoveto
          -106 callsubr
          endchar
        </CharString>
        <CharString name="dcroat">
          184 22 callsubr
          16 90 204 73 hintmask 10111000
          625 566 rmoveto
          -72 -3 rlineto
          45 90 37 67 1 vvcurveto
          -51 18 -91 -180 -47 -3 -45 -5 -46 -7 rlinecurve
          14 -55 94 10 -120 -237 -23 -46 -32 -41 rlinecurve
          -58 callsubr
          hintmask 01111000
          -26 callgsubr
          84 74 173 68 140 hvcurveto
          100 12 rlineto
          endchar
        </CharString>
        <CharString name="degree">
          -209 454 27 121 21 hstem
          -6 50 99 46 vstem
          63 454 -67 callgsubr
          endchar
        </CharString>
        <CharString name="dieresis">
          -185 404 79 hstem
          -4 79 48 79 vstem
          -4 443 -101 callsubr
        </CharString>
        <CharString name="divide">
          -143 110 79 -79 182 33 79 hstem
          90 79 vstem
          241 292 rmoveto
          -76 -3 -94 -6 8 callgsubr
          230 30 rlineto
          -151 119 rmoveto
          -63 callsubr
          22 18 17 22 22 -18 18 -22 -23 -15 -18 -22 -1 vhcurveto
          -7 -215 -103 callgsubr
          endchar
        </CharString>
        <CharString name="dollar">
          90 -34 -21 59 36 357 32 237 -20 hstem
          -7 83 47 73 133 68 19 75 vstem
          147 -55 rmoveto
          16 58 rlineto
          110 124 131 99 52 -34 45 -87 16 hvcurveto
          6 15 5 16 8 20 rrcurveto
          80 116 76 78 47 -40 20 -52 hvcurveto
          17 38 -29 10 -9 -15 -10 -19 -11 -22 rlinecurve
          -95 -21 -139 -106 -100 vvcurveto
          -54 41 -24 54 -17 vhcurveto
          -4 -17 -6 -14 -9 -23 rrcurveto
          -125 -4 -81 -79 -64 vvcurveto
          -45 40 -38 92 vhcurveto
          -4 -28 -7 -15 -1 -11 rrcurveto
          23 90 rmoveto
          -38 -22 29 35 50 44 40 69 10 hvcurveto
          37 5 rmoveto
          32 hlineto
          5 27 rlineto
          1 -7 -6 0 -14 hhcurveto
          6 21 2 5 7 17 rrcurveto
          56 -14 22 -32 -36 vvcurveto
          -68 -81 -90 -76 vhcurveto
          77 391 rmoveto
          -11 -27 6 -4 4 -2 11 -1 rlinecurve
          -15 -39 rlineto
          -34 14 -14 25 33 vvcurveto
          66 58 59 80 10 vhcurveto
          -60 -137 rlineto
          94 136 rmoveto
          30 -1 18 -17 -28 vvcurveto
          -43 -44 -42 -62 -4 vhcurveto
          endchar
        </CharString>
        <CharString name="dotaccent">
          -329 414 79 hstem
          -4 79 vstem
          -4 453 -103 callgsubr
          endchar
        </CharString>
        <CharString name="dotlessi">
          -107 1 74 297 -20 hstem
          40 62 vstem
          211 129 -53 callgsubr
        </CharString>
        <CharString name="e">
          -14 -14 callsubr
          hstem
          298 73 vstem
          290 -105 callsubr
          endchar
        </CharString>
        <CharString name="eacute">
          6 -14 callsubr
          122 -20 hstem
          308 73 vstem
          300 -105 callsubr
          255 313 -80 callgsubr
        </CharString>
        <CharString name="ebreve">
          -24 -14 callsubr
          40 47 51 -20 hstem
          293 73 vstem
          285 -105 callsubr
          219 366 -100 callgsubr
        </CharString>
        <CharString name="ecaron">
          6 -14 callsubr
          156 -20 hstem
          308 73 vstem
          300 -105 callsubr
          163 249 -88 callsubr
        </CharString>
        <CharString name="ecircumflex">
          6 -14 callsubr
          158 -20 hstem
          308 73 vstem
          300 -105 callsubr
          -7 275 -104 callgsubr
        </CharString>
        <CharString name="edieresis">
          6 -14 callsubr
          39 79 hstemhm
          159 79 48 79 -57 73 hintmask 11110100
          300 -105 callsubr
          48 309 -103 callgsubr
          hintmask 11111000
          -39 callgsubr
        </CharString>
        <CharString name="edotaccent">
          -24 -14 callsubr
          45 79 hstemhm
          214 79 0 73 hintmask 11101000
          285 -105 callsubr
          hintmask 11110000
          118 315 -103 callgsubr
          endchar
        </CharString>
        <CharString name="egrave">
          6 -14 callsubr
          121 -20 hstem
          308 73 vstem
          300 -105 callsubr
          211 256 -64 callsubr
        </CharString>
        <CharString name="eight">
          41 9 52 385 45 hstemhm
          -6 88 61 90 72 86 -31 91 hintmask 11111000
          334 294 rmoveto
          hintmask 11110100
          78 24 39 34 47 vvcurveto
          54 -53 38 -79 -96 -80 -56 -67 -26 9 -18 29 -25 vhcurveto
          7 -6 rlineto
          -115 -27 -79 -66 -75 vvcurveto
          -68 52 -48 83 106 156 93 116 32 -17 28 -40 16 vhcurveto
          -51 28 rmoveto
          -32 15 -18 25 25 vvcurveto
          35 31 24 43 33 20 -15 -25 -39 -31 -32 -46 -13 vhcurveto
          -53 -56 rmoveto
          hintmask 11111000
          55 -10 20 -37 -32 vvcurveto
          -59 -66 -67 -63 -53 -41 37 46 51 64 52 84 19 vhcurveto
          endchar
        </CharString>
        <CharString name="ellipsis">
          65 -6 82 hstem
          28 82 80 82 79 82 vstem
          28 35 rmoveto
          -29 callsubr
          162 hmoveto
          -29 callsubr
          161 hmoveto
          -29 callsubr
          endchar
        </CharString>
        <CharString name="emacron">
          -24 -14 callsubr
          41 39 hstem
          293 73 vstem
          285 -105 callsubr
          233 311 -68 callgsubr
        </CharString>
        <CharString name="emdash">
          104 231 -21 92 -20 hstem
          502 302 rmoveto
          -92 -1 -340 -23 8 callgsubr
          492 45 rlineto
          endchar
        </CharString>
        <CharString name="endash">
          -8 238 -21 79 -20 hstem
          361 296 rmoveto
          -92 -1 -172 -10 8 callgsubr
          324 32 rlineto
          endchar
        </CharString>
        <CharString name="eogonek">
          6 -192 77 115 69 259 51 hstem
          308 73 vstem
          226 -74 -49 callsubr
          15 19 43 26 33 hvcurveto
          64 5 74 41 39 54 -23 18 rcurveline
          -42 -63 -27 -7 -27 hhcurveto
          -25 -30 17 32 -12 hvcurveto
          169 60 96 78 71 vvcurveto
          45 -42 7 -24 -133 -162 -147 -123 -53 28 -38 47 -13 vhcurveto
          -38 -39 -42 -61 -51 -60 callsubr
          -135 238 rmoveto
          86 11 91 94 62 hhcurveto
          18 15 -15 -18 -48 -92 -63 -105 -36 hvcurveto
          endchar
        </CharString>
        <CharString name="equal">
          -60 165 64 -42 -21 63 107 hstemhm
          hintmask 01100000
          314 335 rmoveto
          1 -17 -52 0 -17 hhcurveto
          -67 -27 -1 -16 -54 hvcurveto
          3 -54 235 23 rlineto
          8 -97 rmoveto
          hintmask 10000000
          -14 -61 -80 -12 -53 hhcurveto
          hintmask 01100000
          -13 -14 1 -16 hhcurveto
          -3 55 236 16 rlineto
          endchar
        </CharString>
        <CharString name="eth">
          -24 1 78 546 -20 hstem
          16 81 182 59 vstem
          298 528 rmoveto
          -30 -5 -37 -6 -34 -8 -38 61 -32 53 -1 2 -28 -70 rcurveline
          41 -60 -32 -8 -29 -8 -26 -9 rlinecurve
          18 -52 101 25 rlineto
          60 -91 48 -81 -90 vvcurveto
          -63 -53 -39 -2 callgsubr
          94 88 116 96 -49 78 -57 79 vhcurveto
          83 21 rlineto
          endchar
        </CharString>
        <CharString name="exclam">
          -138 1 88 553 -20 hstem
          -11 88 vstem
          235 642 rmoveto
          -94 -142 -92 -174 -48 -190 rrcurveto
          56 hlineto
          60 170 86 172 79 135 rrcurveto
          -205 -568 rmoveto
          -24 -20 -20 -24 -25 -19 20 24 25 19 19 25 24 20 -19 -25 vhcurveto
          endchar
        </CharString>
        <CharString name="exclamdown">
          -91 32 -21 540 88 hstem
          213 88 vstem
          202 536 rmoveto
          -94 -156 -58 -179 -48 -190 rrcurveto
          56 hlineto
          44 181 67 180 80 135 rrcurveto
          52 88 rmoveto
          25 -20 19 -24 -25 -19 -19 -25 -24 19 -20 25 24 20 20 24 vhcurveto
          endchar
        </CharString>
        <CharString name="f">
          -54 -249 -21 958 85 hstemhm
          6 64 -64 76 342 71 hintmask 11011000
          224 393 rmoveto
          142 89 125 107 4 97 rrcurveto
          40 2 -18 47 -63 hhcurveto
          -131 -36 -111 -256 -74 hvcurveto
          -34 -18 -135 -77 -55 vvcurveto
          -19 6 -26 51 16 21 2 7 27 vhcurveto
          -42 -155 -79 -223 -112 vvcurveto
          64 33 rlineto
          89 72 212 39 161 vhcurveto
          112 15 29 47 -130 -15 rlineto
          hintmask 11101000
          192 416 rmoveto
          31 10 -20 -23 -1 hvcurveto
          -3 -66 -135 -99 -45 -28 rrcurveto
          107 35 10 129 98 hhcurveto
          -243 -421 rmoveto
          -41 -18 12 14 16 29 24 52 22 hvcurveto
          endchar
        </CharString>
        <CharString name="five">
          -11 3 50 184 48 138 60 hstem
          262 90 vstem
          268 416 rmoveto
          7 57 32 0 30 hhcurveto
          22 11 0 -1 13 hvcurveto
          4 61 rlineto
          -47 hlineto
          -47 -63 -2 -17 -71 hvcurveto
          -45 -11 -10 -24 -22 -32 rrcurveto
          -18 -35 -44 -65 -24 vvcurveto
          -19 13 -17 44 82 53 -32 -42 -62 -67 -48 -73 -31 -47 17 19 -16 vhcurveto
          -42 -38 rlineto
          -31 24 48 -17 60 hhcurveto
          116 118 73 94 66 -74 49 -90 -16 -14 -1 -2 -18 hvcurveto
          9 24 47 74 15 22 15 4 16 7 26 3 rrcurveto
          endchar
        </CharString>
        <CharString name="florin">
          228 -125 41 272 69 304 47 hstemhm
          572 63 vstemhm
          549 608 rmoveto
          -105 -121 -92 -259 -87 hvcurveto
          -73 -43 -5 -31 -37 hvcurveto
          26 -46 rlineto
          15 30 27 4 21 hhcurveto
          9 7 -1 -1 7 hvcurveto
          -148 -56 -74 -128 -98 hhcurveto
          -28 -29 14 16 -42 hvcurveto
          -19 -33 rlineto
          -21 38 58 -17 45 hhcurveto
          141 56 87 228 82 hvcurveto
          -2 23 20 0 17 hhcurveto
          100 16 26 16 22 hvcurveto
          -22 39 rlineto
          -14 -33 -20 -3 -25 hhcurveto
          -17 -20 1 2 -35 hvcurveto
          125 44 82 181 88 hhcurveto
          25 22 -18 -23 1 hvcurveto
          1 -53 -50 -36 -81 -28 rrcurveto
          hintmask 11110000
          9 -33 rlineto
          93 4 91 100 69 vvcurveto
          38 -37 27 -49 vhcurveto
          endchar
        </CharString>
        <CharString name="four">
          -9 29 -21 497 -20 hstem
          371 176 rmoveto
          6 4 10 59 1 5 rrcurveto
          1 -8 -11 1 -11 hhcurveto
          -18 -31 -1 -1 -17 hvcurveto
          -1 28 83 52 85 vhcurveto
          22 35 1 11 9 vvcurveto
          23 -15 16 -23 -56 -293 -223 -68 -12 vhcurveto
          -1 -4 0 -3 -4 vvcurveto
          -27 15 -29 33 11 43 13 8 91 vhcurveto
          -1 -4 -28 -68 -56 vvcurveto
          -11 1 -11 3 -10 vhcurveto
          58 9 12 84 21 57 9 16 rlinecurve
          9 1 61 0 38 1 rrcurveto
          -158 61 rmoveto
          -32 -3 -55 -8 -68 -12 38 60 129 115 82 42 -28 -52 -52 -104 -14 -38 rrcurveto
          endchar
        </CharString>
        <CharString name="fraction">
          159 36 -21 495 -20 hstem
          533 510 rmoveto
          -197 -138 -189 -155 -149 -173 37 -29 rcurveline
          160 172 184 163 186 126 rrcurveto
          endchar
        </CharString>
        <CharString name="g">
          54 -385 18 callsubr
          300 -20 hstemhm
          13 83 -48 93 hintmask 11101000
          441 -94 callsubr
          hintmask 11110000
          -86 callsubr
          endchar
        </CharString>
        <CharString name="gbreve">
          74 -385 18 callsubr
          336 47 51 -20 hstemhm
          23 83 -48 93 hintmask 11110100
          451 -94 callsubr
          hintmask 11111000
          -86 callsubr
          103 554 -100 callgsubr
        </CharString>
        <CharString name="gcircumflex">
          44 -385 18 callsubr
          474 -20 hstemhm
          8 83 -48 93 hintmask 11101000
          -44 callgsubr
          hintmask 11110000
          -86 callsubr
          -135 483 -104 callgsubr
        </CharString>
        <CharString name="gdotaccent">
          44 -385 18 callsubr
          334 79 hstemhm
          8 83 -48 93 149 79 hintmask 11101100
          -44 callgsubr
          hintmask 11110100
          -86 callsubr
          -7 496 -103 callgsubr
          endchar
        </CharString>
        <CharString name="germandbls">
          -43 -8 53 420 61 hstem
          202 55 45 56 vstem
          228 253 rmoveto
          100 88 30 48 62 vvcurveto
          46 -28 29 -42 -33 -23 -11 -38 -27 vhcurveto
          -39 -56 -125 -370 -6 -38 16 -3 12 -4 18 -3 rrcurveto
          240 65 71 222 59 hhcurveto
          15 11 -15 -21 -47 -20 -30 -79 -81 hvcurveto
          -37 -38 -11 -23 -27 -20 47 -76 -17 vvcurveto
          -19 -10 -6 -12 -16 -20 10 7 -10 vhcurveto
          -16 -47 rlineto
          -11 13 25 -12 20 hhcurveto
          48 33 32 45 26 -2 4 -29 45 hvcurveto
          -21 31 -7 21 12 vvcurveto
          1 13 8 14 21 18 rrcurveto
          endchar
        </CharString>
        <CharString name="grave">
          -199 415 -21 96 -20 hstem
          163 394 -64 callsubr
        </CharString>
        <CharString name="greater">
          -172 70 -21 432 -20 hstem
          220 282 rmoveto
          -67 101 -78 98 0 vvcurveto
          -32 -54 26 -45 30 -38 41 -65 rlinecurve
          0 -126 -176 -9 -31 vhcurveto
          32 -23 183 233 rlineto
          endchar
        </CharString>
        <CharString name="greaterequal">
          -172 100 -21 414 -20 hstem
          196 351 -45 callgsubr
          rlineto
          157 -27 12 callgsubr
        </CharString>
        <CharString name="guillemotleft">
          -13 142 -21 306 -20 hstem
          176 121 rmoveto
          -62 callsubr
          159 hmoveto
          -62 callsubr
          endchar
        </CharString>
        <CharString name="guillemotright">
          -3 143 -21 309 -20 hstem
          195 289 -45 callgsubr
          rlineto
          311 167 -45 callgsubr
          rlineto
          endchar
        </CharString>
        <CharString name="guilsinglleft">
          -168 142 -21 306 -20 hstem
          176 121 rmoveto
          -62 callsubr
          endchar
        </CharString>
        <CharString name="guilsinglright">
          -172 143 -21 309 -20 hstem
          195 289 -45 callgsubr
          131 167 rlineto
          endchar
        </CharString>
        <CharString name="h">
          38 -16 62 225 87 369 -20 hstemhm
          252 70 -13 87 hintmask 11101000
          396 -58 callgsubr
          endchar
        </CharString>
        <CharString name="hbar">
          28 -16 62 225 87 137 60 172 -20 hstemhm
          247 70 -13 87 hintmask 11110100
          347 565 rmoveto
          -99 -9 25 54 25 50 24 51 rlinecurve
          -49 16 -26 -51 -29 -58 -29 -63 rlinecurve
          -46 -2 -61 -9 -36 -7 13 -46 rcurveline
          105 8 -68 -152 -66 -170 -29 -149 rlinecurve
          59 -21 rlineto
          140 58 99 124 53 hhcurveto
          25 9 -11 -18 hvcurveto
          hintmask 11111000
          -49 -57 -90 -62 vvcurveto
          -33 15 -24 43 44 33 17 53 32 vhcurveto
          hintmask 11110100
          -23 19 rlineto
          -17 -21 -13 -10 -13 hhcurveto
          hintmask 11111000
          -20 -7 12 18 hvcurveto
          hintmask 11110100
          55 74 110 64 vvcurveto
          30 -21 23 -47 -57 -68 -44 -181 -110 vhcurveto
          42 148 46 116 47 104 124 11 rcurveline
          endchar
        </CharString>
        <CharString name="hcircumflex">
          28 -16 62 225 87 369 -20 hstemhm
          247 70 -13 87 hintmask 11101000
          391 -58 callgsubr
          hintmask 11101000
          -213 359 -104 callgsubr
        </CharString>
        <CharString name="hungarumlaut">
          -91 417 -21 112 -20 hstem
          169 483 -23 callgsubr
        </CharString>
        <CharString name="hyphen">
          -192 238 -21 76 -20 hstem
          206 293 rmoveto
          -76 -3 -71 -5 8 callgsubr
          207 29 rlineto
          endchar
        </CharString>
        <CharString name="i">
          -127 1 74 349 104 hstem
          30 62 66 100 vstem
          214 424 -12 callsubr
          -13 -295 -53 callgsubr
        </CharString>
        <CharString name="iacute">
          -107 1 74 428 -20 hstem
          40 62 vstem
          211 129 -97 callgsubr
          42 351 -80 callgsubr
        </CharString>
        <CharString name="ibreve">
          -107 1 74 338 47 51 -20 hstem
          40 62 vstem
          211 129 -97 callgsubr
          16 396 -100 callgsubr
        </CharString>
        <CharString name="icircumflex">
          -107 1 74 452 -20 hstem
          40 62 vstem
          211 129 -97 callgsubr
          -213 301 -104 callgsubr
        </CharString>
        <CharString name="idieresis">
          -107 1 74 337 79 hstemhm
          40 62 -42 79 48 79 hintmask 11101000
          211 129 -97 callgsubr
          hintmask 11011000
          -171 339 -101 callsubr
        </CharString>
        <CharString name="igrave">
          -107 1 74 428 -20 hstem
          40 62 vstem
          217 407 rmoveto
          29 18 -132 78 -68 -40 rlineto
          165 -334 -53 callgsubr
        </CharString>
        <CharString name="ij">
          246 -278 92 43 74 349 104 172 110 hstemhm
          35 62 26 84 -44 100 302 101 hintmask 11111011
          559 141 rmoveto
          -85 -23 12 80 73 207 32 72 rlinecurve
          -50 16 -7 -33 -60 -129 -62 -234 rlinecurve
          -114 -40 -82 -50 -47 -59 rrcurveto
          -14 -17 -10 -3 -11 hhcurveto
          -18 -16 13 26 40 57 147 25 45 hvcurveto
          -43 26 rlineto
          -28 -58 -73 -122 -113 vvcurveto
          hintmask 11111101
          19 callgsubr
          11 13 4 6 13 vhcurveto
          -4 -14 -1 -15 -15 vvcurveto
          -62 36 -39 60 126 73 132 228 47 vhcurveto
          41 16 47 12 8 2 rrcurveto
          2 -1 18 -1 9 vhcurveto
          -151 -83 rmoveto
          -139 -32 -60 -105 -61 hhcurveto
          -29 -19 19 29 97 108 54 93 45 hvcurveto
          217 498 rmoveto
          29 12 35 24 31 -23 20 -22 -33 -23 -30 -32 -30 24 -18 36 hvcurveto
          -406 -276 -12 callsubr
          endchar
        </CharString>
        <CharString name="imacron">
          -107 1 74 351 39 hstem
          40 62 vstem
          211 129 -97 callgsubr
          6 353 -68 callgsubr
        </CharString>
        <CharString name="iogonek">
          -137 -197 77 121 74 349 104 hstemhm
          13 86 -74 62 66 100 hintmask 11110100
          224 -79 -49 callsubr
          20 37 74 39 29 hvcurveto
          -27 3 26 20 25 30 17 32 rlinecurve
          -20 17 rlineto
          -47 -42 -16 -7 -17 hhcurveto
          -18 -16 13 26 40 57 147 25 45 hvcurveto
          hintmask 11101100
          -43 26 rlineto
          -28 -58 -73 -122 -113 vvcurveto
          19 callgsubr
          4 5 1 1 5 vhcurveto
          -38 -39 -44 -63 -52 -60 callsubr
          -35 519 rmoveto
          28 16 32 24 hvcurveto
          hintmask 11110100
          31 -24 17 -23 -34 -19 -27 -32 -30 20 -15 36 vhcurveto
          endchar
        </CharString>
        <CharString name="itilde">
          -107 1 74 331 48 21 49 hstem
          40 62 vstem
          211 129 -97 callgsubr
          26 385 -96 callgsubr
        </CharString>
        <CharString name="j">
          8 -278 92 742 110 hstem
          -120 84 358 101 vstem
          316 141 -74 callgsubr
          217 498 rmoveto
          29 12 35 24 31 -23 20 -22 -33 -23 -30 -32 -30 24 -18 36 hvcurveto
          endchar
        </CharString>
        <CharString name="jcircumflex">
          -2 -278 92 830 -20 hstem
          -125 84 vstem
          175 530 rmoveto
          44 -24 rlineto
          0 55 42 44 28 vhcurveto
          10 -7 50 -31 43 -26 30 24 rcurveline
          -21 22 -108 86 0 vvcurveto
          -11 -503 -74 callgsubr
          endchar
        </CharString>
        <CharString name="k">
          58 -15 75 678 -20 hstem
          336 84 vstem
          414 102 -57 callsubr
        </CharString>
        <CharString name="kgreenlandic">
          59 -6 75 0 248 89 -20 hstemhm
          hintmask 01100000
          -69 callsubr
          hintmask 10100000
          3 callgsubr
          endchar
        </CharString>
        <CharString name="l">
          -124 -21 75 718 -20 hstem
          6 69 vstem
          166 96 rmoveto
          -77 callsubr
          endchar
        </CharString>
        <CharString name="lacute">
          -21 -21 75 612 -20 126 -20 hstem
          16 69 220 88 vstem
          176 96 rmoveto
          -77 callsubr
          155 587 rmoveto
          -106 callsubr
          endchar
        </CharString>
        <CharString name="lcaron">
          -21 -21 75 612 -20 126 -20 hstem
          16 69 220 88 vstem
          176 96 rmoveto
          -77 callsubr
          155 587 rmoveto
          -106 callsubr
          endchar
        </CharString>
        <CharString name="ldot">
          -75 -21 75 207 92 419 -20 hstem
          -2 69 117 92 vstem
          158 96 rmoveto
          -77 callsubr
          5 228 -17 callsubr
        </CharString>
        <CharString name="less">
          -147 74 -21 406 -20 hstem
          232 53 rmoveto
          13 54 rlineto
          0 -121 113 -37 59 vhcurveto
          10 13 116 107 37 33 -23 27 rcurveline
          -24 -12 -195 -171 0 vvcurveto
          0 200 -213 24 -10 vhcurveto
          endchar
        </CharString>
        <CharString name="lessequal">
          -168 100 -21 420 -20 hstem
          179 193 rmoveto
          -62 callsubr
          43 -36 12 callgsubr
        </CharString>
        <CharString name="lslash">
          -104 -21 75 718 -20 hstem
          16 69 vstem
          294 407 rmoveto
          -31 -1 -43 -1 -43 -3 50 120 63 128 51 98 -44 24 rcurveline
          -59 -107 -64 -139 -53 -128 -47 -4 -44 -6 -27 -5 11 -52 rcurveline
          85 9 rlineto
          -49 -125 -34 -108 -44 vvcurveto
          -48 28 -36 40 42 30 36 64 41 vhcurveto
          -21 17 rlineto
          -27 -18 -21 -15 -17 hhcurveto
          -24 -11 17 30 52 29 91 40 102 hvcurveto
          140 16 rlineto
          endchar
        </CharString>
        <CharString name="m">
          327 34 callgsubr
          324 81 109 77 -9 84 hintmask 10101100
          687 -71 callgsubr
        </CharString>
        <CharString name="macron">
          -228 426 39 -21 -21 hstemhm
          hintmask 10000000
          247 465 rmoveto
          -69 -2 -67 1 -50 -10 rrcurveto
          hintmask 01000000
          9 -31 177 6 rlineto
          endchar
        </CharString>
        <CharString name="mu">
          94 -160 -21 183 79 -79 98 293 -20 hstemhm
          145 159 0 69 hintmask 11010100
          466 123 rmoveto
          -83 callgsubr
          hintmask 10111000
          -33 callsubr
          -32 -26 -63 -162 -32 -126 rlinecurve
          -22 -87 -20 -81 -13 -83 64 13 rcurveline
          12 62 20 88 12 54 rrcurveto
          -3 7 13 -31 29 hhcurveto
          46 48 59 104 66 hvcurveto
          -43 callsubr
          -63 callgsubr
          endchar
        </CharString>
        <CharString name="multiply">
          -134 109 -21 321 -20 hstem
          66 206 rmoveto
          79 63 82 -65 33 34 -72 65 76 60 -30 46 -26 -17 -31 -26 -32 -26 rlinecurve
          -30 26 -31 25 -25 17 -30 -47 rcurveline
          74 -58 -24 -21 -23 -21 -19 -18 rlinecurve
          219 -78 rmoveto
          -76 -3 -84 -6 8 callgsubr
          220 30 rlineto
          endchar
        </CharString>
        <CharString name="n">
          69 2 callgsubr
          22 -20 hstemhm
          253 78 -9 84 hintmask 10111000
          429 121 -51 callgsubr
          hintmask 01110100
          -81 callsubr
          hintmask 10111000
          -54 callsubr
          endchar
        </CharString>
        <CharString name="nacute">
          89 2 callgsubr
          125 -30 callgsubr
          hintmask 01110100
          20 80 34 13 callsubr
          -56 -163 -27 -162 60 -21 rcurveline
          168 74 71 133 74 hhcurveto
          21 18 -18 -19 hvcurveto
          -54 callsubr
          -40 358 20 callgsubr
        </CharString>
        <CharString name="napostrophe">
          59 2 callgsubr
          183 -20 hstemhm
          248 78 -78 92 -23 84 hintmask 10110100
          299 561 rmoveto
          -106 callsubr
          125 -440 rmoveto
          -18 -20 -28 -30 -17 hhcurveto
          hintmask 10111000
          -18 -15 15 15 14 6 22 35 74 hvcurveto
          hintmask 01110010
          -81 callsubr
          hintmask 10111000
          -54 callsubr
          endchar
        </CharString>
        <CharString name="ncaron">
          89 2 callgsubr
          162 -30 callgsubr
          20 80 34 -28 callgsubr
          hintmask 01110100
          -37 -60 -56 -163 -27 -162 60 -21 rcurveline
          168 74 71 133 74 hhcurveto
          21 18 -18 -19 hvcurveto
          -54 callsubr
          -149 297 rmoveto
          0 108 86 21 22 vhcurveto
          hintmask 10111000
          -17 callgsubr
        </CharString>
        <CharString name="nine">
          -30 5 248 -69 69 197 48 hstemhm
          23 79 231 81 hintmask 01111000
          113 184 rmoveto
          54 66 13 61 81 hvcurveto
          -70 -159 -133 -30 -106 -24 rrcurveto
          hintmask 10111000
          5 -40 rlineto
          9 hlineto
          168 227 162 215 83 -52 33 -80 -100 -159 -116 -113 hvcurveto
          hintmask 01111000
          -51 38 -34 52 vhcurveto
          149 266 rmoveto
          38 33 -27 -43 -76 -92 -51 -66 -42 -31 22 38 67 92 70 68 hvcurveto
          endchar
        </CharString>
        <CharString name="ntilde">
          89 2 callgsubr
          28 48 21 49 hstemhm
          263 78 -9 84 hintmask 10111100
          -22 callgsubr
          hintmask 01111010
          -81 callsubr
          hintmask 10111100
          -54 callsubr
          -105 392 -96 callgsubr
        </CharString>
        <CharString name="numbersign">
          180 14 -21 199 52 115 57 214 -20 hstem
          536 251 rmoveto
          -41 -3 -46 -2 -48 -2 37 123 rcurveline
          43 2 42 4 38 4 10 46 rcurveline
          -34 -2 -40 -4 -43 -1 23 73 23 70 20 53 -45 18 rcurveline
          -19 -54 -26 -77 -28 -86 -40 -3 -42 -1 -44 -1 25 76 23 69 20 53 -45 19 rcurveline
          -19 -54 -27 -78 -27 -86 rrcurveto
          -151 hlineto
          -10 -48 rlineto
          145 hlineto
          -11 -39 -11 -40 -12 -40 rrcurveto
          -49 -47 1 -38 hhcurveto
          -10 -47 rlineto
          -1 37 44 -1 50 hhcurveto
          -19 -70 -16 -70 -11 -59 49 13 rcurveline
          10 50 17 66 19 70 rrcurveto
          126 hlineto
          -18 -67 -16 -67 -10 -60 49 12 rcurveline
          9 50 16 66 20 70 47 2 47 1 45 4 rrcurveto
          -301 37 rmoveto
          35 120 rlineto
          42 42 2 2 43 hvcurveto
          -13 -39 -11 -42 -12 -41 rrcurveto
          endchar
        </CharString>
        <CharString name="o">
          -64 -7 callgsubr
          hstem
          10 5 callgsubr
          295 -102 callgsubr
          endchar
        </CharString>
        <CharString name="oacute">
          -44 -7 callgsubr
          123 -20 hstem
          20 5 callgsubr
          305 -102 callgsubr
          1 152 -80 callgsubr
        </CharString>
        <CharString name="obreve">
          -74 -7 callgsubr
          48 47 51 -20 hstem
          5 5 callgsubr
          290 -102 callgsubr
          23 212 -100 callgsubr
        </CharString>
        <CharString name="ocircumflex">
          -44 -7 callgsubr
          155 -20 hstem
          20 5 callgsubr
          305 -102 callgsubr
          -237 110 -104 callgsubr
        </CharString>
        <CharString name="odieresis">
          -44 -7 callgsubr
          40 79 hstemhm
          20 81 10 79 48 79 -45 59 hintmask 11111010
          305 -102 callgsubr
          -194 148 -103 callgsubr
          hintmask 11111100
          -39 callgsubr
        </CharString>
        <CharString name="oe">
          211 -7 callgsubr
          -34 52 hstemhm
          0 81 457 73 hintmask 10111000
          530 123 rmoveto
          -42 -63 -27 -7 -27 hhcurveto
          -25 -30 17 32 -12 hvcurveto
          169 60 96 78 71 vvcurveto
          45 -42 7 -24 -85 -96 -60 -75 -59 vhcurveto
          -4 17 -7 15 -9 16 -52 -16 rcurveline
          12 -25 7 -30 -30 vvcurveto
          -63 -29 -61 -65 -47 -30 39 57 96 80 68 106 vhcurveto
          -3 33 rlineto
          hintmask 11011000
          -27 callsubr
          -123 -117 -120 -126 -79 45 -47 78 54 49 28 42 34 hvcurveto
          -37 17 37 -22 50 hhcurveto
          67 81 43 57 41 hvcurveto
          -212 48 rmoveto
          86 11 91 94 62 hhcurveto
          18 15 -15 -18 -48 -92 -63 -105 -36 hvcurveto
          endchar
        </CharString>
        <CharString name="ogonek">
          -176 -197 77 152 -20 hstem
          -6 86 vstem
          205 -79 -49 callsubr
          20 37 74 39 29 hvcurveto
          -45 5 rlineto
          -39 -25 -78 -89 -69 -11 callsubr
        </CharString>
        <CharString name="ograve">
          -44 -7 callgsubr
          124 -20 hstem
          20 5 callgsubr
          305 -102 callgsubr
          -31 97 -64 callsubr
        </CharString>
        <CharString name="ohungarumlaut">
          -44 -7 callgsubr
          148 -20 hstem
          20 5 callgsubr
          305 -102 callgsubr
          -50 192 -23 callgsubr
        </CharString>
        <CharString name="omacron">
          -74 -7 callgsubr
          71 39 hstem
          5 5 callgsubr
          290 -102 callgsubr
          15 179 -68 callgsubr
        </CharString>
        <CharString name="one">
          -177 29 -21 363 56 90 -20 hstem
          -7 70 vstem
          231 473 rmoveto
          2 4 0 4 4 vvcurveto
          20 -23 12 -15 -8 -9 -5 -14 -10 vhcurveto
          -41 -29 -47 -30 -44 hhcurveto
          -8 -8 1 2 -8 hvcurveto
          -22 -51 rlineto
          -5 13 14 -3 14 hhcurveto
          18 20 4 11 28 hvcurveto
          -115 -234 -1 -65 -26 vvcurveto
          -23 3 -22 3 -8 vhcurveto
          64 10 7 145 79 149 41 74 rlinecurve
          34 63 5 13 2 11 rrcurveto
          endchar
        </CharString>
        <CharString name="oslash">
          -4 -69 -21 105 -21 487 -20 hstem
          40 81 45 37 89 59 vstem
          200 -80 rmoveto
          24 1 27 2 28 vhcurveto
          85 21 63 88 101 vvcurveto
          18 -8 48 -18 22 vhcurveto
          -52 -16 rlineto
          10 -45 9 -24 -27 vvcurveto
          -59 -36 -47 -47 -6 vhcurveto
          8 78 14 88 22 86 rrcurveto
          4 17 18 3 19 hhcurveto
          -3 33 rlineto
          1 -7 -9 0 -8 -6 -5 -1 -6 hhcurveto
          10 36 12 36 13 35 -39 9 rcurveline
          -14 -44 -11 -40 -10 -39 rrcurveto
          -100 -29 -84 -103 -106 vvcurveto
          -79 45 -47 78 vhcurveto
          8 hlineto
          -2 -26 -2 -28 -1 -30 rrcurveto
          -45 258 rmoveto
          65 36 52 56 27 vhcurveto
          -17 -76 -11 -74 -8 -87 rrcurveto
          -35 10 -21 35 48 vvcurveto
          endchar
        </CharString>
        <CharString name="oslashacute">
          -74 -105 -21 120 78 649 -20 hstem
          5 5 callgsubr
          402 721 rmoveto
          -103 -137 -86 -125 -80 -126 rrcurveto
          -74 -44 -54 -83 -86 vvcurveto
          -41 -74 -41 -76 -43 -83 44 -13 rcurveline
          32 63 32 59 31 57 rrcurveto
          -38 19 37 -21 53 hhcurveto
          103 85 102 106 32 -8 33 -18 30 hvcurveto
          -52 -16 rlineto
          12 -25 7 -30 -30 vvcurveto
          -63 -29 -61 -65 -47 -30 39 57 vhcurveto
          3 vlineto
          27 46 27 45 28 44 rrcurveto
          17 29 36 9 39 hhcurveto
          -3 33 rlineto
          -27 callsubr
          -14 -14 -2 -3 -14 hvcurveto
          71 109 77 110 90 120 rrcurveto
          -403 -229 rmoveto
          -29 18 132 78 68 -40 rlineto
          endchar
        </CharString>
        <CharString name="otilde">
          -44 -7 callgsubr
          41 48 21 49 hstem
          20 5 callgsubr
          305 -102 callgsubr
          10 201 -96 callgsubr
        </CharString>
        <CharString name="p">
          100 26 callgsubr
          123 55 216 83 vstem
          397 -59 callsubr
        </CharString>
        <CharString name="parenleft">
          -147 -115 -21 812 -20 hstem
          22 47 vstem
          263 676 rmoveto
          -156 -176 -85 -277 -273 vvcurveto
          -29 1 -29 2 -28 vhcurveto
          44 hlineto
          296 63 258 171 234 vhcurveto
          endchar
        </CharString>
        <CharString name="parenright">
          -182 -115 -21 812 -20 hstem
          186 47 vstem
          -8 -136 rmoveto
          156 176 85 277 273 vvcurveto
          29 -1 29 -2 28 vhcurveto
          -44 hlineto
          -296 -63 -258 -171 -234 vhcurveto
          endchar
        </CharString>
        <CharString name="percent">
          147 0 callgsubr
          hintmask 1011111110000000
          -64 callgsubr
          hintmask 0111111110000000
          21 callgsubr
          endchar
        </CharString>
        <CharString name="period">
          -264 -6 82 hstem
          -1 82 vstem
          -1 35 rmoveto
          -29 callsubr
          endchar
        </CharString>
        <CharString name="periodcentered">
          -323 278 92 hstem
          -10 92 vstem
          -10 324 -17 callsubr
        </CharString>
        <CharString name="perthousand">
          216 0 callgsubr
          7 50 97 50 hintmask 1011111111100000
          -64 callgsubr
          hintmask 0111111111100000
          21 callgsubr
          -36 -302 rmoveto
          -65 -57 -51 -58 hvcurveto
          hintmask 1011111111100000
          -40 26 -22 47 66 58 54 54 38 -30 25 -45 vhcurveto
          6 -120 rmoveto
          -15 -12 -15 -8 -16 hhcurveto
          -21 -14 17 25 38 28 39 33 22 14 -17 -28 -19 -7 -18 -12 -14 hvcurveto
          endchar
        </CharString>
        <CharString name="plus">
          -134 154 -21 263 -20 hstem
          145 133 -20 callsubr
          endchar
        </CharString>
        <CharString name="plusminus">
          -134 116 -21 368 -20 hstem
          146 200 -20 callsubr
          160 -35 rmoveto
          -76 -3 -103 1 8 callgsubr
          239 23 rlineto
          endchar
        </CharString>
        <CharString name="q">
          27 -327 -21 352 87 258 35 hstem
          12 90 vstem
          164 -348 rmoveto
          25 151 131 281 94 189 -39 22 rcurveline
          -55 -73 -80 -149 -75 hhcurveto
          -16 -29 6 47 118 154 84 115 3 hvcurveto
          -9 35 rlineto
          -179 -171 -146 -147 -55 26 -32 49 50 62 29 148 110 hvcurveto
          -108 -238 -91 -213 -56 vvcurveto
          endchar
        </CharString>
        <CharString name="question">
          26 8 80 461 85 hstem
          60 88 211 103 vstem
          352 634 rmoveto
          -100 -171 -99 -139 hvcurveto
          38 -5 rlineto
          111 31 87 47 74 hhcurveto
          30 18 -17 -29 -30 -12 -18 -64 -65 hvcurveto
          -96 -98 -54 -73 -13 -46 38 -17 rcurveline
          4 6 5 8 6 12 31 62 50 47 53 45 65 55 rcurveline
          63 53 27 44 50 vvcurveto
          57 -45 39 -65 vhcurveto
          -244 -546 rmoveto
          -28 -20 -18 -25 -24 15 -13 26 27 20 19 27 20 -16 14 -24 hvcurveto
          endchar
        </CharString>
        <CharString name="questiondown">
          46 8 85 461 80 hstem
          70 103 211 88 vstem
          180 8 rmoveto
          100 171 99 139 hvcurveto
          -38 5 rlineto
          -111 -31 -87 -47 -74 hhcurveto
          -30 -18 17 29 30 12 18 64 65 hvcurveto
          96 98 54 73 13 46 -38 17 rcurveline
          -4 -6 -5 -8 -6 -12 -31 -62 -50 -47 -53 -45 -65 -55 rcurveline
          -63 -53 -27 -44 -50 vvcurveto
          -57 45 -39 65 vhcurveto
          244 546 rmoveto
          28 20 18 25 24 -15 13 -26 -27 -20 -19 -27 -20 16 -14 24 hvcurveto
          endchar
        </CharString>
        <CharString name="quotedbl">
          -375 509 -21 151 -20 hstem
          94 612 rmoveto
          -56 27 -58 -151 rlineto
          32 hlineto
          176 122 30 callgsubr
        </CharString>
        <CharString name="quotedblbase">
          -107 -44 31 callsubr
          8 88 44 -14 callgsubr
          132 hmoveto
          -106 callsubr
          endchar
        </CharString>
        <CharString name="quotedblleft">
          -204 545 -21 143 -20 hstem
          21 88 33 88 vstem
          62 526 -57 callgsubr
          121 -2 -57 callgsubr
          endchar
        </CharString>
        <CharString name="quotedblright">
          -231 545 -21 141 -20 22 -20 hstemhm
          -26 88 33 88 hintmask 11011000
          142 665 rmoveto
          -26 1 -21 -20 -24 vvcurveto
          -16 15 -11 16 -5 vhcurveto
          -5 -8 -21 -14 -15 -12 22 -32 rcurveline
          47 34 29 32 33 vvcurveto
          26 -16 16 -25 vhcurveto
          hintmask 10111000
          -121 2 rmoveto
          -106 callsubr
          endchar
        </CharString>
        <CharString name="quoteleft">
          -326 547 31 callsubr
          21 88 vstem
          62 526 -57 callgsubr
          endchar
        </CharString>
        <CharString name="quoteright">
          -352 545 31 callsubr
          -26 88 vstem
          21 665 rmoveto
          -106 callsubr
          endchar
        </CharString>
        <CharString name="quotesinglbase">
          -241 -44 31 callsubr
          8 -14 callgsubr
          endchar
        </CharString>
        <CharString name="quotesingle">
          -342 509 -21 147 -20 hstem
          95 610 30 callgsubr
        </CharString>
        <CharString name="r">
          -40 23 -21 268 84 33 -20 hstemhm
          102 56 -56 245 hintmask 11110000
          290 -67 callsubr
          hintmask 11101000
          -4 callsubr
          endchar
        </CharString>
        <CharString name="racute">
          -20 23 -21 268 84 138 -20 hstemhm
          112 56 -56 245 hintmask 11101000
          300 -67 callsubr
          -4 callsubr
          84 98 rmoveto
          -68 40 rlineto
          hintmask 11110000
          27 callgsubr
        </CharString>
        <CharString name="rcaron">
          -20 23 -21 268 84 174 -20 hstemhm
          112 56 -56 245 hintmask 11101000
          300 -67 callsubr
          -4 callsubr
          -46 36 rmoveto
          0 108 86 21 22 vhcurveto
          hintmask 11110000
          -17 callgsubr
        </CharString>
        <CharString name="registered">
          100 1 53 -53 169 318 35 hstemhm
          1 83 142 165 -57 57 26 76 hintmask 01110110
          362 523 rmoveto
          -19 callsubr
          77 -51 49 -80 hvcurveto
          -13 -344 rmoveto
          -5 -7 -7 -4 -4 hhcurveto
          -24 -24 22 39 -5 hvcurveto
          -1 8 rlineto
          40 10 74 39 57 vvcurveto
          30 -18 20 -28 vhcurveto
          -35 -1 -50 -20 -52 -82 -25 -39 rcurveline
          14 53 16 50 16 46 rrcurveto
          -36 hlineto
          -43 -121 -37 -120 -19 vvcurveto
          41 -16 40 105 54 105 60 6 rlinecurve
          16 10 -12 -14 hvcurveto
          hintmask 10111010
          -54 -108 7 -40 vvcurveto
          -36 38 -67 36 -9 vhcurveto
          -38 -36 -41 -25 -39 hhcurveto
          -3 callgsubr
          -59 -27 -75 -41 -63 hvcurveto
          endchar
        </CharString>
        <CharString name="ring">
          -269 393 20 -20 125 hstemhm
          -8 38 66 39 hintmask 10110000
          135 470 -23 callsubr
          -31 -21 -30 -21 -15 -9 9 14 vhcurveto
          hintmask 01110000
          32 22 31 23 12 9 -10 -15 vhcurveto
          endchar
        </CharString>
        <CharString name="s">
          -64 24 callsubr
          hstem
          100 84 3 78 vstem
          337 391 rmoveto
          4 callgsubr
          -85 callsubr
          endchar
        </CharString>
        <CharString name="sacute">
          -44 24 callsubr
          113 -20 hstem
          110 84 3 78 vstem
          347 391 rmoveto
          4 callgsubr
          -85 callsubr
          -2 120 -80 callgsubr
        </CharString>
        <CharString name="scaron">
          -44 24 callsubr
          166 -20 hstem
          110 84 3 78 vstem
          347 391 rmoveto
          4 callgsubr
          -85 callsubr
          -124 75 -88 callsubr
        </CharString>
        <CharString name="scedilla">
          -44 -193 27 88 40 38 55 299 45 hstemhm
          110 84 -16 70 -51 78 hintmask 11111010
          188 -38 6 callsubr
          24 51 rlineto
          75 3 50 42 70 44 -81 97 32 vvcurveto
          55 47 11 53 12 15 0 -2 17 vhcurveto
          9 39 rlineto
          4 callgsubr
          -102 -58 -36 -65 hvcurveto
          -54 87 -81 -52 vvcurveto
          -30 -26 -26 -31 -36 -11 24 41 -49 vhcurveto
          -38 -27 24 -45 32 -36 51 -10 rlinecurve
          -13 -25 -27 -56 -13 vvcurveto
          -8 10 -5 5 13 9 7 6 11 vhcurveto
          6 9 10 8 12 hhcurveto
          hintmask 11110100
          15 11 -9 -11 -29 -48 -39 -73 hvcurveto
          -1 -24 rlineto
          -2 9 10 -1 5 hhcurveto
          85 83 61 48 26 -24 20 -36 hvcurveto
          endchar
        </CharString>
        <CharString name="scircumflex">
          -74 24 callsubr
          178 -20 hstem
          95 84 3 78 vstem
          332 391 rmoveto
          4 callgsubr
          -85 callsubr
          -224 111 -104 callgsubr
        </CharString>
        <CharString name="section">
          215 -159 48 -48 227 448 32 138 51 hstemhm
          10 83 25 82 51 73 22 68 36 85 9 75 hintmask 1011111111000000
          438 548 rmoveto
          -1 -15 -32 1 vvcurveto
          120 76 78 72 53 -40 18 -52 -145 -131 -135 -99 -49 32 -12 45 -17 hvcurveto
          -103 -25 -107 -109 -85 vvcurveto
          -56 44 -26 56 -11 vhcurveto
          105 -21 23 -34 -35 vvcurveto
          -68 -102 -66 -82 -40 -29 15 35 71 114 33 0 vhcurveto
          hintmask 0111111111000000
          9 25 rlineto
          -125 -10 -81 -72 -67 vvcurveto
          -55 55 -23 63 119 167 85 125 37 -15 22 -52 34 vhcurveto
          113 34 75 108 78 vvcurveto
          58 -40 25 -85 18 vhcurveto
          -66 14 -20 38 32 vvcurveto
          75 77 62 84 46 13 -19 -27 -51 -48 -37 -58 -4 vhcurveto
          -15 -169 rmoveto
          21 -17 6 -17 -22 vvcurveto
          -84 -84 -77 -84 -47 -35 24 49 78 88 86 79 20 19 -6 -14 17 vhcurveto
          endchar
        </CharString>
        <CharString name="semicolon">
          -279 -44 -21 141 96 0 79 hstemhm
          -7 85 -62 79 hintmask 10101000
          16 211 -103 callgsubr
          hintmask 11010000
          17 -135 rmoveto
          -26 -14 -18 -24 -16 12 -12 16 -5 hvcurveto
          -5 -8 -21 -14 -15 -12 22 -32 rcurveline
          47 34 29 32 33 vvcurveto
          26 -20 16 -25 vhcurveto
          endchar
        </CharString>
        <CharString name="seven">
          -84 23 -21 427 67 hstem
          6 73 vstem
          372 486 rmoveto
          8 -9 -16 2 -38 hhcurveto
          -75 -192 -32 -12 -28 hvcurveto
          12 -64 70 18 110 22 74 1 rlinecurve
          -198 -126 -73 -213 -3 -88 73 7 rcurveline
          12 168 166 154 102 78 rrcurveto
          24 18 7 10 16 vvcurveto
          13 -6 11 -12 9 vhcurveto
          endchar
        </CharString>
        <CharString name="six">
          6 5 55 199 69 -69 242 hstemhm
          -2 86 226 79 hintmask 11011000
          299 328 rmoveto
          -54 -66 -13 -61 -81 hvcurveto
          72 164 100 21 96 22 rrcurveto
          hintmask 10111000
          -5 40 rlineto
          -150 -1 -213 -151 -219 vvcurveto
          -83 49 -42 80 100 162 125 113 vhcurveto
          hintmask 11011000
          51 -38 34 -52 vhcurveto
          -131 -268 rmoveto
          -46 -38 41 60 9 1 9 2 10 hvcurveto
          41 7 112 29 31 hhcurveto
          42 31 -22 -38 -67 -74 -72 -68 hvcurveto
          endchar
        </CharString>
        <CharString name="slash">
          13 -105 -21 847 -20 hstem
          500 721 rmoveto
          -215 -288 -146 -231 -161 -315 44 -13 rcurveline
          160 311 141 227 216 288 rrcurveto
          endchar
        </CharString>
        <CharString name="space">
          85 endchar
        </CharString>
        <CharString name="sterling">
          159 2 68 -50 -21 221 57 81 249 -49 49 hstemhm
          468 96 hintmask 10101100
          462 89 rmoveto
          -18 -29 -31 -11 -33 hhcurveto
          -11 -137 1 9 -132 hvcurveto
          40 40 23 38 25 72 rrcurveto
          173 49 10 9 25 hvcurveto
          -21 47 rlineto
          -5 -15 -20 -4 -88 hhcurveto
          -23 -27 0 1 -33 hvcurveto
          211 60 69 69 80 hhcurveto
          36 26 -23 -31 -45 -49 -49 -116 -19 hvcurveto
          hintmask 10110100
          1 -12 1 -12 2 -9 rrcurveto
          80 2 177 63 114 vvcurveto
          43 -36 27 -56 -155 -116 -107 -219 -79 vhcurveto
          -97 -45 -28 -25 -23 hvcurveto
          17 -42 rlineto
          24 38 30 14 60 hhcurveto
          -26 -52 -18 -68 -21 -54 rrcurveto
          -6 -9 -4 -10 -6 vvcurveto
          -12 23 -11 39 vhcurveto
          23 28 2 22 hhcurveto
          hintmask 01110100
          72 69 -5 71 hhcurveto
          37 33 5 52 39 hvcurveto
          endchar
        </CharString>
        <CharString name="t">
          -65 4 75 506 -20 hstem
          56 69 vstem
          244 112 rmoveto
          -78 callgsubr
          endchar
        </CharString>
        <CharString name="tbar">
          -75 4 75 506 -20 hstem
          51 69 vstem
          340 505 rmoveto
          -79 -6 13 26 8 18 12 25 rlinecurve
          -43 17 -14 -20 -19 -34 -18 -37 rlinecurve
          -59 -5 -54 -6 -45 -11 17 -45 rcurveline
          112 10 -36 -74 -64 -10 -85 -29 19 4 rlinecurve
          7 -39 26 8 33 9 43 7 rlinecurve
          -58 -136 -5 -68 -28 vvcurveto
          -48 30 -29 48 47 51 30 53 34 vhcurveto
          -22 25 rlineto
          -21 -26 -22 -12 -18 hhcurveto
          -32 -21 23 30 34 18 66 41 92 hvcurveto
          4 30 33 5 30 hhcurveto
          15 13 0 -3 14 hvcurveto
          43 vlineto
          5 -9 -26 3 -28 hhcurveto
          -17 -16 -2 -1 -15 hvcurveto
          31 65 109 10 rlineto
          endchar
        </CharString>
        <CharString name="tcaron">
          38 4 75 507 -20 hstem
          66 69 195 88 vstem
          254 112 rmoveto
          -78 callgsubr
          101 499 rmoveto
          -106 callsubr
          endchar
        </CharString>
        <CharString name="thorn">
          120 -210 -21 231 51 250 80 180 -20 hstem
          135 67 202 83 vstem
          407 381 rmoveto
          -57 -71 -32 -165 -110 hvcurveto
          11 99 22 76 75 vvcurveto
          41 -7 42 -18 44 vhcurveto
          -50 -25 rlineto
          5 -35 3 -36 -35 vvcurveto
          -259 -128 -267 -12 -114 vhcurveto
          60 -21 rlineto
          313 88 93 219 116 hhcurveto
          30 22 -24 -34 -86 -75 -106 -73 -20 -15 3 4 -30 hvcurveto
          -24 -43 rlineto
          -9 15 27 -6 26 hhcurveto
          132 120 150 141 52 -35 38 -45 hvcurveto
          endchar
        </CharString>
        <CharString name="three">
          12 3 50 362 71 hstemhm
          150 203 -92 92 -24 98 hintmask 11001000
          426 393 rmoveto
          1 4 0 3 4 vvcurveto
          45 -50 37 -52 -63 -115 -58 -68 -57 vhcurveto
          16 -33 rlineto
          52 68 70 36 32 hhcurveto
          29 24 -19 -25 hvcurveto
          hintmask 11100000
          -78 -179 5 -41 vvcurveto
          -13 10 -6 13 -4 vhcurveto
          hintmask 11010000
          52 -14 36 -28 -35 vvcurveto
          -60 -80 -44 -76 -23 -36 17 19 -19 vhcurveto
          -45 -42 rlineto
          -23 21 62 -21 55 hhcurveto
          110 123 75 90 39 -38 27 -46 27 hvcurveto
          59 18 86 48 12 66 rrcurveto
          endchar
        </CharString>
        <CharString name="tilde">
          -151 406 48 21 49 hstem
          236 497 -96 callgsubr
        </CharString>
        <CharString name="two">
          18 30 71 -69 -21 408 73 hstemhm
          335 94 hintmask 01110000
          328 492 rmoveto
          -61 -109 -58 -66 -56 hvcurveto
          17 -33 rlineto
          52 63 56 32 48 hhcurveto
          31 18 -16 -24 -45 -56 -39 -33 -17 hvcurveto
          -165 -85 -90 -89 -7 -29 -1 -4 rcurveline
          -23 17 -37 23 vhcurveto
          hintmask 10110000
          15 33 9 10 171 hvcurveto
          88 5 -25 -5 31 6 rrcurveto
          63 vlineto
          2 -16 -14 0 -13 hhcurveto
          -56 -101 -6 -15 -98 hvcurveto
          50 43 63 48 104 53 rrcurveto
          134 68 40 41 67 vvcurveto
          55 -38 37 -63 vhcurveto
          endchar
        </CharString>
        <CharString name="u">
          45 4 callsubr
          387 -20 hstemhm
          12 20 callsubr
          hintmask 10011100
          411 110 rmoveto
          -83 callgsubr
          hintmask 01011100
          -19 callgsubr
          -20 -16 -93 -178 -103 vvcurveto
          -57 18 -23 -24 callsubr
          -43 callsubr
          hintmask 00111100
          -63 callgsubr
          endchar
        </CharString>
        <CharString name="uacute">
          65 -7 75 -75 94 -72 -21 502 -20 hstemhm
          22 20 callsubr
          hintmask 01011100
          -30 callsubr
          -41 callgsubr
          hintmask 00111100
          -48 21 rlineto
          -20 -16 -93 -178 -103 vvcurveto
          -57 18 -23 -24 callsubr
          -43 callsubr
          hintmask 01011100
          -63 callgsubr
          -77 363 rmoveto
          hintmask 10011100
          -68 40 27 callgsubr
        </CharString>
        <CharString name="ubreve">
          35 4 callsubr
          434 47 51 -20 hstemhm
          7 20 callsubr
          hintmask 10011110
          406 110 rmoveto
          -83 callgsubr
          hintmask 01011110
          -19 callgsubr
          -20 -16 -93 -178 -103 vvcurveto
          -57 18 -23 -24 callsubr
          -43 callsubr
          hintmask 00111110
          -63 callgsubr
          -62 429 -100 callgsubr
        </CharString>
        <CharString name="ucircumflex">
          65 4 callsubr
          537 -20 hstemhm
          22 20 callsubr
          hintmask 10011100
          -30 callsubr
          hintmask 01011100
          -19 callgsubr
          -20 -16 -93 -178 -103 vvcurveto
          -57 18 -23 -24 callsubr
          -43 callsubr
          hintmask 00111100
          -63 callgsubr
          -313 323 -104 callgsubr
        </CharString>
        <CharString name="udieresis">
          65 4 callsubr
          421 79 hstemhm
          22 78 79 79 1 69 -22 79 hintmask 10011110
          -30 callsubr
          hintmask 01011110
          -19 callgsubr
          -20 -16 -93 -178 -103 vvcurveto
          -57 18 -23 -24 callsubr
          -43 callsubr
          hintmask 00111101
          -63 callgsubr
          -263 360 -101 callsubr
        </CharString>
        <CharString name="ugrave">
          65 4 callsubr
          500 -20 hstemhm
          22 20 callsubr
          hintmask 10011100
          -30 callsubr
          hintmask 01011100
          -19 callgsubr
          -20 -16 -93 -178 -103 vvcurveto
          -57 18 -23 -24 callsubr
          -43 callsubr
          hintmask 00111100
          -63 callgsubr
          -110 304 -64 callsubr
        </CharString>
        <CharString name="uhungarumlaut">
          65 -7 75 -75 94 -72 -21 529 -20 hstemhm
          22 20 callsubr
          hintmask 01011100
          -30 callsubr
          -19 callgsubr
          -20 -16 -93 -178 -103 vvcurveto
          -57 18 -23 -24 callsubr
          hintmask 00111100
          -43 callsubr
          -63 callgsubr
          -109 405 rmoveto
          hintmask 01011100
          -85 25 -92 -96 41 -14 rlineto
          272 75 rmoveto
          hintmask 10011100
          -69 28 -113 -89 42 -16 rlineto
          endchar
        </CharString>
        <CharString name="umacron">
          35 4 callsubr
          447 39 hstemhm
          7 20 callsubr
          hintmask 10011100
          406 110 rmoveto
          -83 callgsubr
          hintmask 01011100
          -19 callgsubr
          -20 -16 -93 -178 -103 vvcurveto
          -57 18 -23 -24 callsubr
          -43 callsubr
          hintmask 00111100
          -63 callgsubr
          -46 386 -68 callgsubr
        </CharString>
        <CharString name="underscore">
          55 -161 48 hstem
          461 -113 rmoveto
          -486 hlineto
          15 -48 rlineto
          492 hlineto
          endchar
        </CharString>
        <CharString name="uni0122">
          274 -18 callgsubr
          hstem
          -95 105 59 90 248 88 vstem
          454 -89 rmoveto
          -106 callsubr
          66 81 rmoveto
          -35 14 -42 7 -36 4 6 18 8 22 34 92 rrcurveto
          45 39 32 54 36 vvcurveto
          18 -11 11 -18 -37 -37 -64 -89 -34 vhcurveto
          -19 -32 -33 -9 -36 hhcurveto
          -84 -51 53 85 156 142 160 137 59 26 -21 -52 67 hvcurveto
          54 65 rlineto
          34 -31 -71 32 -79 hhcurveto
          -198 -196 -215 -186 -103 73 -77 96 49 46 15 28 42 hvcurveto
          -1 -4 -17 -54 -11 -23 rrcurveto
          1 -12 -12 0 -11 hhcurveto
          -229 -177 -104 -112 -65 62 -50 81 152 127 111 176 65 hvcurveto
          11 -1 43 -7 59 -10 rrcurveto
          -408 -201 rmoveto
          -53 -34 25 40 87 142 69 180 hvcurveto
          -127 -45 -100 -94 -90 hhcurveto
          endchar
        </CharString>
        <CharString name="uni0123">
          44 -385 18 callsubr
          300 57 141 -20 hstemhm
          8 83 -48 93 143 88 hintmask 11110110
          -44 callgsubr
          hintmask 11111010
          -86 callsubr
          28 480 -57 callgsubr
          endchar
        </CharString>
        <CharString name="uni0136">
          392 -171 -21 114 64 553 76 hstem
          -15 90 38 79 172 88 vstem
          411 -51 rmoveto
          -106 callsubr
          408 651 rmoveto
          -95 -151 -144 -149 -161 -59 24 113 37 121 94 71 rrcurveto
          28 21 7 9 13 vvcurveto
          20 -24 6 -36 -193 -243 -106 -131 -60 45 -63 75 -36 vhcurveto
          20 31 rlineto
          -55 36 -6 47 24 vvcurveto
          110 190 69 131 3 vhcurveto
          -78 -55 -34 -34 -55 -205 rrcurveto
          -201 -54 -67 -58 -85 hhcurveto
          -38 -27 24 36 41 34 39 56 40 hvcurveto
          -23 36 rlineto
          -97 -45 -60 -72 -69 vvcurveto
          -55 47 -39 65 122 133 106 186 59 vhcurveto
          -246 68 86 -122 88 hhcurveto
          6 7 0 1 8 hvcurveto
          46 vlineto
          -96 14 -48 149 -32 167 200 110 103 103 81 133 rrcurveto
          endchar
        </CharString>
        <CharString name="uni0137">
          48 -150 -21 156 75 678 -20 hstem
          144 88 99 84 vstem
          191 -30 rmoveto
          -106 callsubr
          218 132 -57 callsubr
        </CharString>
        <CharString name="uni013B">
          176 -162 -21 141 62 67 202 46 226 0 54 hstemhm
          265 88 115 98 hintmask 11101110
          312 -42 rmoveto
          -106 callsubr
          151 158 -96 callsubr
          29 144 -8 14 hhcurveto
          61 29 33 35 30 hvcurveto
          -81 481 rmoveto
          34 25 -24 -31 hvcurveto
          hintmask 11110110
          -76 -115 -85 -135 -10 vhcurveto
          134 31 78 92 82 hhcurveto
          endchar
        </CharString>
        <CharString name="uni013C">
          -134 -185 -21 141 44 0 75 718 -20 hstemhm
          1 69 hintmask 11011000
          39 -65 rmoveto
          -106 callsubr
          122 161 rmoveto
          hintmask 10111000
          -77 callsubr
          endchar
        </CharString>
        <CharString name="uni0145">
          319 -162 -21 141 30 0 81 588 -20 hstemhm
          265 88 31 77 hintmask 11011100
          312 -42 rmoveto
          -106 callsubr
          359 653 -16 callgsubr
          hintmask 10111100
          -84 callgsubr
          22 -59 rcurveline
          9 callgsubr
          -65 callsubr
          -40 callgsubr
          endchar
        </CharString>
        <CharString name="uni0146">
          59 -160 -21 182 72 0 222 0 83 22 -20 hstemhm
          122 88 38 78 -9 84 hintmask 10101110
          169 -40 rmoveto
          -106 callsubr
          255 161 -51 callgsubr
          hintmask 11011101
          -81 callsubr
          hintmask 11011110
          -54 callsubr
          endchar
        </CharString>
        <CharString name="uni0156">
          230 -157 -21 61 80 44 94 460 76 hstemhm
          25 68 85 88 -3 86 197 104 hintmask 11111101
          225 -37 rmoveto
          -106 callsubr
          270 -28 rmoveto
          hintmask 11111011
          -100 callsubr
          endchar
        </CharString>
        <CharString name="uni0157">
          -50 -160 -21 451 84 33 -20 hstemhm
          75 88 -66 245 hintmask 11110000
          122 -40 rmoveto
          -106 callsubr
          163 394 rmoveto
          -45 -56 -58 -125 -69 hvcurveto
          32 112 2 22 4 82 rrcurveto
          hintmask 11101000
          -56 -15 rlineto
          -69 -3 -60 -24 -69 vhcurveto
          -8 -22 -55 -125 0 vvcurveto
          57 -25 rlineto
          112 65 43 156 69 hhcurveto
          17 12 -10 -17 -6 -9 -28 -5 -11 hvcurveto
          24 -19 rlineto
          -4 callsubr
          endchar
        </CharString>
        <CharString name="uni0162">
          165 -146 -21 141 30 0 48 291 63 0 152 0 66 -66 73 9 -20 hstemhm
          25 57 121 88 hintmask 1100100111000000
          250 -26 rmoveto
          -106 callsubr
          391 666 -36 callsubr
          hintmask 1101010011000000
          27 callsubr
          hintmask 1011001011000000
          6 -113 -15 1 -16 -60 callgsubr
          -101 callgsubr
          80 70 34 34 hvcurveto
          hintmask 1100100111000000
          12 callsubr
        </CharString>
        <CharString name="uni0163">
          -75 -177 -21 141 61 0 75 506 -20 hstemhm
          44 76 -76 88 hintmask 11010100
          91 -57 rmoveto
          -106 callsubr
          148 169 rmoveto
          hintmask 10111000
          -78 callgsubr
          endchar
        </CharString>
        <CharString name="uni0218">
          222 -201 -21 29 65 690 75 hstemhm
          -25 100 107 85 123 88 -40 40 -40 90 -60 97 hintmask 1111110000000000
          437 -81 rmoveto
          -106 callsubr
          155 263 rmoveto
          -27 -21 -1 -23 hhcurveto
          -13 45 -30 22 -114 47 rrcurveto
          -84 34 -13 21 44 vvcurveto
          69 107 99 61 vhcurveto
          hintmask 1111100010000000
          23 10 -12 -19 -40 -45 -68 -53 -28 hvcurveto
          -27 callgsubr
          -9 callgsubr
          9 callsubr
          1 callgsubr
          -41 callsubr
          vhcurveto
          hintmask 1111100100000000
          -8 callgsubr
          hvcurveto
          hintmask 1111100010000000
          -55 callsubr
          hintmask 1111101000000000
          -40 callsubr
          endchar
        </CharString>
        <CharString name="uni0219">
          -74 -171 -21 141 51 24 callsubr
          hstemhm
          55 88 -48 84 3 78 hintmask 11011010
          102 -51 rmoveto
          -106 callsubr
          230 442 rmoveto
          4 callgsubr
          hintmask 10110110
          -85 callsubr
          endchar
        </CharString>
        <CharString name="uni0401">
          294 -66 callgsubr
          52 79 hstemhm
          40 102 50 94 -94 187 56 79 -12 98 -57 106 -87 87 hintmask 1110111011010000
          -39 callsubr
          hintmask 1111011010100000
          -97 callsubr
          -37 callsubr
          hintmask 1110111101010000
          -91 callgsubr
          hintmask 1111011101010000
          -69 callgsubr
          hintmask 1111011100100000
          -90 callgsubr
          hintmask 1111011101001000
          -4 560 -101 callsubr
        </CharString>
        <CharString name="uni0402">
          418 -310 89 491 83 -5 14 callsubr
          7 56 33 98 404 61 hintmask 1100011110000000
          616 60 rmoveto
          15 39 28 77 65 vvcurveto
          61 -24 51 -81 -57 -88 -32 -170 -119 vhcurveto
          43 149 63 153 45 102 rrcurveto
          94 123 11 58 10 -8 9 -10 hvcurveto
          hintmask 1101001110000000
          -24 -27 -17 -33 hhcurveto
          hintmask 1010101110000000
          -47 callsubr
          49 140 -9 hvcurveto
          111 -7 -55 -126 -92 -256 -29 -148 rlinecurve
          59 -21 rlineto
          hintmask 1101001110000000
          138 54 117 129 84 hhcurveto
          65 21 -32 -40 -46 -21 -55 -18 -30 hvcurveto
          -188 -28 -275 -127 -122 vvcurveto
          -66 42 -34 62 109 172 104 210 114 vhcurveto
          84 17 rlineto
          39 vlineto
          -147 -50 rmoveto
          -183 -125 -94 -48 -56 hhcurveto
          -42 -21 27 17 67 124 94 214 26 hvcurveto
          endchar
        </CharString>
        <CharString name="uni0403">
          215 32 callsubr
          137 -25 callsubr
          hvcurveto
          hintmask 11101100
          -52 42 -39 57 46 56 26 45 42 vhcurveto
          -101 callgsubr
          80 70 34 34 10 -6 8 -8 hvcurveto
          hintmask 11011100
          -70 77 -80 callgsubr
        </CharString>
        <CharString name="uni0404">
          130 0 79 202 48 81 207 -65 65 hstemhm
          19 80 282 52 3 86 hintmask 11011110
          332 329 rmoveto
          -70 -1 -76 -2 -64 -7 rrcurveto
          117 50 118 116 99 28 callsubr
          hintmask 11101110
          26 callsubr
          -152 -276 -224 -228 11 callsubr
          hvcurveto
          21 callsubr
          -104 -49 66 76 17 2 18 5 17 vhcurveto
          226 16 rlineto
          endchar
        </CharString>
        <CharString name="uni0405">
          252 17 callgsubr
          hstemhm
          -10 0 callsubr
          hintmask 11110100
          607 -73 callgsubr
        </CharString>
        <CharString name="uni0406">
          -8 callsubr
          hstem
          40 102 31 64 vstem
          599 -107 callgsubr
          endchar
        </CharString>
        <CharString name="uni0407">
          -8 callsubr
          60 79 hstem
          40 102 31 64 133 79 48 79 vstem
          599 -107 callgsubr
          -229 102 -101 callsubr
        </CharString>
        <CharString name="uni0408">
          327 -316 68 794 76 hstem
          -80 102 87 70 vstem
          690 -93 callsubr
          endchar
        </CharString>
        <CharString name="uni0409">
          491 -89 -21 41 59 192 60 439 -20 hstem
          339 80 362 98 vstem
          776 242 rmoveto
          -120 -126 -67 -104 -82 hvcurveto
          -21 52 -8 61 63 139 36 149 82 -76 callgsubr
          -10 -131 -1 -139 rrcurveto
          -54 15 -42 20 -33 vhcurveto
          8 -13 -19 -32 -18 -37 -4 -16 rlinecurve
          33 -14 18 20 21 45 4 6 rlinecurve
          -29 callgsubr
        </CharString>
        <CharString name="uni040A">
          596 -12 -21 41 43 -30 48 174 76 238 78 hstemhm
          -1 64 396 94 347 98 hintmask 10111111
          16 21 rmoveto
          130 76 97 178 59 hvcurveto
          64 20 76 24 56 6 rrcurveto
          -10 -41 -8 -43 -33 vvcurveto
          -62 12 -56 30 -45 -88 callgsubr
          hintmask 11011111
          -52 callgsubr
          167 166 120 114 -22 callsubr
          2 callsubr
          3 8 4 6 2 7 -65 37 rcurveline
          -31 -57 -31 -69 -31 -102 -53 -9 -80 -15 -57 -16 21 59 24 62 19 29 rrcurveto
          -25 callgsubr
          -65 -51 -34 -63 -48 -149 rrcurveto
          hintmask 10111111
          -178 -57 -43 -46 -66 hhcurveto
          hintmask 11011111
          666 -18 14 callgsubr
          104 65 31 callgsubr
          -97 -72 -107 hvcurveto
          endchar
        </CharString>
        <CharString name="uni040B">
          265 -9 70 225 84 -25 14 callsubr
          -2 56 373 79 -1 81 hintmask 1100011100000000
          477 552 rmoveto
          49 123 11 58 10 -8 9 -10 hvcurveto
          hintmask 1101001100000000
          -24 -27 -17 -33 hhcurveto
          hintmask 1010101100000000
          -47 callsubr
          49 140 -9 hvcurveto
          111 -7 -55 -126 -92 -256 -29 -148 rlinecurve
          59 -21 rlineto
          hintmask 1101001010000000
          138 54 110 148 52 hhcurveto
          21 20 -16 -21 hvcurveto
          hintmask 1101001100000000
          -15 callgsubr
          hintmask 1101001010000000
          6 callgsubr
          43 149 63 153 45 102 rrcurveto
          endchar
        </CharString>
        <CharString name="uni040C">
          422 23 callsubr
          133 -20 hstem
          0 90 38 79 vstem
          834 600 rmoveto
          -95 -151 -144 -149 -161 -59 24 113 37 121 94 71 rrcurveto
          28 21 7 9 13 vvcurveto
          20 -24 6 -36 -193 -243 -106 -131 -60 45 -63 75 -36 vhcurveto
          20 31 rlineto
          -55 36 -6 47 24 vvcurveto
          110 190 69 131 3 vhcurveto
          -78 -55 -34 -34 -55 -205 rrcurveto
          -201 -54 -67 -58 -85 hhcurveto
          -38 -27 24 36 41 34 39 56 40 hvcurveto
          -23 36 rlineto
          -97 -45 -60 -72 -69 vvcurveto
          -55 47 -39 65 122 133 106 186 59 vhcurveto
          -246 68 86 -122 88 hhcurveto
          6 7 0 1 8 hvcurveto
          46 vlineto
          -96 14 -48 149 -32 167 200 110 103 103 81 133 rrcurveto
          -50 139 -80 callgsubr
        </CharString>
        <CharString name="uni040E">
          305 -18 callsubr
          524 47 51 -20 hstem
          -60 106 57 90 vstem
          539 -107 callsubr
          528 989 -100 callgsubr
        </CharString>
        <CharString name="uni040F">
          108 -117 -21 137 66 569 -20 hstem
          -5 78 362 65 vstem
          159 65 rmoveto
          -56 -30 48 56 104 106 213 169 111 hvcurveto
          -40 37 rlineto
          -196 -150 -117 -189 -131 vvcurveto
          -74 37 -79 73 -9 vhcurveto
          -11 -50 -8 -48 -42 vvcurveto
          33 8 11 68 8 49 3 12 rlinecurve
          167 192 191 190 68 -25 35 -32 11 hvcurveto
          -36 -83 rlineto
          21 -7 7 -19 -27 vvcurveto
          -33 -10 -31 -9 -22 vhcurveto
          -128 -52 -116 -79 -74 hhcurveto
          endchar
        </CharString>
        <CharString name="uni0410">
          540 -48 callsubr
          hstemhm
          40 105 543 76 hintmask 10111100
          881 298 rmoveto
          -1 callsubr
          -26 callsubr
          vhcurveto
          -106 -94 -108 -140 -23 -35 rrcurveto
          -296 -35 -201 -112 -120 vvcurveto
          -66 51 -40 62 138 129 124 193 143 vhcurveto
          2 20 30 0 29 hhcurveto
          23 22 0 -1 14 hvcurveto
          -2 -24 -11 -79 -49 vvcurveto
          hintmask 01111100
          -87 callgsubr
          hintmask 10111100
          -98 callsubr
          endchar
        </CharString>
        <CharString name="uni0411">
          418 -9 38 -35 -21 381 63 -46 83 92 71 -51 68 5 -20 hstemhm
          84 71 -45 79 465 109 hintmask 1001101101000000
          631 454 rmoveto
          -56 -55 -26 -18 -32 hvcurveto
          40 97 25 18 32 21 rrcurveto
          48 1 152 14 61 vvcurveto
          9 -7 8 -9 vhcurveto
          -37 -57 -22 -57 hhcurveto
          hintmask 1010010101000000
          -81 -103 17 -40 hhcurveto
          -209 -101 -85 -115 -52 47 -28 51 63 63 34 41 45 hvcurveto
          -19 26 rlineto
          -19 -45 -39 -19 -34 hhcurveto
          -35 -26 22 27 58 65 42 143 hvcurveto
          hintmask 0110101011000000
          24 107 -19 -1 29 hvcurveto
          -45 -27 -43 -66 -42 -91 rrcurveto
          -169 -99 -114 -147 -76 vvcurveto
          -37 23 -30 43 24 25 11 21 27 vhcurveto
          hintmask 1001101011000000
          -9 30 32 -5 32 hhcurveto
          200 217 177 173 87 -68 26 -64 hvcurveto
          -390 -377 rmoveto
          -15 -14 -13 -8 -9 hhcurveto
          -10 -6 9 12 39 91 116 85 58 hvcurveto
          -1 -8 -18 -1 -1 vhcurveto
          -10 -22 -49 -107 -56 -62 rrcurveto
          413 218 rmoveto
          -118 -161 -148 -142 -21 -21 4 7 -20 vhcurveto
          32 35 28 42 30 63 32 69 19 45 22 46 rrcurveto
          23 44 41 8 35 hhcurveto
          53 29 -9 -67 hvcurveto
          endchar
        </CharString>
        <CharString name="uni0412">
          292 -183 65 677 79 hstemhm
          40 32 callgsubr
          647 -75 callgsubr
          -5 -41 -142 -52 -85 vhcurveto
          232 -214 rmoveto
          -38 -55 -66 -24 -50 hhcurveto
          hintmask 11001100
          -31 callsubr
        </CharString>
        <CharString name="uni0413">
          215 4 48 291 15 callgsubr
          40 57 hintmask 11001100
          10 callgsubr
          hintmask 11100100
          27 callsubr
          hintmask 11010100
          6 -113 -15 1 -16 -60 callgsubr
          -101 callgsubr
          80 70 34 34 hvcurveto
          hintmask 11001100
          12 callsubr
        </CharString>
        <CharString name="uni0414">
          349 -2 67 -45 -21 598 41 hstemhm
          40 97 480 87 hintmask 10111000
          283 -72 callgsubr
          hvcurveto
          hintmask 01111000
          29 callsubr
          hintmask 10111000
          52 114 20 75 9 29 -75 callsubr
          vhcurveto
          endchar
        </CharString>
        <CharString name="uni0415">
          294 -66 callgsubr
          hstemhm
          40 -49 callgsubr
          hintmask 1110110101000000
          -39 callsubr
          hintmask 1111010110000000
          -97 callsubr
          -37 callsubr
          hintmask 1110111001000000
          -91 callgsubr
          hintmask 1111011001000000
          -69 callgsubr
          hintmask 1111011010000000
          -90 callgsubr
          endchar
        </CharString>
        <CharString name="uni0416">
          561 -14 59 -32 -21 33 62 287 238 -68 68 -68 106 hstemhm
          -7 92 266 70 453 87 hintmask 0110101110000000
          715 87 rmoveto
          -90 -3 -56 73 3 67 rrcurveto
          130 5 114 190 140 hhcurveto
          29 15 -8 -22 -1 hvcurveto
          -3 -58 -65 -40 -117 -12 rrcurveto
          hintmask 1001001110000000
          2 -30 rlineto
          101 5 169 39 128 vvcurveto
          38 -21 28 -62 -171 -133 -139 -267 -100 vhcurveto
          23 131 23 110 74 115 rrcurveto
          13 20 8 13 14 vvcurveto
          hintmask 1000011110000000
          34 -22 7 -8 -28 -60 -110 -155 -83 vhcurveto
          5 22 2 19 18 vvcurveto
          105 -68 52 -68 -152 -108 -135 -102 -12 vhcurveto
          45 3 rlineto
          90 25 63 81 110 hhcurveto
          78 17 -63 -64 -54 -9 -46 -15 -41 hvcurveto
          -187 -20 -147 -103 -115 vvcurveto
          -31 18 -15 34 236 94 210 192 81 vhcurveto
          -9 -37 -32 -150 -16 -92 rrcurveto
          -12 -20 -17 -44 -17 vvcurveto
          hintmask 0111001110000000
          -21 14 -15 16 17 25 15 58 10 vhcurveto
          16 60 24 33 18 34 rrcurveto
          -120 6 77 -47 76 hhcurveto
          153 110 132 105 12 hvcurveto
          -44 -3 -26 -88 -59 -81 -100 -3 rlinecurve
          -400 141 rmoveto
          hintmask 1001001110000000
          -19 -62 -90 -117 -89 -4 rrcurveto
          -23 -1 -9 11 21 vvcurveto
          68 119 64 111 20 vhcurveto
          endchar
        </CharString>
        <CharString name="uni0417">
          261 -178 65 691 67 hstem
          -62 98 394 88 vstem
          188 487 rmoveto
          52 61 86 39 56 hhcurveto
          33 6 -24 -22 -60 -148 -97 -41 -24 hvcurveto
          -53 -31 -11 -12 -20 vvcurveto
          -20 12 -8 28 -8 vhcurveto
          101 -27 29 -19 19 -31 rrcurveto
          -188 -28 -240 -118 -122 vvcurveto
          -51 43 -34 66 89 129 50 69 86 vhcurveto
          80 64 29 47 16 93 55 2 rcurveline
          39 -63 vlineto
          -29 71 -54 30 -139 21 rrcurveto
          55 26 217 122 121 vvcurveto
          39 -21 29 -72 -81 -99 -70 -55 -73 vhcurveto
          106 -571 rmoveto
          -38 -55 -66 -24 -50 hhcurveto
          -31 callsubr
        </CharString>
        <CharString name="uni0418">
          -34 callgsubr
          52 -33 callgsubr
          hintmask 01111110
          -98 callgsubr
          hintmask 10111110
          -92 callsubr
          endchar
        </CharString>
        <CharString name="uni0419">
          -34 callgsubr
          43 47 51 -20 hstemhm
          40 -32 callgsubr
          hintmask 10111111
          -54 callgsubr
          hintmask 01111111
          -98 callgsubr
          hintmask 10111111
          -92 callsubr
          79 232 -100 callgsubr
        </CharString>
        <CharString name="uni041A">
          442 23 callsubr
          hstem
          0 90 38 79 vstem
          834 600 rmoveto
          -95 -151 -144 -149 -161 -59 24 113 37 121 94 71 rrcurveto
          28 21 7 9 13 vvcurveto
          20 -24 6 -36 -193 -243 -106 -131 -60 45 -63 75 -36 vhcurveto
          20 31 rlineto
          -55 36 -6 47 24 vvcurveto
          110 190 69 131 3 vhcurveto
          -78 -55 -34 -34 -55 -205 rrcurveto
          -201 -54 -67 -58 -85 hhcurveto
          -38 -27 24 36 41 34 39 56 40 hvcurveto
          -23 36 rlineto
          -97 -45 -60 -72 -69 vvcurveto
          -55 47 -39 65 122 133 106 186 59 vhcurveto
          -246 68 86 -122 88 hhcurveto
          6 7 0 1 8 hvcurveto
          46 vlineto
          -96 14 -48 149 -32 167 200 110 103 103 81 133 rrcurveto
          endchar
        </CharString>
        <CharString name="uni041B">
          315 -71 -21 732 -20 hstem
          403 78 vstem
          481 78 rmoveto
          223 38 238 37 -76 callgsubr
          -11 -131 -139 -10 callsubr
          12 37 rlineto
          -77 14 -31 27 90 vvcurveto
          endchar
        </CharString>
        <CharString name="uni041C">
          488 -121 -21 780 -20 hstem
          354 78 209 78 vstem
          827 -79 callsubr
        </CharString>
        <CharString name="uni041D">
          470 22 callgsubr
          11 -20 hstemhm
          -60 103 105 84 hintmask 11011100
          780 -42 callsubr
          hintmask 11101100
          -85 callgsubr
          hintmask 11011100
          -545 -579 -50 callsubr
          endchar
        </CharString>
        <CharString name="uni041E">
          305 -34 callsubr
          hstemhm
          24 -28 callsubr
          hintmask 11101100
          698 -105 callgsubr
          -48 callgsubr
          hintmask 11110100
          -89 callgsubr
          endchar
        </CharString>
        <CharString name="uni041F">
          353 1 48 -26 -21 338 63 152 60 -60 73 10 -20 hstemhm
          14 57 346 69 hintmask 10110111
          800 620 rmoveto
          10 -6 8 -8 -4 -6 -2 -2 -7 vhcurveto
          -10 -28 -96 -8 -14 -13 -13 -1 -15 hhcurveto
          hintmask 10101011
          -101 -144 13 -14 -60 callgsubr
          -101 callgsubr
          13 67 2 14 hhcurveto
          -72 -64 -24 -35 -67 -270 rrcurveto
          -6 -22 -2 -21 -19 vvcurveto
          hintmask 01110111
          -73 37 -47 64 12 14 1 1 13 vhcurveto
          21 37 rlineto
          -59 11 -33 19 53 vvcurveto
          28 7 53 32 114 33 callgsubr
          70 34 34 hvcurveto
          endchar
        </CharString>
        <CharString name="uni0420">
          283 25 callsubr
          -10 76 483 89 hintmask 11101100
          554 -76 callsubr
        </CharString>
        <CharString name="uni0421">
          233 -9 callsubr
          hstem
          51 84 364 89 vstem
          510 -104 callsubr
          endchar
        </CharString>
        <CharString name="uni0422">
          382 2 48 -29 -21 341 63 152 60 -60 73 5 -20 hstemhm
          17 57 435 65 hintmask 10100111
          845 634 rmoveto
          -4 -6 -2 -2 -7 hvcurveto
          -28 -10 -66 -2 -14 -1 rrcurveto
          hintmask 10110011
          -1 -13 -15 0 -17 hhcurveto
          hintmask 10101011
          -119 -208 13 -14 -60 callgsubr
          -15 26 rlineto
          -30 -53 -26 -4 -25 hhcurveto
          -40 -27 23 33 63 76 33 143 hvcurveto
          53 45 -3 45 hhcurveto
          -83 -72 -13 -27 -57 -173 rrcurveto
          -190 -62 -49 -41 -62 hhcurveto
          -5 -13 -5 19 -38 hvcurveto
          -23 -38 rlineto
          -13 18 29 -11 23 hhcurveto
          128 87 115 222 69 hvcurveto
          -16 callsubr
          5 31 1 34 hhcurveto
          -74 -66 -8 -28 -43 -142 -72 -237 -6 -18 -62 -11 rrcurveto
          hintmask 01110011
          -4 -51 rlineto
          113 34 119 222 64 hvcurveto
          30 106 28 58 48 49 rrcurveto
          62 hlineto
          -80 -71 -88 -222 -140 vvcurveto
          -72 35 -46 63 12 14 1 1 13 vhcurveto
          21 37 rlineto
          -60 11 -33 19 55 vvcurveto
          26 9 56 31 111 33 callgsubr
          40 29 34 hvcurveto
          hintmask 10100111
          12 callsubr
        </CharString>
        <CharString name="uni0423">
          305 -18 callsubr
          529 -20 hstem
          -60 106 57 90 vstem
          539 -107 callsubr
          endchar
        </CharString>
        <CharString name="uni0424">
          291 -71 -21 122 86 483 62 -62 162 -102 -20 hstemhm
          36 92 -7 89 117 52 215 82 hintmask 1100110110000000
          523 659 rmoveto
          -1 36 55 16 hvcurveto
          hintmask 1101010110000000
          17 -22 14 -14 vhcurveto
          hintmask 1110010110000000
          -28 -67 -98 -2 -5 hvcurveto
          -217 -16 -169 -127 -132 vvcurveto
          -64 34 -46 59 -19 vhcurveto
          hintmask 1110001110000000
          -6 -23 -2 -21 -19 vvcurveto
          -99 65 -65 88 14 9 2 11 32 vhcurveto
          -1 -8 -1 -13 -13 vvcurveto
          -37 5 -47 7 -17 vhcurveto
          50 7 rlineto
          -7 28 -3 22 27 vvcurveto
          21 2 24 4 31 vhcurveto
          152 95 139 202 142 vvcurveto
          126 -83 28 -48 vhcurveto
          hintmask 1100110110000000
          -9 -7 -1 -1 -6 hvcurveto
          -372 -317 rmoveto
          -18 24 -5 15 25 vvcurveto
          80 74 80 139 27 vhcurveto
          -95 -65 -71 -93 -24 -93 rrcurveto
          163 -226 rmoveto
          hintmask 1110001110000000
          -66 -38 43 77 hvcurveto
          4 1 4 5 vvcurveto
          43 4 55 27 25 24 -26 27 rcurveline
          -18 -14 -36 -3 -22 hhcurveto
          -10 -7 0 1 hvcurveto
          1 34 104 253 111 1 -58 -108 -33 -272 -8 -98 rrcurveto
          0 -11 -5 -11 vhcurveto
          79 24 rmoveto
          24 221 40 158 31 78 rrcurveto
          66 40 -40 -63 -103 -94 -188 -107 -63 hvcurveto
          endchar
        </CharString>
        <CharString name="uni0425">
          349 -3 -21 664 -20 hstem
          662 -47 callgsubr
        </CharString>
        <CharString name="uni0426">
          -89 -21 108 75 22 79 345 94 52 -20 hstemhm
          12 92 254 75 -61 61 140 80 -31 75 hintmask 1111111010000000
          653 174 rmoveto
          -58 -48 -101 -38 hhcurveto
          -20 -56 24 109 hvcurveto
          95 92 125 193 74 vvcurveto
          30 -15 18 -27 -59 callgsubr
          vhcurveto
          -95 callsubr
          104 89 50 54 vhcurveto
          hintmask 1111110101000000
          12 11 rlineto
          -55 1 31 -95 69 80 24 97 27 hhcurveto
          15 3 -11 -16 -49 -62 -112 -1 -14 hvcurveto
          50 -3 rlineto
          59 121 29 81 33 vvcurveto
          hintmask 1111111010000000
          28 -18 21 -26 vhcurveto
          -93 345 -20 callgsubr
        </CharString>
        <CharString name="uni0427">
          109 -85 67 280 66 239 74 hstem
          -11 76 96 61 213 64 vstem
          280 336 rmoveto
          55 40 157 92 7 135 rrcurveto
          23 1 -19 15 -23 hhcurveto
          -53 -98 -81 -199 -71 hvcurveto
          -19 -31 -25 -14 -34 hhcurveto
          -49 -33 29 55 1 hvcurveto
          1 31 26 85 81 74 -31 37 rcurveline
          -78 -77 -71 -93 -4 -102 rrcurveto
          -66 -2 34 -39 65 hhcurveto
          40 43 15 21 40 hvcurveto
          -27 -88 -21 -90 -79 vvcurveto
          -73 18 -53 53 52 43 52 26 13 vhcurveto
          -28 21 rlineto
          -22 -25 -18 -10 -14 hhcurveto
          -25 -8 27 46 80 24 131 34 70 hvcurveto
          145 231 rmoveto
          5 5 -5 -8 -24 -41 -60 -80 -59 hvcurveto
          106 48 25 50 38 hhcurveto
          endchar
        </CharString>
        <CharString name="uni0428">
          505 11 72 -53 83 419 94 52 -20 hstemhm
          -3 92 469 80 38 63 hintmask 10111110
          852 117 rmoveto
          -25 -24 -18 -9 -14 hhcurveto
          -39 -18 73 49 63 40 39 18 41 hvcurveto
          58 90 23 69 36 29 callgsubr
          hintmask 01111110
          -46 callsubr
          hintmask 10111110
          -6 callgsubr
          80 106 83 54 51 vhcurveto
          hintmask 01111110
          -76 7 40 -42 64 hhcurveto
          91 78 85 57 54 hvcurveto
          -1 -1 -2 0 vhcurveto
          hintmask 10111110
          -99 40 -59 57 45 43 41 35 18 vhcurveto
          -334 445 -20 callgsubr
        </CharString>
        <CharString name="uni0429">
          636 -105 -21 125 78 -60 -21 22 83 -2 79 342 94 52 -20 hstemhm
          47 92 469 80 17 81 150 75 hintmask 1100111111100000
          967 178 rmoveto
          -58 -49 -101 -37 hhcurveto
          -22 -15 16 29 57 39 91 42 99 hvcurveto
          43 74 18 56 32 29 callgsubr
          hintmask 1011011111100000
          -46 callsubr
          hintmask 1100111111100000
          -6 callgsubr
          80 106 83 54 51 vhcurveto
          hintmask 1011011111100000
          -76 7 40 -42 64 hhcurveto
          85 74 75 56 54 hvcurveto
          -9 -41 -3 -30 -18 vvcurveto
          -50 34 -14 37 vhcurveto
          hintmask 1100111111100000
          86 27 103 28 hhcurveto
          15 4 -11 -16 -49 -37 -89 -26 -57 hvcurveto
          51 -3 rlineto
          59 121 28 101 33 vvcurveto
          28 -18 21 -26 vhcurveto
          -372 342 -20 callgsubr
        </CharString>
        <CharString name="uni042A">
          403 -21 -21 41 59 197 60 254 78 hstem
          9 64 136 85 364 98 vstem
          653 315 rmoveto
          -56 callsubr
          -10 27 -4 33 35 vvcurveto
          134 24 62 57 89 vhcurveto
          -25 callgsubr
          -68 -29 -76 -124 -195 vvcurveto
          -62 3 -56 30 -45 -88 callgsubr
          -52 callgsubr
          -66 callsubr
          hvcurveto
          -216 -257 14 callgsubr
          121 70 31 callgsubr
          -114 -77 -107 hvcurveto
          endchar
        </CharString>
        <CharString name="uni042B">
          516 -23 -21 41 59 -37 -21 255 60 325 -20 38 -20 hstemhm
          65 94 364 98 43 78 -78 114 hintmask 1101011110000000
          518 313 rmoveto
          -56 callsubr
          -10 27 -4 33 35 vvcurveto
          135 23 92 50 97 vhcurveto
          11 21 7 20 16 5 callsubr
          26 42 41 38 18 10 rrcurveto
          -19 -56 -16 -68 -76 vvcurveto
          -62 12 -56 30 -45 -88 callgsubr
          -52 callgsubr
          -66 callsubr
          hvcurveto
          224 -145 rmoveto
          20 vlineto
          hintmask 1011101101000000
          139 28 205 8 106 vhcurveto
          -69 hlineto
          -30 -153 -15 -141 -164 -10 callsubr
          12 37 rlineto
          hintmask 1101011110000000
          -77 14 -31 27 90 vvcurveto
          -440 -112 14 callgsubr
          121 70 31 callgsubr
          -114 -77 -107 hvcurveto
          endchar
        </CharString>
        <CharString name="uni042C">
          246 -21 -21 41 59 192 60 348 -20 hstem
          90 94 347 98 vstem
          526 310 rmoveto
          2 callsubr
          11 22 8 18 17 5 callsubr
          25 42 42 38 17 10 rrcurveto
          -19 -55 -30 -69 -76 vvcurveto
          -62 12 -56 30 -45 -88 callgsubr
          -29 callgsubr
        </CharString>
        <CharString name="uni042D">
          292 2 74 274 48 129 117 -68 68 hstemhm
          8 62 447 60 hintmask 11101100
          573 375 rmoveto
          50 20 44 21 26 28 -5 39 rcurveline
          -31 -17 -5 -12 -75 -26 rrcurveto
          99 -75 117 -117 -60 -73 -48 -69 -30 vhcurveto
          82 hlineto
          29 19 36 20 31 hhcurveto
          81 46 -71 -74 -7 0 -7 -1 -6 hvcurveto
          -9 -29 -31 -4 -32 hhcurveto
          -40 -41 7 14 -43 hvcurveto
          -2 -56 rlineto
          -9 34 38 -4 37 hhcurveto
          hintmask 11011100
          35 33 3 6 30 hvcurveto
          -132 -20 -191 -151 -137 hhcurveto
          -62 -25 23 39 26 12 35 20 38 hvcurveto
          -47 hlineto
          -29 -44 -18 -45 -40 vvcurveto
          -61 43 -45 109 106 272 129 244 35 vhcurveto
          endchar
        </CharString>
        <CharString name="uni042E">
          734 10 41 -41 85 -65 -21 266 53 21 47 162 89 hstemhm
          109 71 -4 64 298 89 357 89 hintmask 1001110111000000
          1066 434 rmoveto
          4 19 3 21 21 vvcurveto
          75 -30 77 -85 -141 -142 -150 -158 -83 vhcurveto
          -28 -47 -3 -2 -47 hvcurveto
          22 65 28 76 22 33 rrcurveto
          -25 callgsubr
          -60 -47 -34 -57 -42 -125 rrcurveto
          hintmask 1001111011000000
          -126 -1 -149 -128 -105 vvcurveto
          -51 35 -33 53 88 115 105 163 51 vhcurveto
          114 hlineto
          -19 -46 -8 -42 -40 vvcurveto
          hintmask 0011111011000000
          -84 50 -57 73 135 182 196 171 68 vhcurveto
          54 20 76 30 36 22 -4 45 rcurveline
          -22 -11 -34 -17 -86 -31 rrcurveto
          hintmask 1001111011000000
          -842 -383 rmoveto
          -25 -19 24 33 88 107 78 80 1 hvcurveto
          -162 -54 -45 -62 -44 hhcurveto
          hintmask 0101111011000000
          488 44 rmoveto
          -59 -26 42 57 73 28 79 56 78 hvcurveto
          -52 17 72 -23 101 hhcurveto
          19 20 0 5 25 hvcurveto
          -90 -36 -110 -169 -107 hhcurveto
          267 310 rmoveto
          -7 -28 -23 -2 -26 hhcurveto
          -77 -43 28 40 52 69 46 49 66 18 -53 -52 -18 -2 -18 -3 -16 hvcurveto
          endchar
        </CharString>
        <CharString name="uni042F">
          418 -58 71 -49 -21 279 63 306 39 11 -20 hstemhm
          241 86 116 69 214 68 hintmask 10101111
          794 574 rmoveto
          37 -24 30 -41 -20 -23 -10 -18 -22 vhcurveto
          hintmask 10110111
          15 -52 -14 2 -31 hhcurveto
          -148 -178 -152 -145 -70 46 -41 77 5 4 0 1 5 hvcurveto
          -107 -105 -132 -103 -86 hhcurveto
          -7 -7 0 2 -6 hvcurveto
          -27 -68 rlineto
          -3 14 18 -2 13 hhcurveto
          157 159 165 144 122 hvcurveto
          -10 -39 -38 -107 -71 vvcurveto
          hintmask 01110111
          -54 17 -37 45 38 57 42 56 23 vhcurveto
          -20 17 rlineto
          -20 -18 -15 -21 -26 hhcurveto
          -18 -14 15 24 38 38 135 12 56 hvcurveto
          139 84 93 136 69 vvcurveto
          -114 -25 rmoveto
          13 11 10 7 8 hhcurveto
          10 7 -9 -12 -37 -79 -111 -67 -49 hvcurveto
          0 55 143 45 55 vhcurveto
          -173 -233 rmoveto
          -15 -46 -35 -16 -30 hhcurveto
          -42 -27 30 33 100 126 143 124 21 13 -5 -4 23 hvcurveto
          -66 -74 -47 -123 -14 -69 rrcurveto
          endchar
        </CharString>
        <CharString name="uni0430">
          94 0 74 301 -20 7 callgsubr
          449 101 rmoveto
          -23 -30 -10 -10 -12 -106 callgsubr
          -35 15 -27 44 -7 callsubr
          vhcurveto
          endchar
        </CharString>
        <CharString name="uni0431">
          -24 -1 78 547 49 hstem
          18 81 13 80 78 59 vstem
          265 673 rmoveto
          -96 -1 -57 -40 -72 vvcurveto
          -42 116 -181 23 -51 vhcurveto
          18 -41 1 -28 -27 vvcurveto
          -63 -42 -50 -2 callgsubr
          83 99 116 18 -9 54 -13 30 vhcurveto
          -21 50 -94 158 27 vvcurveto
          49 26 24 74 15 35 -3 -2 14 vhcurveto
          9 42 rlineto
          6 -13 -56 6 -31 hhcurveto
          endchar
        </CharString>
        <CharString name="uni0432">
          46 0 77 178 62 279 93 hstem
          52 63 155 72 5 83 vstem
          140 314 rmoveto
          173 57 117 105 116 vvcurveto
          57 -35 40 -57 -114 -84 -80 -281 -48 vhcurveto
          -61 -23 -17 -6 -13 -7 1 -24 rcurveline
          81 30 rlineto
          -12 -49 -19 -68 -65 vvcurveto
          -60 18 -56 63 102 107 144 104 51 -30 18 -39 -26 -38 -19 -26 -37 vhcurveto
          12 -30 rlineto
          7 20 11 6 17 hhcurveto
          22 16 -12 -39 -69 -57 -58 -57 -31 -10 31 40 hvcurveto
          1 57 17 76 7 33 rrcurveto
          6 30 rmoveto
          194 41 63 58 48 hhcurveto
          28 21 -22 -32 -61 -84 -84 -117 -53 hvcurveto
          endchar
        </CharString>
        <CharString name="uni0433">
          -71 0 80 233 73 -52 callsubr
          endchar
        </CharString>
        <CharString name="uni0434">
          74 -385 18 callsubr
          300 -20 hstemhm
          23 83 -48 93 hintmask 11101000
          451 -94 callsubr
          hintmask 11110000
          -86 callsubr
          endchar
        </CharString>
        <CharString name="uni0435">
          6 -14 callsubr
          hstem
          308 73 vstem
          300 -105 callsubr
          endchar
        </CharString>
        <CharString name="uni0436">
          171 -4 -21 428 -20 hstem
          318 214 rmoveto
          11 11 140 98 53 17 rrcurveto
          0 -43 39 -1 vhcurveto
          -26 -9 -70 -45 -66 -47 10 119 rcurveline
          -65 6 rlineto
          -47 -1 -48 -3 -45 vhcurveto
          -39 37 -69 71 -5 24 -60 -7 rcurveline
          8 -54 88 -80 43 -33 -6 -5 -136 -100 -57 -108 31 -28 rcurveline
          0 148 176 49 15 vhcurveto
          -8 -84 -16 -84 -14 -28 61 8 rcurveline
          12 43 8 55 8 62 54 -58 126 -82 19 -11 29 36 rcurveline
          0 -153 105 -60 81 vhcurveto
          endchar
        </CharString>
        <CharString name="uni0437">
          7 0 43 308 60 hstemhm
          151 173 -78 78 -21 21 -21 84 hintmask 11001000
          387 341 rmoveto
          39 -43 31 -43 -55 -97 -50 -57 -49 vhcurveto
          14 -28 rlineto
          45 57 61 30 27 hhcurveto
          24 20 -17 -20 hvcurveto
          hintmask 11100000
          -67 -152 5 -35 vvcurveto
          hintmask 11010000
          -33 95 6 -59 vvcurveto
          -51 -69 -37 -64 -19 -32 14 16 -16 vhcurveto
          -38 -35 rlineto
          -21 17 54 -17 47 hhcurveto
          93 105 64 77 33 -32 22 -39 24 hvcurveto
          hintmask 11000100
          56 20 78 40 61 vvcurveto
          endchar
        </CharString>
        <CharString name="uni0438">
          105 1 74 -74 93 -73 -21 387 -20 hstemhm
          37 20 callsubr
          hintmask 10011100
          436 117 rmoveto
          -83 callgsubr
          hintmask 01011100
          -19 callgsubr
          -21 -17 -92 -195 -94 vvcurveto
          -47 18 -24 -24 callsubr
          -43 callsubr
          hintmask 00111100
          -63 callgsubr
          endchar
        </CharString>
        <CharString name="uni0439">
          105 1 74 -74 93 -73 -21 403 47 51 -20 hstemhm
          28 20 callsubr
          hintmask 10011110
          427 117 rmoveto
          -83 callgsubr
          hintmask 01011110
          -19 callgsubr
          -21 -17 -92 -195 -94 vvcurveto
          -47 18 -24 -24 callsubr
          -43 callsubr
          hintmask 00111110
          -63 callgsubr
          -79 398 -100 callgsubr
        </CharString>
        <CharString name="uni043A">
          59 -6 75 0 248 89 -20 hstemhm
          hintmask 01100000
          -69 callsubr
          hintmask 10100000
          3 callgsubr
          endchar
        </CharString>
        <CharString name="uni043B">
          181 -10 79 -67 67 334 -20 hstemhm
          312 69 hintmask 01110000
          65 88 rmoveto
          -47 24 -39 38 46 84 43 104 66 vhcurveto
          -43 callsubr
          hintmask 10110000
          -63 callgsubr
          -21 17 rlineto
          -20 -18 -16 -22 -26 hhcurveto
          -19 -14 16 24 hvcurveto
          51 75 178 32 vvcurveto
          11 callgsubr
          -148 -72 -63 -76 -59 hhcurveto
          -24 -21 20 24 hvcurveto
          endchar
        </CharString>
        <CharString name="uni043C">
          302 -1 75 -63 63 -63 82 -72 -21 412 -20 hstemhm
          233 20 callsubr
          hintmask 10001110
          632 116 rmoveto
          -20 -18 -16 -22 -26 hhcurveto
          -19 -14 16 24 hvcurveto
          51 99 178 32 vvcurveto
          11 callgsubr
          hintmask 00101110
          -148 -72 -67 -61 -41 hhcurveto
          -24 -21 20 24 12 7 38 19 50 hvcurveto
          32 63 34 43 32 vvcurveto
          20 -14 17 -17 -25 -14 -45 -90 -46 vhcurveto
          hintmask 01001110
          -131 -67 -87 -72 -39 hhcurveto
          -24 -21 20 24 hvcurveto
          -38 -36 rlineto
          -47 18 -24 38 46 68 42 104 66 vhcurveto
          -6 -34 -8 -28 -24 vvcurveto
          hintmask 00011110
          -47 18 -24 -24 callsubr
          -43 callsubr
          hintmask 10001110
          -63 callgsubr
          endchar
        </CharString>
        <CharString name="uni043D">
          92 -34 -21 447 -20 hstem
          423 389 rmoveto
          -17 -17 -25 -46 -54 -124 rrcurveto
          1 -12 -11 0 -12 hhcurveto
          -24 -46 -6 -3 -29 hvcurveto
          23 68 44 76 17 37 -43 17 rcurveline
          -17 -17 -38 -72 -54 -124 rrcurveto
          -58 -9 -75 -24 34 callsubr
          33 9 43 7 rrcurveto
          -48 -94 -5 -53 -28 vvcurveto
          67 -9 rlineto
          34 10 69 41 92 vhcurveto
          5 28 52 8 30 hhcurveto
          9 9 0 -1 9 hvcurveto
          -33 -82 -2 -28 -32 vvcurveto
          64 -5 20 200 104 146 3 29 rlinecurve
          endchar
        </CharString>
        <CharString name="uni043E">
          -44 -7 callgsubr
          hstem
          20 5 callgsubr
          305 -102 callgsubr
          endchar
        </CharString>
        <CharString name="uni043F">
          89 2 callgsubr
          22 -6 callsubr
          hintmask 01110100
          -81 callsubr
          hintmask 10111000
          -54 callsubr
          endchar
        </CharString>
        <CharString name="uni0440">
          120 26 callgsubr
          133 55 216 83 vstem
          407 -59 callsubr
        </CharString>
        <CharString name="uni0441">
          -10 18 callgsubr
          hstem
          21 87 vstem
          291 -82 callgsubr
          endchar
        </CharString>
        <CharString name="uni0442">
          347 34 callgsubr
          334 81 109 77 -9 84 hintmask 10101100
          697 -71 callgsubr
        </CharString>
        <CharString name="uni0443">
          76 -360 18 callsubr
          283 -20 hstemhm
          3 83 -48 79 hintmask 11101000
          431 -82 callsubr
          endchar
        </CharString>
        <CharString name="uni0444">
          12 -78 -21 652 -20 hstem
          6 81 244 58 vstem
          389 263 rmoveto
          18 -8 48 -18 22 vhcurveto
          -52 -16 rlineto
          17 -21 3 -21 -19 vvcurveto
          -72 -34 -64 -71 -18 vhcurveto
          28 188 36 207 21 vvcurveto
          -55 17 -3 -8 -9 -59 -11 -78 rlinecurve
          -124 -25 -82 -110 -111 vvcurveto
          -76 80 -44 76 -3 vhcurveto
          -7 -49 -3 -37 -2 -18 47 -34 rcurveline
          4 41 6 49 8 55 rrcurveto
          90 24 84 94 99 vvcurveto
          -302 -53 rmoveto
          77 50 64 70 20 vhcurveto
          -35 -248 rlineto
          -38 12 -47 31 44 vvcurveto
          endchar
        </CharString>
        <CharString name="uni0445">
          69 5 -21 388 -20 hstem
          392 -44 callsubr
        </CharString>
        <CharString name="uni0446">
          155 -74 -21 95 75 -75 93 3 73 217 -20 hstemhm
          28 78 158 70 138 70 hintmask 11011111
          501 169 rmoveto
          -54 -45 -94 -35 hhcurveto
          -18 -15 14 25 42 77 165 12 42 hvcurveto
          -51 23 rlineto
          hintmask 10111111
          -19 callgsubr
          -21 -17 -92 -195 -94 vvcurveto
          -47 18 -24 38 46 79 53 102 66 vhcurveto
          -8 -36 -3 -26 -21 callsubr
        </CharString>
</ttFont>
